<?xml version="1.0" encoding="UTF-8" standalone="no"?>
<!DOCTYPE svg  PUBLIC '-//W3C//DTD SVG 1.1//EN'  'http://www.w3.org/Graphics/SVG/1.1/DTD/svg11.dtd'>
<svg xmlns="http://www.w3.org/2000/svg">
<defs>
<font id="BrandonGrotesque-Medium" horiz-adv-x="490">
<font-face underline-position="-50" font-weight="420" descent="-200" panose-1="2 11 6 3 2 2 3 6 2 2" units-per-em="1000" unicode-range="U+0020-FB02" bbox="-140 -379 1071 1034" x-height="400" underline-thickness="50" font-family="BrandonGrotesque" ascent="800" cap-height="700"/>
<missing-glyph d="M245 156q0 -20 14.5 -34t33.5 -14q20 0 34.5 14t14.5 34t-14.5 34t-34.5 14q-19 0 -33.5 -14t-14.5 -34zM262 314q0 -12 14 -12h36q15 0 15 13v26q0 16 16.5 32t36 28.5t36 36.5t16.5 53q0 48 -35.5 79.5t-89.5 31.5q-24 0 -46.5 -6.5t-37 -15t-25.5 -17.5t-16 -15l-5 -7 q-8 -12 0 -18l22 -22q9 -6 17 0q1 1 7.5 7t9.5 9t11.5 8.5t15.5 8.5t18 5.5t22 2.5q29 0 45 -15t16 -37q0 -21 -15.5 -39t-34 -30t-34 -32.5t-15.5 -45.5v-29zM50 30v640q0 30 30 30h439q30 0 30 -30v-640q0 -30 -30 -30h-439q-30 0 -30 30z" horiz-adv-x="599"/>
<glyph glyph-name="fi" horiz-adv-x="544" unicode="fi" d="M96 19v298h-47q-8 0 -13.5 5.5t-5.5 13.5v45q0 19 19 19h47v124q0 86 51.5 136t128.5 50t150 -45q6 -4 7.5 -11.5t-2.5 -13.5l-25 -45q-8 -15 -26 -5q-58 32 -104 32q-34 0 -58.5 -25t-24.5 -73v-124h267q8 0 13.5 -6t5.5 -13v-362q0 -7 -5.5 -13t-13.5 -6h-57 q-7 0 -13 6t-6 13v298h-191v-298q0 -19 -28 -19h-50q-7 0 -13 6t-6 13z"/>
<glyph glyph-name="fl" horiz-adv-x="552" unicode="fl" d="M97 19v299h-49q-8 0 -13.5 5.5t-5.5 13.5v44q0 19 19 19h49v124q0 88 51.5 137t127.5 49q38 0 72 -13.5t50 -26.5l15 -14l9 27q8 17 22 17h24q8 0 13.5 -6t5.5 -13v-662q0 -7 -5.5 -13t-13.5 -6h-57q-7 0 -13 6t-6 13v544q-6 8 -15 17.5t-36.5 24t-56.5 14.5 q-37 0 -64 -23.5t-27 -71.5v-124h100q19 0 19 -19v-44q0 -8 -5.5 -13.5t-13.5 -5.5h-100v-299q0 -7 -5.5 -13t-13.5 -6h-59q-7 0 -12.5 5.5t-5.5 13.5z"/>
<glyph glyph-name="f_f" horiz-adv-x="621" unicode="ff" d="M193 400h189v124q0 29 6 53q-12 13 -38 24.5t-55 11.5q-43 0 -72.5 -28t-29.5 -84v-101zM96 19v298h-48q-8 0 -13.5 5.5t-5.5 13.5v45q0 19 19 19h48v101q0 97 56 148t140 51q78 0 134 -43q47 53 126 53q69 0 114 -40q6 -6 6 -14q0 -6 -2 -9l-25 -45q-8 -15 -25 -3 q-35 24 -66 24q-34 0 -54.5 -25t-20.5 -74v-124h108q19 0 19 -19v-45q0 -8 -5.5 -13.5t-13.5 -5.5h-108v-298q0 -7 -5.5 -13t-13.5 -6h-59q-7 0 -13 6t-6 13v298h-189v-298q0 -7 -5.5 -13t-13.5 -6h-59q-7 0 -13 6t-6 13z"/>
<glyph glyph-name="f_f_i" horiz-adv-x="830" unicode="ffi" d="M193 400h189v124q0 26 5 53q-11 13 -37 24.5t-55 11.5q-44 0 -73 -28t-29 -84v-101zM96 19v298h-48q-8 0 -13.5 5.5t-5.5 13.5v45q0 19 19 19h48v101q0 90 53 143t143 56q72 0 134 -43q47 53 133 53q80 0 153 -45q6 -4 7.5 -11.5t-2.5 -13.5l-26 -47q-8 -11 -26 -3 q-51 32 -103 32q-35 0 -59 -25t-24 -74v-123h267q8 0 13.5 -6t5.5 -13v-362q0 -7 -5.5 -13t-13.5 -6h-57q-8 0 -13.5 5.5t-5.5 13.5v298h-191v-298q0 -7 -5.5 -13t-13.5 -6h-59q-7 0 -13 6t-6 13v298h-189v-298q0 -7 -5.5 -13t-13.5 -6h-59q-7 0 -13 6t-6 13z"/>
<glyph glyph-name="f_f_l" horiz-adv-x="838" unicode="ffl" d="M193 400h189v124q0 29 6 53q-12 13 -38 24.5t-55 11.5q-43 0 -72.5 -28t-29.5 -84v-101zM96 19v298h-48q-8 0 -13.5 5.5t-5.5 13.5v45q0 19 19 19h48v101q0 97 56 148t140 51q78 0 134 -43q47 53 138 53q37 0 70.5 -13.5t49.5 -26.5l15 -14l9 27q6 17 22 17h24 q8 0 13.5 -6t5.5 -13v-662q0 -7 -5.5 -13t-13.5 -6h-57q-7 0 -13 6t-6 13v544q-6 8 -15 17.5t-36.5 24t-56.5 14.5q-37 0 -64 -23.5t-27 -71.5v-124h100q19 0 19 -19v-44q0 -8 -5.5 -13.5t-13.5 -5.5h-100v-299q0 -7 -5.5 -13t-13.5 -6h-59q-7 0 -13 6t-6 13v298h-189v-298 q0 -7 -5.5 -13t-13.5 -6h-59q-7 0 -13 6t-6 13z"/>
<glyph glyph-name="f_f_h" horiz-adv-x="1121" unicode="ffh" d="M193 400h189v124q0 29 6 53q-12 13 -38 24.5t-55 11.5q-43 0 -72.5 -28t-29.5 -84v-101zM96 19v298h-48q-8 0 -13.5 5.5t-5.5 13.5v45q0 19 19 19h48v90q0 103 54 156.5t142 53.5q78 0 134 -43q47 53 138 53q37 0 70.5 -13.5t49.5 -26.5l15 -14l9 27q6 17 22 17h24 q8 0 13.5 -6t5.5 -13q0 -53 0.5 -157.5t0.5 -156.5q61 43 120 43q167 0 167 -207v-184q0 -7 -5.5 -13t-13.5 -6h-57q-7 0 -13 6t-6 13v201q0 48 -22.5 74.5t-61.5 26.5q-41 0 -72 -22t-36 -41v-24v-215q0 -19 -20 -19h-57q-7 0 -13 6t-6 13v544q-6 8 -15 17.5t-36.5 24 t-56.5 14.5q-39 0 -65 -25t-26 -77v-117h100q19 0 19 -19v-44q0 -8 -5.5 -13.5t-13.5 -5.5h-100v-299q0 -7 -5.5 -13t-13.5 -6h-59q-7 0 -13 6t-6 13v298h-189v-298q0 -7 -5.5 -13t-13.5 -6h-59q-7 0 -13 6t-6 13z"/>
<glyph glyph-name="f_k" horiz-adv-x="794" unicode="fk" d="M97 19v299h-49q-8 0 -13.5 5.5t-5.5 13.5v44q0 19 19 19h49v124q0 88 51.5 137t127.5 49q38 0 72 -13.5t50 -26.5l15 -14l9 27q6 17 22 17h24q8 0 13.5 -6t5.5 -13v-433l157 140q12 12 24 12h71q16 0 16 -15q0 -7 -5 -12l-167 -151l197 -196q5 -5 5 -11q0 -15 -17 -15 h-82q-10 0 -18 8l-181 186v-175q0 -7 -5.5 -13t-13.5 -6h-57q-7 0 -13 6t-6 13v544q-6 8 -15 17.5t-36.5 24t-56.5 14.5q-37 0 -64 -23.5t-27 -71.5v-124h100q19 0 19 -19v-44q0 -8 -5.5 -13.5t-13.5 -5.5h-100v-299q0 -7 -5.5 -13t-13.5 -6h-59q-7 0 -12.5 5.5t-5.5 13.5z "/>
<glyph glyph-name="f_j" horiz-adv-x="544" unicode="fj" d="M96 19v298h-47q-8 0 -13.5 5.5t-5.5 13.5v45q0 19 19 19h47v124q0 86 51.5 136t128.5 50t150 -45q6 -4 7.5 -11.5t-2.5 -13.5l-25 -45q-8 -15 -26 -5q-58 32 -104 32q-34 0 -58.5 -25t-24.5 -73v-124h267q8 0 13.5 -6t5.5 -13v-505q0 -90 -47.5 -138t-122.5 -48 q-72 0 -114 40q-12 10 -4 23l25 45q8 14 25 3q36 -25 66 -25q36 0 56 25t20 75v441h-190v-298q0 -7 -5.5 -13t-13.5 -6h-59q-7 0 -13 6t-6 13z"/>
<glyph glyph-name="f_f_j" horiz-adv-x="830" unicode="ffj" d="M193 400h189v109q0 41 5 68q-11 13 -37 24.5t-55 11.5q-44 0 -73 -28t-29 -84v-101zM96 19v298h-48q-8 0 -13.5 5.5t-5.5 13.5v45q0 19 19 19h48v98q0 97 55 149.5t141 52.5q72 0 134 -43q47 53 133 53q77 0 153 -45q6 -4 7.5 -11.5t-2.5 -13.5l-26 -47q-8 -11 -26 -3 q-51 32 -103 32q-83 0 -83 -122v-100h267q8 0 13.5 -6t5.5 -13v-498q0 -47 -21.5 -75t-56.5 -34q-41 -66 -120 -66q-9 0 -27 2q-26 2 -45.5 13.5t-19.5 23.5q0 2 2 6l25 45q8 14 25 3q36 -25 66 -25q35 0 55.5 25.5t20.5 74.5v441h-190v-298q0 -7 -5.5 -13t-13.5 -6h-59 q-7 0 -13 6t-6 13v298h-189v-298q0 -7 -5.5 -13t-13.5 -6h-59q-7 0 -13 6t-6 13z"/>
<glyph glyph-name="f_b" horiz-adv-x="817" unicode="fb" d="M486 146q3 -17 29.5 -44t66.5 -27q47 0 76.5 36.5t29.5 88.5q0 51 -32.5 86t-81.5 35q-24 0 -46 -5.5t-32 -11.5l-10 -6v-152zM97 19v299h-49q-8 0 -13.5 5.5t-5.5 13.5v44q0 19 19 19h49v106q0 24 1 36q6 78 55 123t123 45q38 0 72 -13.5t50 -26.5l15 -14l9 27 q6 17 22 17h24q8 0 13.5 -6t5.5 -13v-294q52 23 96 23q84 0 141 -61t57 -149q0 -87 -54.5 -148.5t-132.5 -61.5q-36 0 -67.5 14t-45.5 28l-14 14q-1 -2 -2.5 -9t-2.5 -10t-3 -8.5t-4 -7.5t-5 -5.5t-6.5 -4.5t-8.5 -1h-24q-7 0 -13 6t-6 13v544q-6 8 -15 17.5t-36.5 24 t-56.5 14.5q-37 0 -64 -23.5t-27 -71.5v-18v-106h100q19 0 19 -19v-44q0 -8 -5.5 -13.5t-13.5 -5.5h-100v-299q0 -7 -5.5 -13t-13.5 -6h-59q-7 0 -12.5 5.5t-5.5 13.5z"/>
<glyph glyph-name="f_f_k" horiz-adv-x="1080" unicode="ffk" d="M193 400h189v124q0 29 6 53q-12 13 -38 24.5t-55 11.5q-43 0 -72.5 -28t-29.5 -84v-101zM96 19v298h-48q-8 0 -13.5 5.5t-5.5 13.5v45q0 19 19 19h48v101q0 97 56 148t140 51q78 0 134 -43q47 53 137 53q37 0 71 -13.5t50 -26.5l15 -14l10 29q4 15 19 15h26q8 0 13.5 -6 t5.5 -13v-433l157 140q12 12 24 12h71q16 0 16 -15q0 -7 -5 -12l-167 -151l197 -196q5 -5 5 -11q0 -15 -17 -15h-82q-10 0 -18 8l-181 186v-175q0 -7 -5.5 -13t-13.5 -6h-57q-7 0 -13 6t-6 13v544q-6 8 -15 17.5t-36.5 24t-56.5 14.5q-37 0 -64 -23.5t-27 -71.5v-124h100 q19 0 19 -19v-44q0 -8 -5.5 -13.5t-13.5 -5.5h-100v-299q0 -7 -5.5 -13t-13.5 -6h-59q-7 0 -13 6t-6 13v298h-189v-298q0 -7 -5.5 -13t-13.5 -6h-59q-7 0 -13 6t-6 13z"/>
<glyph glyph-name="f_h" horiz-adv-x="834" unicode="fh" d="M97 19v299h-49q-8 0 -13.5 5.5t-5.5 13.5v44q0 19 19 19h49v106q0 24 1 36q6 78 55.5 123t123.5 45q37 0 71 -13.5t50 -26.5l15 -14l9 27q6 17 22 17h24q8 0 13.5 -6t5.5 -13q0 -53 0.5 -157.5t0.5 -156.5q61 43 120 43q86 0 126.5 -55.5t40.5 -151.5v-184q0 -7 -5.5 -13 t-13.5 -6h-57q-7 0 -13 6t-6 13v201q0 48 -22.5 74.5t-61.5 26.5q-41 0 -72 -22t-36 -41v-19v-220q0 -19 -20 -19h-57q-7 0 -13 6t-6 13v544q-6 8 -15 17.5t-36.5 24t-56.5 14.5q-37 0 -64 -23.5t-27 -71.5v-18v-106h100q19 0 19 -19v-44q0 -8 -5.5 -13.5t-13.5 -5.5h-100 v-299q0 -7 -5.5 -13t-13.5 -6h-59q-7 0 -12.5 5.5t-5.5 13.5z"/>
<glyph glyph-name="f_f_b" horiz-adv-x="1103" unicode="ffb" d="M772 146q3 -17 29.5 -44t66.5 -27q47 0 76.5 36.5t29.5 88.5q0 51 -32.5 86t-81.5 35q-24 0 -46 -5.5t-32 -11.5l-10 -6v-152zM193 400h189v124q0 29 6 53q-12 13 -38 24.5t-55 11.5q-43 0 -72.5 -28t-29.5 -84v-101zM96 19v298h-48q-8 0 -13.5 5.5t-5.5 13.5v45 q0 19 19 19h48v100q0 94 55 147t141 53q78 0 134 -43q47 53 137 53q37 0 71 -13.5t50 -26.5l15 -14l9 27q6 17 22 17h24q8 0 13.5 -6t5.5 -13v-294q52 23 96 23q84 0 141 -61t57 -149q0 -87 -54.5 -148.5t-132.5 -61.5q-36 0 -67.5 14t-45.5 28l-14 14q-1 -2 -2.5 -9 t-2.5 -10t-3 -8.5t-4 -7.5t-5 -5.5t-6.5 -4.5t-8.5 -1h-24q-7 0 -13 6t-6 13v544q-6 8 -15 17.5t-36.5 24t-56.5 14.5q-37 0 -64 -23.5t-27 -71.5v-18v-106h100q19 0 19 -19v-44q0 -8 -5.5 -13.5t-13.5 -5.5h-100v-299q0 -7 -5.5 -13t-13.5 -6h-59q-7 0 -13 6t-6 13v298 h-189v-298q0 -7 -5.5 -13t-13.5 -6h-59q-7 0 -13 6t-6 13z"/>
<glyph glyph-name=".notdef" d="M245 156q0 -20 14.5 -34t33.5 -14q20 0 34.5 14t14.5 34t-14.5 34t-34.5 14q-19 0 -33.5 -14t-14.5 -34zM262 314q0 -12 14 -12h36q15 0 15 13v26q0 16 16.5 32t36 28.5t36 36.5t16.5 53q0 48 -35.5 79.5t-89.5 31.5q-24 0 -46.5 -6.5t-37 -15t-25.5 -17.5t-16 -15l-5 -7 q-8 -12 0 -18l22 -22q9 -6 17 0q1 1 7.5 7t9.5 9t11.5 8.5t15.5 8.5t18 5.5t22 2.5q29 0 45 -15t16 -37q0 -21 -15.5 -39t-34 -30t-34 -32.5t-15.5 -45.5v-29zM50 30v640q0 30 30 30h439q30 0 30 -30v-640q0 -30 -30 -30h-439q-30 0 -30 30z" horiz-adv-x="599"/>
<glyph glyph-name=".null" horiz-adv-x="0"/>
<glyph glyph-name="nonmarkingreturn" horiz-adv-x="333"/>
<glyph glyph-name="space" horiz-adv-x="220" unicode=" "/>
<glyph glyph-name="exclam" horiz-adv-x="294" unicode="!" d="M77 59q0 29 20.5 49.5t48.5 20.5q29 0 49.5 -20.5t20.5 -49.5t-20.5 -49t-49.5 -20q-28 0 -48.5 20.5t-20.5 48.5zM136 272q-7 0 -12.5 5t-6.5 11l-29 279v114q0 7 6 13t13 6h80q7 0 13 -6t6 -13v-112l-29 -281q-1 -6 -6.5 -11t-12.5 -5h-22z"/>
<glyph glyph-name="quotedbl" horiz-adv-x="324" unicode='&quot;' d="M61 501q-7 0 -13 5.5t-6 13.5v161q0 7 6 13t13 6h57q19 0 19 -18q0 -5 -1 -7l-34 -159q-4 -15 -18 -15h-23zM222 501q-8 0 -13.5 5.5t-5.5 13.5v161q0 7 5.5 13t13.5 6h57q19 0 19 -18q0 -5 -1 -7l-34 -159q-4 -15 -18 -15h-23z"/>
<glyph glyph-name="numbersign" horiz-adv-x="540" unicode="#" d="M184 240h156l22 167h-154zM105 22l24 169h-70q-19 0 -19 17v14q0 18 19 18h77l24 167h-72q-8 0 -13.5 5t-5.5 12v14q0 7 5.5 12.5t13.5 5.5h78l32 228q1 6 6 11t12 5h11q8 0 13.5 -6.5t4.5 -15.5l-30 -222h154l31 228q1 6 6.5 11t12.5 5h9q9 0 14.5 -6.5t4.5 -15.5 l-30 -222h67q8 0 13.5 -5t5.5 -13v-14q0 -17 -18 -17h-74l-24 -167h68q19 0 19 -18v-14q0 -17 -18 -17h-76l-25 -175q-2 -16 -19 -16h-10q-9 0 -14.5 6.5t-4.5 15.5l25 169h-156l-24 -175q-2 -16 -19 -16h-9q-10 0 -15.5 6.5t-3.5 15.5z"/>
<glyph glyph-name="dollar" horiz-adv-x="522" unicode="$" d="M286 78q42 5 69.5 31t27.5 61q0 66 -97 116v-208zM238 418v202q-47 -5 -71.5 -31.5t-24.5 -55.5q0 -69 96 -115zM50 69q-10 10 -10 17q0 8 5 15l29 42q9 12 19 12q5 0 12 -5q6 -6 21.5 -17.5t48.5 -28t63 -22.5q0 38 0.5 113t0.5 113q-89 35 -139 79t-55 120v11 q0 17 1 25q6 60 55 108.5t138 57.5v32q0 8 5.5 13.5t13.5 5.5h10q8 0 13.5 -5.5t5.5 -13.5v-33q87 -7 162 -57q10 -6 10 -20q0 -7 -4 -14q-3 -4 -9 -13.5t-9.5 -14.5t-9 -11.5t-11 -9.5t-10.5 -3q-6 0 -11 4q-1 0 -8.5 5t-17.5 10.5t-23 12t-29 12.5t-30 9q0 -36 -0.5 -110 t-0.5 -110q45 -19 76.5 -36.5t62.5 -43.5t47 -61t16 -78q0 -78 -56.5 -129.5t-146.5 -58.5v-104q0 -18 -21 -18q-26 0 -26 18v104q-114 9 -188 78z"/>
<glyph glyph-name="percent" horiz-adv-x="668" unicode="%" d="M422 124q0 -26 18.5 -44.5t45.5 -18.5q25 0 43.5 18.5t18.5 44.5q0 25 -18.5 43.5t-43.5 18.5q-27 0 -45.5 -18t-18.5 -44zM351 124q0 56 39.5 95.5t95.5 39.5t95.5 -39.5t39.5 -95.5t-39.5 -95.5t-95.5 -39.5t-95.5 39.5t-39.5 95.5zM163 512q26 0 44 18.5t18 45.5 q0 25 -18.5 43.5t-43.5 18.5q-26 0 -44.5 -18.5t-18.5 -43.5q0 -27 18.5 -45.5t44.5 -18.5zM116 27l343 663q7 10 17 10h33q8 0 13.5 -5t5.5 -13q0 -6 -2 -9l-345 -663q-5 -10 -17 -10h-31q-8 0 -13.5 5t-5.5 13q0 6 2 9zM163 441q-56 0 -95.5 39.5t-39.5 95.5t39.5 95.5 t95.5 39.5t95.5 -39.5t39.5 -95.5t-39.5 -95.5t-95.5 -39.5z"/>
<glyph glyph-name="ampersand" horiz-adv-x="679" unicode="&amp;" d="M174 182q0 -47 33 -77.5t82 -30.5q89 0 150 72l-167 176q-98 -60 -98 -140zM295 423q59 36 80 62q24 29 24 62q0 34 -26 60t-69 26q-41 0 -65 -24.5t-24 -61.5q-1 -27 13.5 -49.5t44.5 -52.5zM79 176q0 119 139 200v2l-23 25q-70 74 -69 145q0 63 48.5 112.5t134.5 49.5 q80 0 129.5 -46t49.5 -113q0 -34 -14 -64.5t-40.5 -56.5t-41 -37.5t-39.5 -28.5l140 -140q33 64 38 144q1 25 18 25q6 0 10 -1l41 -8q18 -4 18 -20q0 -2 -0.5 -6t-0.5 -5q-11 -102 -61 -192l93 -90q12 -12 12 -21q0 -11 -14 -25l-26 -26q-11 -9 -20 -9q-11 0 -23 12l-79 80 q-81 -92 -218 -92q-92 0 -147 54t-55 132z"/>
<glyph glyph-name="quotesingle" horiz-adv-x="163" unicode="&apos;" d="M61 501q-7 0 -13 5.5t-6 13.5v161q0 7 6 13t13 6h57q19 0 19 -18q0 -5 -1 -7l-34 -159q-4 -15 -18 -15h-23z"/>
<glyph glyph-name="parenleft" horiz-adv-x="341" unicode="(" d="M302 -2q14 -4 11 -18l-2 -46q-1 -13 -19 -13q-47 3 -86.5 22.5t-76.5 62t-58 121.5t-21 188q0 88 14.5 157t37.5 111.5t55.5 71t65 40t69.5 13.5h3q14 0 16 -13l2 -46q1 -7 -2.5 -12t-8.5 -6q-82 -18 -118.5 -97t-36.5 -219q0 -141 36.5 -219.5t118.5 -97.5z"/>
<glyph glyph-name="parenright" horiz-adv-x="341" unicode=")" d="M28 -19q-2 15 11 17q82 19 119 98t37 219t-37 219t-119 97q-13 2 -11 18l3 46q0 13 15 13h3q37 -2 69.5 -13.5t65 -40t55.5 -71t37.5 -111.5t14.5 -157q0 -109 -21 -188t-58 -121.5t-76.5 -62t-86.5 -22.5q-18 0 -18 13z"/>
<glyph glyph-name="asterisk" horiz-adv-x="338" unicode="*" d="M158 392q-8 0 -13.5 6t-5.5 13l2 85l-70 -49q-6 -4 -14 -2.5t-12 7.5l-12 19q-3 5 -3 11q0 10 8 16l79 48l-80 49q-8 6 -8 16q0 5 3 10q9 14 13 19q4 6 11.5 7.5t13.5 -2.5l71 -49l-2 85q0 7 5.5 13t13.5 6h22q8 0 13.5 -6t5.5 -13l-2 -85l70 51q15 9 26 -6l12 -19 q3 -6 3 -11q0 -9 -8 -15l-80 -50l80 -50q9 -6 9 -16q0 -6 -3 -10l-13 -19q-9 -16 -26 -6l-70 50l2 -84q0 -7 -5.5 -13t-13.5 -6h-22z"/>
<glyph glyph-name="plus" horiz-adv-x="583" unicode="+" d="M252 153v153h-154q-8 0 -13.5 6t-5.5 13v42q0 7 5.5 13t13.5 6h154v155q0 7 5.5 12.5t13.5 5.5h42q8 0 13.5 -5.5t5.5 -12.5v-155h154q7 0 12.5 -5.5t5.5 -13.5v-42q0 -8 -5.5 -13.5t-12.5 -5.5h-154v-153q0 -7 -5.5 -12.5t-13.5 -5.5h-42q-8 0 -13.5 5.5t-5.5 12.5z"/>
<glyph glyph-name="comma" horiz-adv-x="244" unicode="," d="M45 59q0 29 21 49.5t52 20.5q33 0 58 -26t25 -85q0 -68 -31.5 -120.5t-67.5 -79.5q-6 -6 -13 -6q-5 0 -11 6l-15 15q-12 12 5 25q71 65 71 136q-1 0 -4.5 -1t-9 -2t-11.5 -1q-28 0 -48.5 20.5t-20.5 48.5z"/>
<glyph glyph-name="hyphen" horiz-adv-x="390" unicode="-" d="M87 206q-8 0 -13.5 5t-5.5 13v43q0 19 19 19h216q19 0 19 -19v-43q0 -8 -5.5 -13t-13.5 -5h-216z"/>
<glyph glyph-name="period" horiz-adv-x="229" unicode="." d="M45 59q0 29 20 49.5t49 20.5t49.5 -20.5t20.5 -49.5t-20.5 -49t-49.5 -20q-28 0 -48.5 20t-20.5 49z"/>
<glyph glyph-name="slash" horiz-adv-x="335" unicode="/" d="M34 25l196 662q4 13 18 13h47q19 0 19 -18q0 -5 -1 -7l-195 -662q-4 -13 -18 -13h-48q-19 0 -19 18q0 5 1 7z"/>
<glyph glyph-name="zero" horiz-adv-x="631" unicode="0" d="M316 81q70 0 108 67.5t38 191.5q0 123 -38 190.5t-108 67.5t-108.5 -67.5t-38.5 -190.5q0 -124 38 -191.5t109 -67.5zM316 -10q-118 0 -183 92.5t-65 257.5t65 257.5t183 92.5q117 0 182 -92.5t65 -257.5t-65 -257.5t-182 -92.5z"/>
<glyph glyph-name="one" horiz-adv-x="343" unicode="1" d="M146 19v508l-80 -38q-17 -8 -22 7l-12 35q-1 3 -1 8q0 8 4 12l142 129h49q7 0 12.5 -5.5t5.5 -13.5v-642q0 -8 -5.5 -13.5t-12.5 -5.5h-61q-8 0 -13.5 5.5t-5.5 13.5z"/>
<glyph glyph-name="two" horiz-adv-x="518" unicode="2" d="M36 19v26q12 14 252 299q76 85 76 146q0 44 -31 76.5t-92 32.5q-65 0 -127 -67q-14 -14 -27 0l-34 34q-13 13 -1 26q3 4 9 10.5t25 23.5t40 30t54 23.5t66 10.5q103 0 161 -56.5t58 -139.5q0 -52 -23 -93.5t-73 -101.5q-88 -106 -182 -213h255q8 0 13.5 -6t5.5 -13v-48 q0 -7 -5.5 -13t-13.5 -6h-387q-8 0 -13.5 5.5t-5.5 13.5z"/>
<glyph glyph-name="three" horiz-adv-x="529" unicode="3" d="M42 79q-4 4 -4 12t5 12l39 36q15 12 27 -2q5 -7 21 -20t49 -27.5t66 -14.5q51 0 88 30t37 78q0 49 -41 83t-117 34h-56q-19 0 -19 21v43q0 21 20 21h56q68 0 104.5 30t36.5 77q0 48 -34 78.5t-80 30.5q-65 0 -116 -56q-11 -15 -26 -2l-37 33q-14 12 0 26q3 4 9 9.5t25 21 t39 27t50.5 21t61.5 9.5q89 0 149 -50.5t60 -132.5q0 -53 -32 -96t-71 -61v-3q44 -19 82.5 -63.5t38.5 -102.5q0 -83 -62 -137t-164 -54q-130 0 -205 89z"/>
<glyph glyph-name="four" horiz-adv-x="593" unicode="4" d="M124 232h241v294zM35 149q-8 0 -13.5 5.5t-5.5 13.5v60l370 457q6 6 15 6h37q8 0 13.5 -5.5t5.5 -13.5v-442h81q8 0 13.5 -5t5.5 -13v-42q0 -8 -5.5 -13.5t-13.5 -5.5h-81l1 -132q0 -7 -6 -13t-13 -6h-59q-8 0 -13.5 6t-5.5 13v130h-326z"/>
<glyph glyph-name="five" horiz-adv-x="530" unicode="5" d="M62 73q-10 11 -10 19q0 7 8 15q7 5 18.5 17.5t18.5 17.5q13 12 24 0q7 -8 22 -21t49 -28.5t68 -15.5q59 0 97.5 42.5t38.5 98.5q0 55 -36 91.5t-103 36.5h-153q-14 0 -22.5 11t-8.5 24v280q0 8 5.5 13.5t13.5 5.5h309q8 0 13.5 -5.5t5.5 -13.5v-49q0 -8 -5.5 -13.5 t-13.5 -5.5h-238v-158h101q109 0 169.5 -58t60.5 -158q0 -95 -68 -162t-169 -67q-126 0 -195 83z"/>
<glyph glyph-name="six" horiz-adv-x="541" unicode="6" d="M283 80q55 0 93.5 40.5t38.5 97.5q0 56 -39 96t-94 40q-52 0 -91 -28t-46 -48q-1 -7 -1 -22q0 -69 35 -122.5t104 -53.5zM48 270q0 79 26.5 148.5t63 114t86 82.5t85 56t70.5 31q3 1 8 1q12 0 17 -13l17 -41q2 -6 2 -9q0 -14 -20 -20q-21 -7 -52.5 -24.5t-70.5 -45 t-71 -68t-44 -83.5q59 37 133 37q84 0 146.5 -59t62.5 -158q0 -94 -66 -161.5t-157 -67.5q-115 0 -175.5 79t-60.5 201z"/>
<glyph glyph-name="seven" horiz-adv-x="478" unicode="7" d="M71 19v11l270 562h-296q-7 0 -13 6t-6 13v50q0 7 6 13t13 6h409q8 0 13.5 -6t5.5 -13v-7l-294 -627q-7 -16 -14 -21.5t-25 -5.5h-46q-10 0 -16.5 5.5t-6.5 13.5z"/>
<glyph glyph-name="eight" horiz-adv-x="572" unicode="8" d="M159 180q0 -48 37.5 -78.5t88.5 -30.5q55 0 91.5 30t36.5 79q0 42 -34.5 76.5t-92.5 43.5q-58 -9 -92.5 -43.5t-34.5 -76.5zM286 396q56 8 84 36.5t28 70.5q0 46 -32.5 75.5t-82.5 29.5q-46 0 -77.5 -30t-31.5 -75q0 -90 112 -107zM55 182q0 57 40.5 103t80.5 64v3 q-39 20 -71 61t-32 94q0 81 60.5 132t151.5 51q93 0 153.5 -50.5t60.5 -132.5q0 -52 -32 -93t-71 -61v-4q44 -20 82.5 -64.5t38.5 -102.5q0 -84 -63 -138t-170 -54q-103 0 -166 54.5t-63 137.5z"/>
<glyph glyph-name="nine" horiz-adv-x="540" unicode="9" d="M258 331q53 0 92 28t45 48q1 8 1 24q0 43 -13.5 81t-46 66t-79.5 28q-54 0 -93 -41t-39 -97q0 -57 39 -97t94 -40zM119 37q-2 6 -2 9q0 14 20 20q21 7 53 24.5t70.5 45t71 67.5t44.5 83q-65 -36 -133 -36q-85 0 -147.5 59t-62.5 158q0 94 66 161.5t158 67.5 q114 0 174.5 -79t60.5 -202q0 -67 -17.5 -126t-48.5 -102.5t-64.5 -78t-74.5 -60t-69 -40t-57 -25.5q-3 -1 -8 -1q-12 0 -17 13z"/>
<glyph glyph-name="colon" horiz-adv-x="247" unicode=":" d="M59 54q0 27 19 46t46 19t45.5 -19t18.5 -46q0 -26 -18.5 -45t-45.5 -19t-46 19t-19 45zM124 281q-27 0 -46 19t-19 45q0 27 19 46t46 19t45.5 -19t18.5 -46q0 -26 -18.5 -45t-45.5 -19z"/>
<glyph glyph-name="semicolon" horiz-adv-x="253" unicode=";" d="M61 52q0 26 18.5 44t45.5 18q30 0 52.5 -23t22.5 -76q0 -59 -27.5 -107t-59.5 -76q-8 -6 -13 -6q-6 0 -11 5l-14 15q-9 10 4 23q65 52 65 124q-6 -3 -21 -3q-25 0 -43.5 18t-18.5 44zM124 281q-27 0 -46 19t-19 45q0 27 19 46t46 19t45.5 -19t18.5 -46q0 -26 -18.5 -45 t-45.5 -19z"/>
<glyph glyph-name="less" horiz-adv-x="436" unicode="&lt;" d="M31 210q-10 6 -10 17v5q0 11 10 17l343 212q4 3 11 3q17 0 17 -19v-53q0 -12 -10 -18l-238 -144l238 -139q10 -6 10 -17v-53q0 -19 -17 -19q-7 0 -11 3z"/>
<glyph glyph-name="equal" horiz-adv-x="498" unicode="=" d="M93 133q-8 0 -13.5 5.5t-5.5 13.5v44q0 8 5.5 13.5t13.5 5.5h312q8 0 13.5 -5.5t5.5 -13.5v-44q0 -8 -5.5 -13.5t-13.5 -5.5h-312zM93 344q-8 0 -13.5 5.5t-5.5 13.5v43q0 8 5.5 13.5t13.5 5.5h312q8 0 13.5 -5.5t5.5 -13.5v-43q0 -8 -5.5 -13.5t-13.5 -5.5h-312z"/>
<glyph glyph-name="greater" horiz-adv-x="436" unicode="&gt;" d="M34 21v53q0 12 10 17l237 139l-237 144q-10 5 -10 18v53q0 19 17 19q7 0 11 -3l343 -212q10 -6 10 -17v-5q0 -11 -10 -17l-343 -205q-4 -3 -11 -3q-17 0 -17 19z"/>
<glyph glyph-name="question" horiz-adv-x="454" unicode="?" d="M139 59q0 29 20 49.5t49 20.5t49.5 -20.5t20.5 -49.5t-20.5 -49t-49.5 -20q-28 0 -48.5 20t-20.5 49zM182 272q-8 0 -13.5 5.5t-5.5 13.5v42q0 37 22.5 66.5t50 47t50 44t22.5 56.5q0 32 -24 54.5t-66 22.5q-20 0 -37.5 -4t-31.5 -12.5t-22 -14.5t-19 -16.5t-13 -12.5 q-12 -10 -24 0l-33 32q-5 4 -5 12q0 7 5 14q3 4 8 9.5t22.5 21t37.5 27t53 21t69 9.5q79 0 131.5 -45t52.5 -116q0 -35 -16 -64t-39 -48t-45.5 -35.5t-38.5 -35t-16 -37.5v-37q0 -20 -21 -20h-54z"/>
<glyph glyph-name="at" horiz-adv-x="983" unicode="@" d="M372 199q0 -55 28.5 -89t70.5 -34q46 0 69 26.5t24 70.5v92q-2 17 -27.5 40t-65.5 23q-44 0 -71.5 -34.5t-27.5 -94.5zM37 223q0 215 129 351t339 136q200 0 314.5 -118t114.5 -304q0 -53 -11.5 -103t-36 -95t-68.5 -72.5t-102 -27.5q-91 0 -117 78h-8q-17 -34 -50.5 -56 t-77.5 -22q-77 0 -127.5 59.5t-50.5 151.5q0 94 51 151.5t130 57.5q13 0 25.5 -2t22 -5.5t19.5 -8.5t16 -9t13 -10t10 -9l8 -8l4 -4q1 4 4.5 15.5t5 14t5.5 8t10 7t16 1.5h13q8 0 13.5 -6t5.5 -13v-198q0 -66 17 -90t50 -24q54 0 88.5 60.5t34.5 155.5q0 152 -89.5 248.5 t-255.5 96.5q-173 0 -276 -109.5t-103 -297.5q0 -129 69 -226t184 -145q13 -6 13 -14q0 -5 -3 -11l-18 -45q-5 -11 -14 -11q-1 0 -7 2q-138 54 -224 174t-86 276z"/>
<glyph glyph-name="A" horiz-adv-x="662" unicode="A" d="M206 238h250l-123 274h-5zM20 0q-19 0 -19 17q0 3 2 9l307 673q6 11 17 11h10q11 0 17 -11l305 -673q2 -6 2 -9q0 -17 -19 -17h-63q-16 0 -23 15l-62 137h-327q-10 -23 -30.5 -68.5t-30.5 -68.5q-6 -15 -23 -15h-63z"/>
<glyph glyph-name="B" horiz-adv-x="622" unicode="B" d="M198 92h152q46 0 77 31.5t31 77.5q0 45 -36.5 75t-86.5 30h-137v-214zM199 396h135q47 0 75 30.5t28 76.5t-28 74.5t-75 28.5h-135v-210zM97 19v662q0 8 5.5 13.5t13.5 5.5h224q90 0 149 -53t59 -132q0 -53 -31 -94t-73 -65q51 -21 88 -61t37 -102q0 -84 -61.5 -138.5 t-156.5 -54.5h-235q-8 0 -13.5 5.5t-5.5 13.5z"/>
<glyph glyph-name="C" horiz-adv-x="696" unicode="C" d="M46 349q0 150 105.5 255.5t255.5 105.5q135 0 242 -93q7 -6 7 -14t-6 -14l-44 -45q-11 -14 -25 0q-77 67 -173 67q-106 0 -178.5 -77t-72.5 -183t73 -182.5t179 -76.5q86 0 172 66q13 10 24 1l46 -45q5 -4 5 -12q0 -9 -6 -15q-100 -97 -243 -97q-150 0 -255.5 104.5 t-105.5 254.5z"/>
<glyph glyph-name="D" horiz-adv-x="743" unicode="D" d="M199 95h132q110 0 182 72.5t72 183.5q0 110 -72 182t-182 72h-132v-510zM97 19v662q0 8 5.5 13.5t12.5 5.5h230q145 0 248 -102.5t103 -246.5q0 -145 -103 -248t-248 -103h-230q-7 0 -12.5 5.5t-5.5 13.5z"/>
<glyph glyph-name="E" horiz-adv-x="589" unicode="E" d="M97 19v662q0 8 5.5 13.5t13.5 5.5h400q8 0 13.5 -5.5t5.5 -13.5v-56q0 -8 -5.5 -13.5t-13.5 -5.5h-316v-204h267q7 0 13 -6t6 -13v-56q0 -8 -5.5 -13.5t-13.5 -5.5h-267v-215h316q8 0 13.5 -5.5t5.5 -13.5v-55q0 -8 -5.5 -13.5t-13.5 -5.5h-400q-8 0 -13.5 5.5t-5.5 13.5 z"/>
<glyph glyph-name="F" horiz-adv-x="566" unicode="F" d="M97 19v662q0 8 5.5 13.5t13.5 5.5h400q8 0 13.5 -5.5t5.5 -13.5v-56q0 -8 -5.5 -13.5t-13.5 -5.5h-316v-231h267q7 0 13 -5.5t6 -13.5v-55q0 -7 -6 -13t-13 -6h-267v-263q0 -7 -6 -13t-13 -6h-65q-8 0 -13.5 5.5t-5.5 13.5z"/>
<glyph glyph-name="G" horiz-adv-x="722" unicode="G" d="M46 349q0 150 105.5 255.5t254.5 105.5q134 0 243 -93q7 -7 7 -15q0 -7 -6 -13q-7 -8 -22 -23.5t-23 -23.5q-11 -12 -26 1q-78 68 -170 68q-105 0 -178 -77t-73 -183t73 -182.5t178 -76.5q17 0 33.5 1.5t30.5 4.5t26.5 6t23 7t17 6.5t12.5 5.5t7 3v112h-98q-8 0 -13.5 5 t-5.5 13v58q0 19 19 19h182q7 0 12.5 -5.5t5.5 -13.5q0 -40 0.5 -121t0.5 -121q0 -10 -8 -16q-12 -7 -33 -18t-86 -29.5t-129 -18.5q-150 0 -255 104.5t-105 254.5z"/>
<glyph glyph-name="H" horiz-adv-x="768" unicode="H" d="M97 19v662q0 7 5.5 13t13.5 6h66q8 0 13.5 -5.5t5.5 -13.5v-279h366v279q0 8 5.5 13.5t13.5 5.5h66q8 0 13.5 -6t5.5 -13v-662q0 -7 -5.5 -13t-13.5 -6h-66q-8 0 -13.5 5.5t-5.5 13.5v289h-366v-289q0 -8 -5.5 -13.5t-13.5 -5.5h-66q-8 0 -13.5 6t-5.5 13z"/>
<glyph glyph-name="I" horiz-adv-x="298" unicode="I" d="M97 19v662q0 7 5.5 13t13.5 6h66q8 0 13.5 -6t5.5 -13v-662q0 -7 -5.5 -13t-13.5 -6h-66q-8 0 -13.5 6t-5.5 13z"/>
<glyph glyph-name="J" horiz-adv-x="412" unicode="J" d="M-17 63q-3 5 -3 11q0 7 5 14l36 39q8 7 16 7q9 0 16 -9q38 -43 82 -43q41 0 71 32t30 94v473q0 8 5.5 13.5t13.5 5.5h66q8 0 13.5 -5.5t5.5 -13.5v-472q0 -102 -57.5 -160.5t-147.5 -58.5q-93 0 -152 73z"/>
<glyph glyph-name="K" horiz-adv-x="636" unicode="K" d="M97 24v652q0 10 7 17t17 7h58q10 0 17 -7t7 -17v-277l282 291q8 10 19 10h75q9 0 15 -6t6 -14q0 -9 -7 -16l-289 -294l306 -337q4 -6 4 -11q0 -8 -6 -15t-16 -7h-80q-13 0 -18 7l-291 328v-311q0 -10 -7 -17t-17 -7h-58q-10 0 -17 7t-7 17z"/>
<glyph glyph-name="L" horiz-adv-x="499" unicode="L" d="M97 19v662q0 8 5.5 13.5t13.5 5.5h66q8 0 13.5 -6t5.5 -13v-588h271q8 0 13.5 -5.5t5.5 -13.5v-55q0 -8 -5.5 -13.5t-13.5 -5.5h-356q-8 0 -13.5 5.5t-5.5 13.5z"/>
<glyph glyph-name="M" horiz-adv-x="869" unicode="M" d="M49 23l124 672q4 15 18 15h16q13 0 17 -11l209 -511h4l208 511q4 11 17 11h16q14 0 18 -15l123 -672q0 -1 0.5 -3t0.5 -3q0 -17 -19 -17h-65q-15 0 -19 14l-74 447h-3l-180 -460q-4 -11 -17 -11h-18q-13 0 -17 11l-181 460h-4l-72 -447q-1 -5 -6.5 -9.5t-11.5 -4.5h-65 q-22 0 -19 23z"/>
<glyph glyph-name="N" horiz-adv-x="775" unicode="N" d="M97 19v673q0 7 5.5 12.5t13.5 5.5h25l434 -502h1v473q0 8 5.5 13.5t13.5 5.5h64q7 0 13 -6t6 -13v-673q0 -7 -5.5 -12.5t-13.5 -5.5h-26l-434 516h-1v-487q0 -8 -5.5 -13.5t-13.5 -5.5h-63q-8 0 -13.5 6t-5.5 13z"/>
<glyph glyph-name="O" horiz-adv-x="811" unicode="O" d="M146 349q0 -107 76 -183t183 -76t183.5 76t76.5 183t-76.5 184t-183.5 77q-106 0 -182.5 -77t-76.5 -184zM46 349q0 150 104.5 255.5t254.5 105.5t255 -105.5t105 -255.5t-105 -254.5t-255 -104.5t-254.5 104.5t-104.5 254.5z"/>
<glyph glyph-name="P" horiz-adv-x="594" unicode="P" d="M200 352h138q52 0 89.5 37t37.5 91q0 51 -37.5 85.5t-89.5 34.5h-138v-248zM97 19v662q0 8 5.5 13.5t13.5 5.5h228q92 0 158 -65t66 -156q0 -93 -65.5 -159t-157.5 -66h-145v-235q0 -7 -6 -13t-13 -6h-65q-8 0 -13.5 5.5t-5.5 13.5z"/>
<glyph glyph-name="Q" horiz-adv-x="812" unicode="Q" d="M146 349q0 -107 76 -183t183 -76t183.5 76t76.5 183t-76.5 184t-183.5 77q-106 0 -182.5 -77t-76.5 -184zM46 349q0 150 104.5 255.5t254.5 105.5t255 -105.5t105 -255.5q0 -105 -56 -192t-148 -133l121 -192q4 -8 4 -12q0 -18 -20 -18h-78q-10 0 -16 10l-108 182 q-25 -4 -59 -4q-150 0 -254.5 104.5t-104.5 254.5z"/>
<glyph glyph-name="R" horiz-adv-x="665" unicode="R" d="M202 360h178q49 0 85.5 36.5t36.5 87.5q0 48 -36.5 83.5t-85.5 35.5h-178v-243zM97 19v662q0 8 5.5 13.5t13.5 5.5h272q90 0 154 -62.5t64 -151.5q0 -68 -40.5 -122t-107.5 -81l137 -254q3 -5 3 -10q0 -19 -20 -19h-78q-12 0 -16 9l-133 265h-151v-255q0 -7 -6 -13 t-13 -6h-65q-8 0 -13.5 5.5t-5.5 13.5z"/>
<glyph glyph-name="S" horiz-adv-x="537" unicode="S" d="M58 69q-11 9 -11 17q0 5 5 15q5 6 13 20t13 21q10 13 21 13q6 0 13 -5q83 -69 160 -69q51 0 82 27t31 66q0 43 -36.5 75t-114.5 64q-88 37 -135 84.5t-47 127.5q0 31 12.5 62t37 59.5t68.5 46t101 17.5q101 0 185 -59q11 -7 11 -20q0 -6 -5 -14q-4 -6 -12.5 -19 t-12.5 -19q-8 -14 -22 -14q-6 0 -13 4q-88 50 -135 50q-57 0 -85 -28t-28 -62q0 -41 31 -70t96 -56q104 -42 159.5 -91.5t55.5 -132.5q0 -79 -63.5 -134t-159.5 -55q-55 0 -106.5 18t-73 33t-35.5 28z"/>
<glyph glyph-name="T" d="M193 19v587h-163q-8 0 -13.5 5.5t-5.5 13.5v56q0 8 5.5 13.5t13.5 5.5h430q8 0 13.5 -5.5t5.5 -13.5v-56q0 -8 -5.5 -13.5t-13.5 -5.5h-163v-587q0 -7 -5.5 -13t-13.5 -6h-66q-8 0 -13.5 6t-5.5 13z" unicode="T"/>
<glyph glyph-name="U" horiz-adv-x="720" unicode="U" d="M88 261v420q0 7 6 13t13 6h67q8 0 13.5 -5.5t5.5 -13.5v-413q0 -77 45.5 -127.5t120.5 -50.5q76 0 122 50t46 126v415q0 8 5.5 13.5t13.5 5.5h67q7 0 13 -6t6 -13v-420q0 -115 -77.5 -193t-195.5 -78q-117 0 -194 78t-77 193z"/>
<glyph glyph-name="V" horiz-adv-x="664" unicode="V" d="M309 1l-305 673q-2 6 -2 9q0 17 19 17h71q13 0 17 -11l220 -495h6l220 495q4 11 17 11h71q19 0 19 -17q0 -3 -2 -9l-307 -673q-5 -11 -17 -11h-10q-12 0 -17 11z"/>
<glyph glyph-name="W" horiz-adv-x="900" unicode="W" d="M222 4l-189 672q-1 2 -1 7q0 17 19 17h67q14 0 18 -14l121 -459h4l163 472q4 11 17 11h18q13 0 17 -11l165 -472h4l119 459q4 14 18 14h67q19 0 19 -17q0 -5 -1 -7l-189 -672q-4 -14 -18 -14h-16q-13 0 -17 11l-176 497h-5l-173 -497q-4 -11 -17 -11h-16q-14 0 -18 14z "/>
<glyph glyph-name="X" horiz-adv-x="608" unicode="X" d="M35 28l206 331l-198 313q-3 4 -3 10q0 7 5.5 12.5t14.5 5.5h85q12 0 17 -9l141 -239h1l143 239q5 9 16 9h85q9 0 14.5 -5.5t5.5 -12.5q0 -6 -3 -10l-198 -313l205 -331q3 -6 3 -11q0 -17 -20 -17h-77q-12 0 -17 9l-157 256h-2l-155 -256q-7 -9 -17 -9h-77q-9 0 -15 5.5 t-6 12.5q0 6 3 10z"/>
<glyph glyph-name="Y" horiz-adv-x="574" unicode="Y" d="M234 19v318l-234 334q-3 5 -3 11q0 18 19 18h74q9 0 16 -9l181 -255l181 255q7 9 16 9h75q19 0 19 -18q0 -6 -3 -11l-237 -333v-319q0 -7 -6 -13t-13 -6h-66q-8 0 -13.5 5.5t-5.5 13.5z"/>
<glyph glyph-name="Z" horiz-adv-x="535" unicode="Z" d="M27 19v18l330 563v4h-282q-7 0 -13 6t-6 13v58q0 7 6 13t13 6h411q8 0 13.5 -6t5.5 -13v-13l-331 -572v-1h292q8 0 13.5 -5.5t5.5 -13.5v-57q0 -8 -5.5 -13.5t-13.5 -5.5h-420q-8 0 -13.5 6t-5.5 13z"/>
<glyph glyph-name="bracketleft" horiz-adv-x="337" unicode="[" d="M163 -219h134q8 0 13.5 -5.5t5.5 -12.5v-44q0 -7 -6 -13t-13 -6h-206q-7 0 -13 6t-6 13v962q0 7 6 13t13 6h206q7 0 13 -6t6 -13v-44q0 -8 -5.5 -13.5t-13.5 -5.5h-134v-837z"/>
<glyph glyph-name="backslash" horiz-adv-x="342" unicode="\" d="M217 13l-195 662q-1 2 -1 7q0 18 19 18h54q14 0 18 -13l196 -662q1 -2 1 -7q0 -18 -19 -18h-55q-14 0 -18 13z"/>
<glyph glyph-name="bracketright" horiz-adv-x="337" unicode="]" d="M40 -219h133v837h-133q-8 0 -13.5 5.5t-5.5 13.5v44q0 7 5.5 13t13.5 6h206q8 0 13.5 -6t5.5 -13v-962q0 -7 -5.5 -13t-13.5 -6h-206q-8 0 -13.5 6t-5.5 13v44q0 7 5.5 12.5t13.5 5.5z"/>
<glyph glyph-name="asciicircum" horiz-adv-x="524" unicode="^" d="M56 391q-19 0 -19 17q0 6 3 11l205 285q6 10 17 10h5q11 0 17 -10l199 -285q3 -4 3 -11q0 -17 -19 -17h-51q-10 0 -17 10l-136 190l-138 -190q-6 -10 -18 -10h-51z"/>
<glyph glyph-name="underscore" horiz-adv-x="399" unicode="_" d="M21 -29q0 19 19 19h319q19 0 19 -19v-28q0 -8 -5.5 -13t-13.5 -5h-319q-8 0 -13.5 5t-5.5 13v28z"/>
<glyph glyph-name="grave" horiz-adv-x="302" unicode="`" d="M235 543l-168 72q-8 5 -8 14q0 7 2 10l23 44q4 6 13 6t13 -3l157 -91q8 -4 8 -12q0 -3 -2 -7l-14 -29q-3 -8 -11 -8q-6 0 -13 4z"/>
<glyph glyph-name="a" horiz-adv-x="423" unicode="a" d="M123 125q0 -28 17 -46t44 -18q28 0 54 16t36 34v64q-24 16 -70 16q-36 0 -58.5 -18t-22.5 -48zM36 124q0 56 42.5 92.5t117.5 36.5q19 0 38.5 -3t29.5 -6l11 -3v7q0 45 -13 63t-49 18q-49 0 -112 -18q-17 -4 -22 16l-8 37q-4 17 13 23q54 23 138 23q46 0 75.5 -13 t43 -39.5t17.5 -54.5t4 -71v-213q0 -7 -6 -13t-13 -6h-28q-11 0 -17 14l-10 27q-53 -51 -123 -51q-57 0 -93 36.5t-36 97.5z"/>
<glyph glyph-name="b" d="M160 136q4 -10 13 -21.5t31.5 -25t50.5 -13.5q47 0 76.5 36t29.5 88t-32 87.5t-82 35.5q-23 0 -45 -5.5t-32 -11.5l-10 -6v-164zM65 19v662q0 7 5.5 13t13.5 6h58q8 0 13.5 -6t5.5 -13v-293l11 4q12 5 22 8.5t27.5 6.5t35.5 3q83 0 140 -61t57 -149q0 -87 -54 -148.5 t-133 -61.5q-35 0 -67 14t-46 28l-14 14l-8 -29q-5 -17 -18 -17h-30q-8 0 -13.5 6t-5.5 13z" unicode="b"/>
<glyph glyph-name="c" horiz-adv-x="434" unicode="c" d="M35 199q0 87 63 149t147 62q88 0 145 -71q4 -5 4 -12q0 -10 -8 -16l-33 -30q-5 -5 -11 -5q-7 0 -16 9q-34 38 -80 38q-49 0 -82.5 -36t-33.5 -87q0 -52 33 -88t82 -36q11 0 20 1t17.5 5t13.5 5.5t13 8t10 8t11 10.5l8 8q13 13 27 2l27 -22q11 -8 11 -18q0 -4 -4 -10 q-53 -84 -155 -84q-85 0 -147 60t-62 149z"/>
<glyph glyph-name="d" d="M129 200q0 -52 29.5 -88t76.5 -36q28 0 50.5 13.5t31.5 25t13 21.5v163q-35 24 -87 24q-50 0 -82 -35.5t-32 -87.5zM36 200q0 88 57 149t140 61q18 0 35.5 -3t27.5 -6.5t22 -8.5l11 -4v293q0 7 5.5 13t13.5 6h58q8 0 13.5 -6t5.5 -13v-662q0 -7 -5.5 -13t-13.5 -6h-30 q-13 0 -18 17l-8 29q-5 -6 -15.5 -15.5t-43.5 -25t-68 -15.5q-79 0 -133 61.5t-54 148.5z" unicode="d"/>
<glyph glyph-name="e" horiz-adv-x="451" unicode="e" d="M133 244h194q-2 36 -29 62.5t-63 26.5q-40 0 -68.5 -25.5t-33.5 -63.5zM36 200q0 87 56 148.5t144 61.5q78 0 131 -52.5t53 -132.5q0 -13 -2 -27q-2 -17 -18 -17h-272q2 -42 35 -74.5t80 -32.5q44 0 89 29q19 11 27 1l28 -38q12 -14 -2 -26q-58 -50 -148 -50 q-89 0 -145 61t-56 149z"/>
<glyph glyph-name="f" horiz-adv-x="335" unicode="f" d="M96 19v298h-47q-8 0 -13.5 5.5t-5.5 13.5v45q0 19 19 19h47v124q0 90 47.5 138t122.5 48q69 0 114 -40q6 -6 6 -14q0 -6 -2 -9l-25 -45q-8 -15 -25 -3q-35 24 -66 24q-34 0 -54.5 -25t-20.5 -74v-124h108q19 0 19 -19v-45q0 -8 -5.5 -13.5t-13.5 -5.5h-108v-298 q0 -7 -5.5 -13t-13.5 -6h-59q-7 0 -13 6t-6 13z"/>
<glyph glyph-name="g" horiz-adv-x="460" unicode="g" d="M133 -157q0 -31 29 -51t75 -20q47 0 80.5 22t33.5 57q0 11 -4.5 22.5t-22.5 23t-48 11.5q-59 0 -88 -2q-55 -18 -55 -63zM239 141q37 0 60.5 25.5t23.5 66.5t-23.5 66.5t-60.5 25.5q-38 0 -63 -26t-25 -66t25 -66t63 -26zM25 24q0 22 7.5 41.5t18 32t20.5 22t17 14.5l8 4 q-31 37 -31 97q0 72 48.5 123.5t123.5 51.5h175q19 0 19 -19v-25q0 -15 -11 -17l-55 -15q5 -4 12 -11t19 -35t12 -61q0 -66 -47.5 -114.5t-122.5 -48.5q-22 0 -42 4t-31.5 8t-13.5 4q-9 0 -25 -14t-16 -35q0 -18 13 -29.5t35 -11.5h136q68 0 112.5 -35.5t44.5 -98.5 q0 -69 -58.5 -117.5t-154.5 -48.5q-98 0 -148 41t-50 96q0 59 59 94v3q-25 7 -49.5 31.5t-24.5 68.5z"/>
<glyph glyph-name="h" horiz-adv-x="508" unicode="h" d="M65 19v662q0 7 5.5 13t13.5 6h58q8 0 13.5 -6t5.5 -13v-314q61 43 120 43q82 0 124.5 -52.5t42.5 -137.5v-201q0 -7 -6 -13t-13 -6h-56q-8 0 -13.5 5.5t-5.5 13.5v203q0 48 -23 74.5t-62 26.5q-40 0 -71.5 -22.5t-36.5 -40.5v-241q0 -19 -20 -19h-57q-8 0 -13.5 6 t-5.5 13z"/>
<glyph glyph-name="i" horiz-adv-x="225" unicode="i" d="M65 19v362q0 7 5.5 13t13.5 6h57q7 0 13 -6t6 -13v-362q0 -7 -6 -13t-13 -6h-57q-8 0 -13.5 6t-5.5 13zM111 563q-24 0 -40.5 17t-16.5 41q0 25 16.5 42t40.5 17q25 0 42 -17t17 -42q0 -24 -17 -41t-42 -17z"/>
<glyph glyph-name="j" horiz-adv-x="226" unicode="j" d="M65 -124v505q0 8 5.5 13.5t13.5 5.5h58q8 0 13.5 -5.5t5.5 -13.5v-505q0 -90 -47.5 -138t-122.5 -48q-72 0 -114 40q-6 4 -6 14q0 6 2 9l25 45q8 14 25 3q36 -25 66 -25q35 0 55.5 25.5t20.5 74.5zM112 563q-24 0 -40.5 17t-16.5 41q0 25 16.5 42t40.5 17q25 0 42 -17 t17 -42q0 -24 -17 -41t-42 -17z"/>
<glyph glyph-name="k" horiz-adv-x="467" unicode="k" d="M65 19v662q0 7 5.5 13t13.5 6h58q8 0 13.5 -6t5.5 -13v-433l156 140q14 12 25 12h70q16 0 16 -15q0 -7 -5 -12l-166 -151l196 -196q5 -5 5 -12q0 -14 -16 -14h-82q-12 0 -18 8l-181 186v-175q0 -7 -5.5 -13t-13.5 -6h-58q-8 0 -13.5 6t-5.5 13z"/>
<glyph glyph-name="l" horiz-adv-x="225" unicode="l" d="M65 19v662q0 7 5.5 13t13.5 6h57q7 0 13 -6t6 -13v-662q0 -7 -6 -13t-13 -6h-57q-8 0 -13.5 6t-5.5 13z"/>
<glyph glyph-name="m" horiz-adv-x="771" unicode="m" d="M65 19v362q0 7 5.5 13t13.5 6h28q12 0 17 -12l11 -34q56 56 132 56q84 0 129 -64q11 11 26 22.5t50 26.5t69 15q86 0 125.5 -52.5t39.5 -137.5v-201q0 -8 -5.5 -13.5t-13.5 -5.5h-56q-8 0 -13.5 5.5t-5.5 13.5v205q0 48 -21.5 73.5t-61.5 25.5q-14 0 -28 -3.5t-24 -8 t-20 -11t-15 -11t-11 -9.5l-5 -6q3 -14 3 -48v-207q0 -7 -6 -13t-13 -6h-53q-8 0 -13.5 5.5t-5.5 13.5v205q0 99 -85 99q-39 0 -66 -21.5t-33 -38.5v-244q0 -7 -5.5 -13t-13.5 -6h-56q-8 0 -13.5 6t-5.5 13z"/>
<glyph glyph-name="n" horiz-adv-x="508" unicode="n" d="M65 19v362q0 7 5.5 13t13.5 6h29q13 0 16 -12l12 -34q7 8 21.5 19t48.5 24t70 13q86 0 126.5 -52.5t40.5 -137.5v-201q0 -7 -6 -13t-13 -6h-57q-8 0 -13.5 5.5t-5.5 13.5v205q0 48 -22 73.5t-61 25.5q-41 0 -73 -22t-38 -38v-244q0 -19 -23 -19h-52q-8 0 -13.5 6t-5.5 13 z"/>
<glyph glyph-name="o" horiz-adv-x="474" unicode="o" d="M124 201q0 -52 33 -88.5t80 -36.5t80 36.5t33 88.5q0 50 -33 86t-80 36t-80 -36t-33 -86zM35 201q0 85 59 147t143 62t143 -62t59 -147q0 -87 -59 -149t-143 -62t-143 62t-59 149z"/>
<glyph glyph-name="p" d="M159 105q35 -29 88 -29q49 0 81.5 35.5t32.5 87.5t-30 88t-80 36q-38 0 -62.5 -21t-29.5 -37v-160zM161 17v-298q0 -19 -21 -19h-56q-8 0 -13.5 6t-5.5 13v662q0 7 5.5 13t13.5 6h30q11 0 17 -13l10 -26q49 49 122 49q81 0 136 -62t55 -149q0 -88 -56.5 -148.5 t-138.5 -60.5q-51 0 -98 27z" unicode="p"/>
<glyph glyph-name="q" d="M128 199q0 -52 32.5 -87.5t81.5 -35.5q24 0 46 7t32 14l10 7v157q-6 17 -30.5 39.5t-61.5 22.5q-50 0 -80 -36t-30 -88zM36 199q0 87 55 149t136 62q73 0 122 -49l10 25q5 14 19 14h28q8 0 13.5 -6t5.5 -13v-662q0 -7 -5.5 -13t-13.5 -6h-57q-20 0 -20 19v299l-7 -4 q-8 -4 -16 -7.5t-19.5 -7.5t-26 -6.5t-29.5 -2.5q-82 0 -138.5 60.5t-56.5 148.5z" unicode="q"/>
<glyph glyph-name="r" horiz-adv-x="336" unicode="r" d="M65 19v362q0 7 5.5 13t13.5 6h29q13 0 17 -14l11 -34q41 58 117 58q29 0 52 -7.5t23 -21.5q0 -2 -2 -8l-24 -49q-7 -16 -24 -9q-14 7 -34 7q-26 0 -48 -12t-30 -21t-12 -16v-254q0 -19 -27 -19h-48q-8 0 -13.5 6t-5.5 13z"/>
<glyph glyph-name="s" horiz-adv-x="358" unicode="s" d="M47 31q-12 8 -6 21l21 39q8 15 25 5q44 -26 93 -26t49 34q0 19 -16.5 32t-60.5 33q-114 50 -114 131q0 43 35 76.5t102 33.5q70 0 118 -31q11 -7 11 -19q0 -6 -3 -10l-18 -34q-9 -16 -26 -8q-44 21 -82 21q-45 0 -45 -30q0 -18 14.5 -28.5t49.5 -25.5q67 -29 100 -58 t33 -80q0 -48 -41.5 -82.5t-106.5 -34.5q-81 0 -132 41z"/>
<glyph glyph-name="t" horiz-adv-x="346" unicode="t" d="M91 109v208h-42q-8 0 -13.5 5.5t-5.5 13.5v45q0 19 19 19h42v111q0 7 5.5 13t13.5 6l57 1q7 0 12.5 -5.5t5.5 -13.5v-112h102q19 0 19 -19v-45q0 -8 -5.5 -13.5t-13.5 -5.5h-102v-198q0 -24 8 -32t24 -8q25 0 61 18q16 7 23 -9l18 -44q2 -6 2 -9q0 -9 -11 -15 q-13 -8 -49.5 -19t-67.5 -11q-56 0 -79 30.5t-23 88.5z"/>
<glyph glyph-name="u" horiz-adv-x="493" unicode="u" d="M59 179v202q0 7 5.5 13t13.5 6h57q7 0 13 -6t6 -13v-205q0 -48 21.5 -74t60.5 -26t67.5 24t31.5 42v239q0 19 22 19h52q7 0 13 -6t6 -13v-362q0 -7 -6 -13t-13 -6h-28q-13 0 -18 16l-10 29l-5 -5q-5 -4 -8.5 -7t-11 -9t-14.5 -10t-18 -9t-21.5 -8t-24.5 -5t-29 -2 q-85 0 -123.5 52t-38.5 137z"/>
<glyph glyph-name="v" horiz-adv-x="415" unicode="v" d="M188 0l-177 377q-2 3 -2 9q0 14 17 14h59q13 0 18 -11l104 -236h1l108 236q5 11 27 11h46q17 0 17 -14q0 -6 -2 -9l-177 -377q-4 -10 -17 -10h-5q-13 0 -17 10z"/>
<glyph glyph-name="w" horiz-adv-x="613" unicode="w" d="M146 0l-119 377q-2 3 -2 9q0 14 16 14h54q15 0 18 -12l67 -221h1l107 233q4 10 17 10h6q13 0 17 -10l106 -234h1l66 222q5 12 31 12h39q17 0 17 -14q0 -3 -2 -9l-117 -377q-3 -10 -18 -10h-4q-13 0 -17 9l-123 267h-1l-122 -267q-4 -9 -16 -9h-5q-14 0 -17 10z"/>
<glyph glyph-name="x" horiz-adv-x="430" unicode="x" d="M29 26l130 178l-126 169q-5 7 -5 12q0 15 17 15h65q16 0 24 -11l80 -115h1l82 115q8 11 23 11h66q17 0 17 -13q0 -6 -5 -13l-126 -169l127 -179q4 -5 4 -13q0 -13 -16 -13h-63q-12 0 -21 12l-88 124h-1l-90 -128q-6 -8 -16 -8h-67q-17 0 -17 13q0 6 5 13z"/>
<glyph glyph-name="y" horiz-adv-x="463" unicode="y" d="M185 14l-174 360q-2 6 -2 9q0 17 19 17h66q12 0 17 -11l124 -266h1l120 266q5 11 21 11h57q9 0 14.5 -5t5.5 -12q0 -5 -3 -9l-306 -662q-6 -12 -17 -12h-60q-19 0 -19 17q0 7 2 10z"/>
<glyph glyph-name="z" horiz-adv-x="364" unicode="z" d="M32 19v10l170 285v1h-142q-7 0 -12.5 5.5t-5.5 13.5v47q0 8 5 13.5t13 5.5h258q8 0 14 -5.5t6 -12.5q0 -4 -3 -9l-169 -288v-1h132q19 0 19 -19v-46q0 -8 -5.5 -13.5t-13.5 -5.5h-247q-7 0 -13 6t-6 13z"/>
<glyph glyph-name="braceleft" horiz-adv-x="394" unicode="{" d="M105 -54v142q0 30 -23 49.5t-46 23.5q-6 1 -10.5 6.5t-4.5 11.5v40q0 12 14 16q18 2 44 23t26 50v144q0 71 23.5 124t62 80t78 39.5t82.5 13.5h2q18 0 18 -17l2 -41q1 -6 -3.5 -11.5t-9.5 -6.5q-69 -12 -114 -59t-45 -122v-119q0 -32 -9.5 -58t-24.5 -41t-25.5 -22.5 t-21.5 -11.5v-3q81 -35 81 -131v-120q0 -75 44.5 -121.5t114.5 -58.5q15 -2 13 -18l-2 -41q0 -7 -5.5 -12t-12.5 -5h-2q-43 1 -82.5 13.5t-78.5 39.5t-62 79.5t-23 123.5z"/>
<glyph glyph-name="bar" horiz-adv-x="189" unicode="|" d="M71 -282v1023q0 8 5.5 13.5t13.5 5.5h10q8 0 13 -5.5t5 -13.5v-1023q0 -7 -5.5 -12.5t-13.5 -5.5h-9q-8 0 -13.5 5.5t-5.5 12.5z"/>
<glyph glyph-name="braceright" horiz-adv-x="394" unicode="}" d="M193 -54v120q0 96 81 131v3q-11 4 -21.5 11.5t-25.5 22.5t-24.5 41t-9.5 58v119q0 75 -45 122t-114 59q-5 1 -9.5 6.5t-3.5 11.5l2 41q0 17 18 17h2q43 -1 82.5 -13.5t78 -39.5t62 -80t23.5 -124v-144q0 -29 26 -50t44 -23q14 -4 14 -16v-40q0 -6 -4.5 -11.5t-10.5 -6.5 q-23 -4 -46 -23.5t-23 -49.5v-142q0 -71 -23 -123.5t-62 -79.5t-78.5 -39.5t-82.5 -13.5h-2q-7 0 -12.5 5t-5.5 12l-2 41q-2 16 13 18q70 12 114.5 58.5t44.5 121.5z"/>
<glyph glyph-name="asciitilde" horiz-adv-x="544" unicode="~" d="M79 212q-6 6 -17 15t-17 14q-6 8 -6 14t4 10q3 4 7.5 10.5t19.5 23t31 29t39 23t45 10.5q13 0 26.5 -3.5t20.5 -5.5t22.5 -11.5t16.5 -10t18 -12.5q47 -33 73 -33q40 0 79 57q5 8 15 8q8 0 13 -5l32 -29q6 -4 6 -13q0 -7 -4 -11q-3 -4 -7.5 -10.5t-19.5 -22.5 t-30.5 -28.5t-38.5 -23t-45 -10.5q-21 0 -44 8.5t-30.5 13.5t-32.5 21q-2 2 -8 6t-9.5 6t-9 6t-10 6t-10.5 4t-11.5 3t-11.5 1q-42 0 -79 -57q-5 -8 -15 -8q-7 0 -12 5z"/>
<glyph glyph-name="uni00A0" horiz-adv-x="220" unicode=" "/>
<glyph glyph-name="exclamdown" horiz-adv-x="229" unicode="¡" d="M84 112q1 6 6.5 11t12.5 5h22q7 0 12.5 -5t6.5 -11l29 -279v-114q0 -7 -5.5 -13t-13.5 -6h-80q-8 0 -13.5 6t-5.5 13v112zM115 271q-29 0 -49.5 20.5t-20.5 49.5t20.5 49t49.5 20q28 0 48.5 -20.5t20.5 -48.5q0 -29 -20.5 -49.5t-48.5 -20.5z"/>
<glyph glyph-name="cent" horiz-adv-x="419" unicode="¢" d="M176 92l61 229h-3q-49 0 -82.5 -35t-33.5 -86q0 -73 58 -108zM152 6q-58 23 -93.5 75t-35.5 118q0 87 63 149t147 62q10 0 28 -2l11 41q4 14 18 14q3 0 5 -1l10 -3q18 -4 13 -23l-11 -41q38 -17 71 -56q4 -5 4 -12q0 -10 -8 -16l-33 -30q-5 -5 -11 -5q-7 0 -16 9 q-12 13 -31 23l-62 -231h12q24 0 44 9t25.5 14t23.5 22q13 13 27 2l27 -22q11 -8 11 -18q0 -4 -4 -10q-53 -84 -155 -84q-18 0 -34 3l-26 -97q-3 -13 -19 -13h-4l-9 3q-18 4 -14 22z"/>
<glyph glyph-name="sterling" horiz-adv-x="494" unicode="£" d="M74 19v18q45 83 45 177q0 43 -7 78h-44q-7 0 -12.5 5.5t-5.5 13.5v10q0 8 5.5 13.5t12.5 5.5h32q-1 5 -10.5 38.5t-15 63t-5.5 59.5q0 95 60 152t150 57q88 0 169 -71q7 -5 7 -14q0 -5 -5 -12l-35 -43q-5 -8 -14 -8q-8 0 -14 6t-16.5 14.5t-39.5 23t-53 14.5 q-48 0 -80 -32.5t-32 -84.5q0 -38 18 -101l18 -62h140q8 0 13.5 -5.5t5.5 -13.5v-11q0 -8 -5.5 -13t-13.5 -5h-130q4 -23 4 -63q0 -83 -22 -142h223q8 0 13 -5.5t5 -13.5v-49q0 -8 -5.5 -13.5t-12.5 -5.5h-324q-7 0 -13 6t-6 13z"/>
<glyph glyph-name="currency" horiz-adv-x="464" unicode="¤" d="M233 269q26 0 44.5 18.5t18.5 44.5t-18.5 44.5t-44.5 18.5t-44.5 -18.5t-18.5 -44.5t18.5 -44.5t44.5 -18.5zM98 168l-30 30q-5 5 -5 14q0 8 5 13l45 44q-16 32 -16 63q0 30 16 62l-44 45q-5 5 -5 13q0 9 5 14l30 29q5 5 13 5q9 0 14 -5l44 -44q28 16 63 16q34 0 62 -16 l44 45q5 5 12 5q9 0 15 -6l29 -30q6 -6 6 -14q0 -7 -5 -12l-44 -44q16 -32 16 -63q0 -32 -16 -64l44 -44q5 -5 5 -13t-5 -13l-30 -30q-6 -6 -14 -6q-7 0 -12 5l-45 45q-30 -16 -62 -16q-33 0 -64 17l-44 -45q-5 -5 -13 -5q-9 0 -14 5z"/>
<glyph glyph-name="yen" horiz-adv-x="624" unicode="¥" d="M138 121q-7 0 -12.5 5.5t-5.5 13.5v10q0 8 5.5 13.5t12.5 5.5h121v72h-121q-7 0 -12.5 5.5t-5.5 13.5v10q0 8 5.5 13.5t12.5 5.5h121v48l-235 334q-3 5 -3 11q0 18 19 18h75q9 0 16 -9l181 -255l181 255q7 9 16 9h75q19 0 19 -18q0 -6 -3 -11l-238 -333v-49h119 q8 0 13.5 -5.5t5.5 -13.5v-11q0 -8 -5.5 -13t-13.5 -5h-119v-72h119q8 0 13.5 -5.5t5.5 -13.5v-11q0 -8 -5.5 -13t-13.5 -5h-119v-102q0 -7 -6 -13t-13 -6h-65q-8 0 -13.5 5.5t-5.5 13.5v102h-121z"/>
<glyph glyph-name="brokenbar" horiz-adv-x="333" unicode="¦" d="M143 49q0 8 5.5 13.5t13.5 5.5h10q8 0 13 -5.5t5 -13.5v-331q0 -7 -5.5 -12.5t-13.5 -5.5h-9q-8 0 -13.5 5.5t-5.5 12.5v331zM162 392q-8 0 -13.5 5.5t-5.5 12.5v331q0 8 5.5 13.5t13.5 5.5h10q8 0 13 -5.5t5 -13.5v-331q0 -7 -5.5 -12.5t-13.5 -5.5h-9z"/>
<glyph glyph-name="section" horiz-adv-x="518" unicode="§" d="M138 266q0 -15 4 -27.5t13.5 -23.5t19 -19t28.5 -18t32 -16.5t40 -19t43 -20.5q6 3 14.5 9t23 29t14.5 51q0 39 -35.5 65.5t-119.5 61.5q-12 5 -29 11l-4 -3q-5 -3 -10 -7t-11 -11.5t-11 -16t-8.5 -20.5t-3.5 -25zM68 -99q8 11 18 11q8 0 15 -6l7 -5q6 -5 13.5 -10.5 t19 -12.5t25 -14t28 -12.5t31 -9t32.5 -3.5q42 0 74 20.5t35 57.5v7q0 41 -36 73.5t-111 63.5q-178 74 -178 199q0 12 2 23.5t6 22t8.5 19t10.5 17t11 14.5t12 12.5t10.5 10t9 8t6.5 5.5l-6 5q-6 5 -9 8.5t-10 10.5t-12 13.5t-11.5 16t-11 19t-8.5 20.5t-6 24t-2 26 q0 67 55 121t159 54q44 0 88.5 -14t63.5 -25t29 -19q11 -7 11 -19q0 -8 -4 -13l-28 -41q-8 -11 -17 -11q-7 0 -16 6q-80 48 -130 48q-54 0 -83 -25.5t-29 -56.5q0 -68 124 -118q50 -20 83 -37.5t65 -42t48 -56t16 -70.5q0 -12 -2 -23.5t-6.5 -22.5t-9 -20t-11 -18 t-11.5 -15.5t-12.5 -14l-11 -11l-9.5 -9.5l-6 -5q79 -67 79 -149q0 -76 -63 -127t-155 -51q-54 0 -104.5 18t-71 32.5t-34.5 27.5q-12 10 -12 18t7 16z"/>
<glyph glyph-name="dieresis" horiz-adv-x="414" unicode="¨" d="M119 567q-23 0 -39.5 16.5t-16.5 39.5q0 24 16.5 40.5t39.5 16.5q24 0 40.5 -16.5t16.5 -40.5q0 -23 -16.5 -39.5t-40.5 -16.5zM316 567q-23 0 -39.5 16.5t-16.5 39.5q0 24 16.5 40.5t39.5 16.5q24 0 40.5 -16.5t16.5 -40.5q0 -23 -16.5 -39.5t-40.5 -16.5z"/>
<glyph glyph-name="copyright" horiz-adv-x="812" unicode="©" d="M228 348q0 78 55 133t132 55q67 0 115 -38q7 -6 7 -15t-5 -14l-26 -28q-9 -13 -26 -2q-29 20 -64 20q-45 0 -75 -32t-30 -76q0 -46 30 -77t75 -31q34 0 62 19q17 10 27 -2l28 -29q13 -14 -1 -28q-49 -42 -117 -42q-77 0 -132 55t-55 132zM116 350q0 -120 85 -205t205 -85 q121 0 205.5 85t84.5 205q0 121 -84.5 205.5t-205.5 84.5q-120 0 -205 -84.5t-85 -205.5zM47 350q0 149 105.5 254.5t253.5 105.5t254 -106t106 -254t-105.5 -253.5t-254.5 -105.5q-148 0 -253.5 105.5t-105.5 253.5z"/>
<glyph glyph-name="ordfeminine" horiz-adv-x="311" unicode="ª" d="M135 456q20 0 39 11.5t26 25.5v44q-16 12 -53 12q-24 0 -40 -13.5t-16 -34.5q0 -19 12.5 -32t31.5 -13zM122 401q-41 0 -67.5 27.5t-26.5 71.5q0 42 31 68.5t86 26.5q14 0 28 -2.5t21 -4.5l8 -2q0 37 -8.5 51.5t-35.5 14.5q-22 0 -82 -15q-13 -3 -16 13l-5 25q-3 12 8 17 q4 2 16.5 6t37 8t48.5 4q33 0 54 -9.5t31 -28.5t13.5 -40t3.5 -53v-156q0 -6 -4.5 -10t-9.5 -4h-22q-9 0 -13 10q-1 4 -3.5 11t-3.5 10q-41 -39 -89 -39z"/>
<glyph glyph-name="guillemotleft" horiz-adv-x="443" unicode="«" d="M139 39l-104 155q-4 5 -4 12q0 6 4 12l109 148q7 12 18 12h35q19 0 19 -17q0 -4 -4 -14l-71 -139l68 -147q3 -8 3 -13q0 -17 -18 -17h-40q-9 0 -15 8zM216 194q-4 5 -4 12q0 6 4 12l109 148q7 12 18 12h35q19 0 19 -17q0 -4 -4 -14l-71 -139l68 -147q3 -8 3 -13 q0 -17 -18 -17h-40q-9 0 -15 8z"/>
<glyph glyph-name="logicalnot" horiz-adv-x="511" unicode="¬" d="M49 307q-7 0 -13 5.5t-6 13.5v42q0 8 6 13.5t13 5.5h386q8 0 13.5 -6t5.5 -13v-215q0 -7 -5.5 -12.5t-13.5 -5.5h-42q-8 0 -13.5 5.5t-5.5 12.5v154h-325z"/>
<glyph glyph-name="uni00AD" horiz-adv-x="347" unicode="­" d="M65 206q-8 0 -13.5 5t-5.5 13v43q0 19 19 19h216q19 0 19 -19v-43q0 -8 -5.5 -13t-13.5 -5h-216z"/>
<glyph glyph-name="registered" horiz-adv-x="814" unicode="®" d="M350 366h89q22 0 36 14t14 35q0 22 -14 35.5t-36 13.5h-89v-98zM277 187v328q0 8 5.5 13.5t13.5 5.5h148q50 0 86.5 -32t36.5 -86q0 -82 -76 -110q20 -41 53 -111q2 -3 2 -9q0 -8 -5.5 -13t-13.5 -5h-45q-12 0 -18 14l-50 118h-62v-113q0 -8 -5.5 -13.5t-13.5 -5.5h-37 q-8 0 -13.5 5.5t-5.5 13.5zM116 350q0 -120 85 -205t205 -85q121 0 205.5 85t84.5 205q0 121 -84.5 205.5t-205.5 84.5q-120 0 -205 -84.5t-85 -205.5zM47 350q0 149 105.5 254.5t253.5 105.5t254 -106t106 -254t-105.5 -253.5t-254.5 -105.5q-148 0 -253.5 105.5 t-105.5 253.5z"/>
<glyph glyph-name="macron" horiz-adv-x="414" unicode="¯" d="M79 576q-8 0 -13.5 5t-5.5 13v28q0 19 19 19h256q19 0 19 -19v-28q0 -8 -5.5 -13t-13.5 -5h-256z"/>
<glyph glyph-name="degree" horiz-adv-x="320" unicode="°" d="M160 508q25 0 44.5 20.5t19.5 46.5q0 25 -19.5 44.5t-44.5 19.5q-26 0 -46.5 -19.5t-20.5 -44.5q0 -26 20.5 -46.5t46.5 -20.5zM160 440q-56 0 -95.5 39.5t-39.5 95.5t39.5 95.5t95.5 39.5t95.5 -39.5t39.5 -95.5t-39.5 -95.5t-95.5 -39.5z"/>
<glyph glyph-name="plusminus" horiz-adv-x="574" unicode="±" d="M75 71v42q0 7 5.5 13t13.5 6h387q7 0 12.5 -5.5t5.5 -13.5v-42q0 -8 -5.5 -13.5t-12.5 -5.5h-387q-8 0 -13.5 6t-5.5 13zM247 263v110h-153q-8 0 -13.5 5.5t-5.5 13.5v42q0 8 5.5 13.5t13.5 5.5h153v148q0 7 5.5 12.5t13.5 5.5h42q8 0 13.5 -5.5t5.5 -12.5v-148h154 q7 0 12.5 -5.5t5.5 -13.5v-42q0 -8 -5.5 -13.5t-12.5 -5.5h-154v-110q0 -7 -5.5 -12.5t-13.5 -5.5h-42q-8 0 -13.5 5.5t-5.5 12.5z"/>
<glyph glyph-name="twosuperior" horiz-adv-x="292" unicode="²" d="M46 504q-10 0 -10 9v15l118 130q29 31 29 53q0 16 -13 28.5t-36 12.5q-28 0 -53 -25q-7 -7 -14 1l-21 26q-7 10 2 16q40 40 95 40q50 0 78.5 -25.5t28.5 -65.5t-43 -88l-67 -73h100q9 0 9 -10v-35q0 -9 -9 -9h-194z"/>
<glyph glyph-name="threesuperior" horiz-adv-x="279" unicode="³" d="M132 494q-62 0 -99 37q-4 4 -4 7t4 7l21 25q7 7 15 0l3 -2l6 -4t9 -5t11.5 -5t13 -3.5t14.5 -1.5q22 0 36.5 10.5t14.5 27.5q0 18 -15.5 29.5t-44.5 11.5h-30q-13 0 -13 11v28q0 12 13 12h30q25 0 39 10.5t14 26.5q0 17 -13.5 27.5t-32.5 10.5q-26 0 -48 -20q-7 -6 -14 1 l-22 24q-9 9 1 15q35 36 91 36q46 0 76 -22.5t30 -60.5q0 -24 -15.5 -43t-35.5 -27v-2q22 -9 41 -28.5t19 -46.5q0 -39 -32.5 -62.5t-82.5 -23.5z"/>
<glyph glyph-name="acute" horiz-adv-x="302" unicode="´" d="M97 543q-7 -4 -13 -4q-8 0 -11 8l-14 29q-2 4 -2 7q0 8 8 12l157 91q4 3 13 3t13 -6l23 -44q2 -3 2 -10q0 -9 -8 -14z"/>
<glyph glyph-name="mu" horiz-adv-x="513" unicode="µ" d="M161 1v-282q0 -7 -5.5 -13t-13.5 -6h-56q-8 0 -13.5 6t-5.5 13v662q0 7 5.5 13t13.5 6h57q7 0 13 -6t6 -13v-201q0 -48 21.5 -74t60.5 -26t67.5 24t31.5 42v235q0 19 22 19h52q7 0 13 -6t6 -13v-362q0 -7 -6 -13t-13 -6h-28q-13 0 -18 16l-10 29l-5 -5q-5 -4 -8.5 -7 t-11 -9t-14.5 -10t-18 -9t-21.5 -8t-24.5 -5t-29 -2q-38 0 -68 11z"/>
<glyph glyph-name="paragraph" horiz-adv-x="699" unicode="¶" d="M229 281q-85 0 -146.5 61t-61.5 149q0 86 56.5 147.5t137.5 61.5l449 -1q8 0 13.5 -5.5t5.5 -13.5v-33q0 -8 -5.5 -13.5t-13.5 -5.5h-94v-909q0 -8 -5.5 -13.5t-13.5 -5.5h-38q-7 0 -13 6t-6 13v909h-146v-909q0 -7 -6 -13t-13 -6h-37q-8 0 -13.5 6t-5.5 13v562h-44z"/>
<glyph glyph-name="periodcentered" horiz-adv-x="237" unicode="·" d="M118 245q-30 0 -51.5 22t-21.5 51q0 31 21.5 53t51.5 22q31 0 52.5 -22t21.5 -53q0 -30 -22 -51.5t-52 -21.5z"/>
<glyph glyph-name="cedilla" horiz-adv-x="247" unicode="¸" d="M54 0h60v-53q46 -6 73.5 -33.5t27.5 -69.5q0 -44 -30.5 -74t-74.5 -30q-46 0 -76 35q-6 6 -6 13t7 14l17 14q13 9 22 -1q14 -15 36 -15q17 0 28 12t11 30q0 47 -78 56q-17 3 -17 19v83z"/>
<glyph glyph-name="onesuperior" horiz-adv-x="193" unicode="¹" d="M86 504q-10 0 -10 9v201l-45 -7q-9 -2 -9 6l-4 24q0 6 5 11l72 52h40q9 0 9 -9v-278q0 -9 -9 -9h-49z"/>
<glyph glyph-name="ordmasculine" horiz-adv-x="314" unicode="º" d="M157 456q26 0 41 25t15 71t-15 71.5t-41 25.5q-55 0 -55 -97q0 -96 55 -96zM157 395q-60 0 -93 41.5t-33 115.5q0 75 33 116.5t93 41.5t93 -41.5t33 -116.5q0 -74 -33 -115.5t-93 -41.5z"/>
<glyph glyph-name="guillemotright" horiz-adv-x="443" unicode="»" d="M67 31q-18 0 -18 17q0 6 3 13l68 147l-71 139q-4 10 -4 14q0 17 19 17h35q11 0 18 -12l109 -148q8 -13 0 -24l-104 -155q-6 -8 -15 -8h-40zM233 61l68 147l-71 139q-4 10 -4 14q0 17 19 17h35q11 0 18 -12l109 -148q4 -6 4 -12q0 -7 -4 -12l-104 -155q-6 -8 -15 -8h-40 q-18 0 -18 17q0 6 3 13z"/>
<glyph glyph-name="onequarter" horiz-adv-x="648" unicode="¼" d="M397 109h90v101zM333 66v40l167 187q3 3 8 3h31q10 0 10 -9v-178h40q9 0 9 -8v-34q0 -9 -9 -9h-40v-49q0 -9 -10 -9h-44q-10 0 -10 9v49h-143q-9 0 -9 8zM96 404q-10 0 -10 9v201l-45 -7q-9 -2 -9 6l-4 24q0 6 5 11l72 52h40q9 0 9 -9v-278q0 -9 -9 -9h-49zM88 27 l343 663q7 10 17 10h33q8 0 13.5 -5t5.5 -13q0 -6 -2 -9l-345 -663q-5 -10 -17 -10h-31q-8 0 -13.5 5t-5.5 13q0 6 2 9z"/>
<glyph glyph-name="onehalf" horiz-adv-x="643" unicode="½" d="M368 9v15l118 130q29 31 29 53q0 16 -13 28.5t-36 12.5q-28 0 -53 -25q-7 -7 -14 1l-21 26q-7 10 2 16q40 40 95 40q50 0 78.5 -25.5t28.5 -65.5t-43 -88l-67 -73h100q9 0 9 -10v-35q0 -9 -9 -9h-194q-10 0 -10 9zM96 404q-10 0 -10 9v201l-45 -7q-9 -2 -9 6l-4 24 q0 6 5 11l72 52h40q9 0 9 -9v-278q0 -9 -9 -9h-49zM88 27l343 663q7 10 17 10h33q8 0 13.5 -5t5.5 -13q0 -6 -2 -9l-345 -663q-5 -10 -17 -10h-31q-8 0 -13.5 5t-5.5 13q0 6 2 9z"/>
<glyph glyph-name="threequarters" horiz-adv-x="689" unicode="¾" d="M438 109h90v101zM374 66v40l167 187q3 3 8 3h31q10 0 10 -9v-178h40q9 0 9 -8v-34q0 -9 -9 -9h-40v-49q0 -9 -10 -9h-44q-10 0 -10 9v49h-143q-9 0 -9 8zM129 27l343 663q7 10 17 10h33q8 0 13.5 -5t5.5 -13q0 -6 -2 -9l-345 -663q-5 -10 -17 -10h-31q-8 0 -13.5 5 t-5.5 13q0 6 2 9zM137 394q-62 0 -99 37q-4 4 -4 7t4 7l21 25q7 7 15 0l3 -2l6 -4t9 -5t11.5 -5t13 -3.5t14.5 -1.5q22 0 36.5 10.5t14.5 27.5q0 18 -15.5 29.5t-44.5 11.5h-30q-13 0 -13 11v28q0 12 13 12h30q25 0 39 10.5t14 26.5q0 17 -13.5 27.5t-32.5 10.5 q-26 0 -48 -20q-7 -6 -14 1l-22 24q-9 9 1 15q35 36 91 36q46 0 76 -22.5t30 -60.5q0 -24 -15.5 -43t-35.5 -27v-2q22 -9 41 -28.5t19 -46.5q0 -39 -32.5 -62.5t-82.5 -23.5z"/>
<glyph glyph-name="questiondown" horiz-adv-x="251" unicode="¿" d="M85 71v37q0 20 21 20h54q8 0 13.5 -5.5t5.5 -13.5v-42q0 -37 -22.5 -66.5t-50 -47t-50 -44t-22.5 -56.5q0 -32 24 -54.5t66 -22.5q20 0 37.5 4t31.5 12.5t22 14.5t19 16.5t13 12.5q12 10 24 0l33 -32q5 -4 5 -12q0 -7 -5 -14q-3 -4 -8 -9.5t-22.5 -21t-37.5 -27t-53 -21 t-69 -9.5q-79 0 -131.5 45t-52.5 116q0 35 16 64t39 48t45.5 35.5t38.5 35t16 37.5zM134 271q-29 0 -49.5 20.5t-20.5 49.5t20.5 49t49.5 20q28 0 48.5 -20t20.5 -49t-20 -49.5t-49 -20.5z"/>
<glyph glyph-name="Agrave" horiz-adv-x="662" unicode="À" d="M400 774l-168 72q-14 7 -6 24l23 44q4 6 13 6q8 0 13 -3l157 -91q12 -6 6 -19l-14 -28q-6 -13 -24 -5zM206 238h250l-123 274h-5zM20 0q-19 0 -19 17q0 3 2 9l307 673q6 11 17 11h10q11 0 17 -11l305 -673q2 -6 2 -9q0 -17 -19 -17h-63q-16 0 -23 15l-62 137h-327 q-10 -23 -30.5 -68.5t-30.5 -68.5q-6 -15 -23 -15h-63z"/>
<glyph glyph-name="Aacute" horiz-adv-x="662" unicode="Á" d="M262 774q-18 -8 -24 5l-14 28q-6 12 6 19l157 91q5 3 13 3q9 0 13 -6l23 -44q10 -16 -6 -24zM206 238h250l-123 274h-5zM20 0q-19 0 -19 17q0 3 2 9l307 673q6 11 17 11h10q11 0 17 -11l305 -673q2 -6 2 -9q0 -17 -19 -17h-63q-16 0 -23 15l-62 137h-327 q-10 -23 -30.5 -68.5t-30.5 -68.5q-6 -15 -23 -15h-63z"/>
<glyph glyph-name="Acircumflex" horiz-adv-x="662" unicode="Â" d="M235 768q-14 -8 -23 3l-20 27q-7 10 6 19l125 98q6 4 12 4q4 0 12 -4l125 -98q13 -9 6 -19l-20 -27q-9 -12 -23 -3l-100 65zM206 238h250l-123 274h-5zM20 0q-19 0 -19 17q0 3 2 9l307 673q6 11 17 11h10q11 0 17 -11l305 -673q2 -6 2 -9q0 -17 -19 -17h-63q-16 0 -23 15 l-62 137h-327q-10 -23 -30.5 -68.5t-30.5 -68.5q-6 -15 -23 -15h-63z"/>
<glyph glyph-name="Atilde" horiz-adv-x="662" unicode="Ã" d="M211 792l-23 15q-13 8 -6 23q42 84 98 84q25 0 45.5 -16t35.5 -32t28 -16q8 0 15 4.5t10.5 9.5t8.5 14t7 12q10 17 25 9q1 0 11.5 -7t14.5 -12q5 -9 -3 -27q-34 -75 -94 -75q-28 0 -61.5 32.5t-45.5 32.5q-24 0 -43 -41q-8 -18 -23 -10zM206 238h250l-123 274h-5zM20 0 q-19 0 -19 17q0 3 2 9l307 673q6 11 17 11h10q11 0 17 -11l305 -673q2 -6 2 -9q0 -17 -19 -17h-63q-16 0 -23 15l-62 137h-327q-10 -23 -30.5 -68.5t-30.5 -68.5q-6 -15 -23 -15h-63z"/>
<glyph glyph-name="Adieresis" horiz-adv-x="662" unicode="Ä" d="M215 782q-23 0 -39.5 17t-16.5 40t16.5 39.5t39.5 16.5t40 -16.5t17 -39.5t-17 -40t-40 -17zM444 782q-23 0 -39.5 17t-16.5 40t16.5 39.5t39.5 16.5t40 -16.5t17 -39.5t-17 -40t-40 -17zM206 238h250l-123 274h-5zM20 0q-19 0 -19 17q0 3 2 9l307 673q6 11 17 11h10 q11 0 17 -11l305 -673q2 -6 2 -9q0 -17 -19 -17h-63q-16 0 -23 15l-62 137h-327q-10 -23 -30.5 -68.5t-30.5 -68.5q-6 -15 -23 -15h-63z"/>
<glyph glyph-name="Aring" horiz-adv-x="662" unicode="Å" d="M330 811q21 0 37 17t16 39t-15.5 37.5t-37.5 15.5q-23 0 -39.5 -15.5t-16.5 -37.5t16.5 -39t39.5 -17zM330 756q-46 0 -78.5 32t-32.5 79t32.5 79t78.5 32t78.5 -32.5t32.5 -78.5t-32.5 -78.5t-78.5 -32.5zM206 238h250l-123 274h-5zM20 0q-19 0 -19 17q0 3 2 9l307 673 q6 11 17 11h10q11 0 17 -11l305 -673q2 -6 2 -9q0 -17 -19 -17h-63q-16 0 -23 15l-62 137h-327q-10 -23 -30.5 -68.5t-30.5 -68.5q-6 -15 -23 -15h-63z"/>
<glyph glyph-name="AE" horiz-adv-x="897" unicode="Æ" d="M234 238h170v274zM3 0q-16 0 -16 14q0 7 4 12l401 643q15 24 25 28q7 3 19 3h388q8 0 13.5 -5.5t5.5 -13.5v-56q0 -8 -5.5 -13.5t-13.5 -5.5h-320v-204h271q7 0 13 -6t6 -13v-56q0 -8 -5.5 -13.5t-13.5 -5.5h-271v-215h320q8 0 13.5 -5.5t5.5 -13.5v-55q0 -8 -5.5 -13.5 t-13.5 -5.5h-401q-8 0 -13.5 5.5t-5.5 13.5v133h-222l-87 -139q-9 -13 -22 -13h-70z"/>
<glyph glyph-name="Ccedilla" horiz-adv-x="698" unicode="Ç" d="M349 -5q-130 20 -216 120t-86 234q0 150 105.5 255.5t255.5 105.5q135 0 242 -93q7 -6 7 -14t-6 -14l-44 -45q-11 -14 -25 0q-77 67 -173 67q-106 0 -178.5 -77t-72.5 -183t73 -182.5t179 -76.5q86 0 172 66q13 10 24 1l46 -45q5 -4 5 -12q0 -9 -6 -15q-100 -97 -242 -97 v-43q46 -6 73.5 -33.5t27.5 -69.5q0 -44 -30.5 -74t-74.5 -30q-46 0 -76 35q-13 15 1 27l17 14q13 9 22 -1q14 -15 36 -15q17 0 28 12t11 30q0 47 -78 56q-17 3 -17 19v78z"/>
<glyph glyph-name="Egrave" horiz-adv-x="589" unicode="È" d="M382 774l-168 72q-14 7 -6 24l23 44q4 6 13 6t13 -3l157 -91q12 -6 6 -19l-14 -28q-6 -13 -24 -5zM97 19v662q0 8 5.5 13.5t13.5 5.5h400q8 0 13.5 -5.5t5.5 -13.5v-56q0 -8 -5.5 -13.5t-13.5 -5.5h-316v-204h267q7 0 13 -6t6 -13v-56q0 -8 -5.5 -13.5t-13.5 -5.5h-267 v-215h316q8 0 13.5 -5.5t5.5 -13.5v-55q0 -8 -5.5 -13.5t-13.5 -5.5h-400q-8 0 -13.5 5.5t-5.5 13.5z"/>
<glyph glyph-name="Eacute" horiz-adv-x="589" unicode="É" d="M245 774q-18 -8 -24 5l-14 28q-6 12 6 19l157 91q5 3 13 3q9 0 13 -6l23 -44q10 -16 -6 -24zM97 19v662q0 8 5.5 13.5t13.5 5.5h400q8 0 13.5 -5.5t5.5 -13.5v-56q0 -8 -5.5 -13.5t-13.5 -5.5h-316v-204h267q7 0 13 -6t6 -13v-56q0 -8 -5.5 -13.5t-13.5 -5.5h-267v-215 h316q8 0 13.5 -5.5t5.5 -13.5v-55q0 -8 -5.5 -13.5t-13.5 -5.5h-400q-8 0 -13.5 5.5t-5.5 13.5z"/>
<glyph glyph-name="Ecircumflex" horiz-adv-x="589" unicode="Ê" d="M211 769q-14 -8 -23 3l-20 27q-7 10 6 19l125 98q6 4 12 4q4 0 12 -4l125 -98q13 -9 6 -19l-20 -27q-9 -12 -23 -3l-100 65zM97 19v662q0 8 5.5 13.5t13.5 5.5h400q8 0 13.5 -5.5t5.5 -13.5v-56q0 -8 -5.5 -13.5t-13.5 -5.5h-316v-204h267q7 0 13 -6t6 -13v-56 q0 -8 -5.5 -13.5t-13.5 -5.5h-267v-215h316q8 0 13.5 -5.5t5.5 -13.5v-55q0 -8 -5.5 -13.5t-13.5 -5.5h-400q-8 0 -13.5 5.5t-5.5 13.5z"/>
<glyph glyph-name="Edieresis" horiz-adv-x="589" unicode="Ë" d="M200 782q-23 0 -39.5 17t-16.5 40t16.5 39.5t39.5 16.5t40 -16.5t17 -39.5t-17 -40t-40 -17zM429 782q-23 0 -39.5 17t-16.5 40t16.5 39.5t39.5 16.5t40 -16.5t17 -39.5t-17 -40t-40 -17zM97 19v662q0 8 5.5 13.5t13.5 5.5h400q8 0 13.5 -5.5t5.5 -13.5v-56 q0 -8 -5.5 -13.5t-13.5 -5.5h-316v-204h267q7 0 13 -6t6 -13v-56q0 -8 -5.5 -13.5t-13.5 -5.5h-267v-215h316q8 0 13.5 -5.5t5.5 -13.5v-55q0 -8 -5.5 -13.5t-13.5 -5.5h-400q-8 0 -13.5 5.5t-5.5 13.5z"/>
<glyph glyph-name="Igrave" horiz-adv-x="298" unicode="Ì" d="M217 774l-168 72q-8 5 -8 14q0 7 2 10l23 44q4 6 13 6t13 -3l157 -91q8 -4 8 -12q0 -3 -2 -7l-14 -28q-6 -13 -24 -5zM97 19v662q0 7 5.5 13t13.5 6h66q8 0 13.5 -6t5.5 -13v-662q0 -7 -5.5 -13t-13.5 -6h-66q-8 0 -13.5 6t-5.5 13z"/>
<glyph glyph-name="Iacute" horiz-adv-x="298" unicode="Í" d="M80 774q-18 -8 -24 5l-14 28q-1 2 -1 6q0 9 7 13l157 91q5 3 13 3q9 0 13 -6l23 -44q3 -4 3 -10q0 -9 -9 -14zM97 19v662q0 7 5.5 13t13.5 6h66q8 0 13.5 -6t5.5 -13v-662q0 -7 -5.5 -13t-13.5 -6h-66q-8 0 -13.5 6t-5.5 13z"/>
<glyph glyph-name="Icircumflex" horiz-adv-x="298" unicode="Î" d="M48 769q-14 -8 -23 3l-20 27q-2 4 -2 6q0 7 8 13l125 98q6 4 12 4q4 0 12 -4l125 -98q8 -6 8 -13q0 -2 -2 -6l-20 -27q-9 -12 -23 -3l-100 65zM97 19v662q0 7 5.5 13t13.5 6h66q8 0 13.5 -6t5.5 -13v-662q0 -7 -5.5 -13t-13.5 -6h-66q-8 0 -13.5 6t-5.5 13z"/>
<glyph glyph-name="Idieresis" horiz-adv-x="298" unicode="Ï" d="M35 782q-23 0 -39.5 17t-16.5 40t16.5 39.5t39.5 16.5t40 -16.5t17 -39.5t-17 -40t-40 -17zM264 782q-23 0 -39.5 17t-16.5 40t16.5 39.5t39.5 16.5t40 -16.5t17 -39.5t-17 -40t-40 -17zM97 19v662q0 7 5.5 13t13.5 6h66q8 0 13.5 -6t5.5 -13v-662q0 -7 -5.5 -13 t-13.5 -6h-66q-8 0 -13.5 6t-5.5 13z"/>
<glyph glyph-name="Eth" horiz-adv-x="747" unicode="Ð" d="M203 95h132q110 0 182 72.5t72 183.5q0 110 -72 182t-182 72h-132v-235h188q8 0 13.5 -5.5t5.5 -13.5v-11q0 -8 -5.5 -13t-13.5 -5h-188v-227zM101 19v303h-29q-7 0 -12.5 5.5t-5.5 13.5v10q0 8 5.5 13.5t12.5 5.5h29v311q0 8 5.5 13.5t12.5 5.5h230q145 0 248 -102.5 t103 -246.5q0 -145 -103 -248t-248 -103h-230q-7 0 -12.5 5.5t-5.5 13.5z"/>
<glyph glyph-name="Ntilde" horiz-adv-x="775" unicode="Ñ" d="M270 792l-23 15q-13 8 -6 23q42 84 98 84q25 0 45.5 -16t35.5 -32t28 -16q8 0 15 4.5t10.5 9.5t8.5 14t7 12q10 17 25 9q1 0 11.5 -7t14.5 -12q5 -9 -3 -27q-34 -75 -94 -75q-28 0 -61.5 32.5t-45.5 32.5q-24 0 -43 -41q-8 -18 -23 -10zM97 19v673q0 7 5.5 12.5t13.5 5.5 h25l434 -502h1v473q0 8 5.5 13.5t13.5 5.5h64q7 0 13 -6t6 -13v-673q0 -7 -5.5 -12.5t-13.5 -5.5h-26l-434 516h-1v-487q0 -8 -5.5 -13.5t-13.5 -5.5h-63q-8 0 -13.5 6t-5.5 13z"/>
<glyph glyph-name="Ograve" horiz-adv-x="811" unicode="Ò" d="M474 774l-168 72q-14 7 -6 24l23 44q4 6 13 6q8 0 13 -3l157 -91q12 -6 6 -19l-14 -28q-6 -13 -24 -5zM146 349q0 -107 76 -183t183 -76t183.5 76t76.5 183t-76.5 184t-183.5 77q-106 0 -182.5 -77t-76.5 -184zM46 349q0 150 104.5 255.5t254.5 105.5t255 -105.5 t105 -255.5t-105 -254.5t-255 -104.5t-254.5 104.5t-104.5 254.5z"/>
<glyph glyph-name="Oacute" horiz-adv-x="811" unicode="Ó" d="M338 774q-18 -8 -24 5l-14 28q-6 12 6 19l157 91q5 3 13 3q9 0 13 -6l23 -44q10 -16 -6 -24zM146 349q0 -107 76 -183t183 -76t183.5 76t76.5 183t-76.5 184t-183.5 77q-106 0 -182.5 -77t-76.5 -184zM46 349q0 150 104.5 255.5t254.5 105.5t255 -105.5t105 -255.5 t-105 -254.5t-255 -104.5t-254.5 104.5t-104.5 254.5z"/>
<glyph glyph-name="Ocircumflex" horiz-adv-x="811" unicode="Ô" d="M304 769q-14 -8 -23 3l-20 27q-7 10 6 19l125 98q6 4 12 4q4 0 12 -4l125 -98q13 -9 6 -19l-20 -27q-9 -12 -23 -3l-100 65zM146 349q0 -107 76 -183t183 -76t183.5 76t76.5 183t-76.5 184t-183.5 77q-106 0 -182.5 -77t-76.5 -184zM46 349q0 150 104.5 255.5 t254.5 105.5t255 -105.5t105 -255.5t-105 -254.5t-255 -104.5t-254.5 104.5t-104.5 254.5z"/>
<glyph glyph-name="Otilde" horiz-adv-x="811" unicode="Õ" d="M283 792l-23 15q-13 8 -6 23q42 84 98 84q25 0 45.5 -16t35.5 -32t28 -16q8 0 15 4.5t10.5 9.5t8.5 14t7 12q10 17 25 9q1 0 11.5 -7t14.5 -12q5 -9 -3 -27q-34 -75 -94 -75q-28 0 -61.5 32.5t-45.5 32.5q-24 0 -43 -41q-8 -18 -23 -10zM146 349q0 -107 76 -183t183 -76 t183.5 76t76.5 183t-76.5 184t-183.5 77q-106 0 -182.5 -77t-76.5 -184zM46 349q0 150 104.5 255.5t254.5 105.5t255 -105.5t105 -255.5t-105 -254.5t-255 -104.5t-254.5 104.5t-104.5 254.5z"/>
<glyph glyph-name="Odieresis" horiz-adv-x="811" unicode="Ö" d="M291 782q-23 0 -39.5 17t-16.5 40t16.5 39.5t39.5 16.5t40 -16.5t17 -39.5t-17 -40t-40 -17zM520 782q-23 0 -39.5 17t-16.5 40t16.5 39.5t39.5 16.5t40 -16.5t17 -39.5t-17 -40t-40 -17zM146 349q0 -107 76 -183t183 -76t183.5 76t76.5 183t-76.5 184t-183.5 77 q-106 0 -182.5 -77t-76.5 -184zM46 349q0 150 104.5 255.5t254.5 105.5t255 -105.5t105 -255.5t-105 -254.5t-255 -104.5t-254.5 104.5t-104.5 254.5z"/>
<glyph glyph-name="multiply" horiz-adv-x="471" unicode="×" d="M101 182l-30 30q-5 5 -5 13t5 13l108 109l-108 108q-5 5 -5 13q0 9 5 14l29 30q5 5 14 5q8 0 13 -5l108 -108l109 109q5 5 12 5q8 0 14 -6l30 -30q6 -6 6 -14q0 -7 -5 -12l-109 -109l109 -109q5 -7 5 -13q0 -8 -6 -14l-30 -29q-6 -6 -14 -6q-7 0 -12 5l-109 110 l-108 -109q-5 -5 -13 -5t-13 5z"/>
<glyph glyph-name="Oslash" horiz-adv-x="811" unicode="Ø" d="M240 149q72 -59 165 -59q107 0 183.5 76t76.5 183q0 96 -60 165zM207 183l365 366q-74 61 -167 61q-106 0 -182.5 -77t-76.5 -184q0 -94 61 -166zM72 22q-14 14 -1 26l63 63q-88 101 -88 238q0 150 104.5 255.5t254.5 105.5q135 0 238 -90l66 65q13 13 26 0l7 -7 q13 -13 0 -26l-65 -66q88 -103 88 -237q0 -150 -105 -254.5t-255 -104.5q-137 0 -237 87l-63 -63q-13 -12 -26 1z"/>
<glyph glyph-name="Ugrave" horiz-adv-x="721" unicode="Ù" d="M427 774l-168 72q-14 7 -6 24l23 44q4 6 13 6t13 -3l157 -91q12 -6 6 -19l-14 -28q-6 -13 -24 -5zM89 261v420q0 7 5.5 13t13.5 6h67q8 0 13.5 -5.5t5.5 -13.5v-413q0 -77 45.5 -127.5t120.5 -50.5q76 0 122 50t46 126v415q0 8 5.5 13.5t13.5 5.5h67q8 0 13.5 -6t5.5 -13 v-420q0 -115 -77.5 -193t-195.5 -78q-117 0 -194 78t-77 193z"/>
<glyph glyph-name="Uacute" horiz-adv-x="721" unicode="Ú" d="M291 774q-18 -8 -24 5l-14 28q-6 12 6 19l157 91q5 3 13 3q9 0 13 -6l23 -44q10 -16 -6 -24zM89 261v420q0 7 5.5 13t13.5 6h67q8 0 13.5 -5.5t5.5 -13.5v-413q0 -77 45.5 -127.5t120.5 -50.5q76 0 122 50t46 126v415q0 8 5.5 13.5t13.5 5.5h67q8 0 13.5 -6t5.5 -13v-420 q0 -115 -77.5 -193t-195.5 -78q-117 0 -194 78t-77 193z"/>
<glyph glyph-name="Ucircumflex" horiz-adv-x="721" unicode="Û" d="M261 769q-14 -8 -23 3l-20 27q-7 10 6 19l125 98q6 4 12 4q4 0 12 -4l125 -98q13 -9 6 -19l-20 -27q-9 -12 -23 -3l-100 65zM89 261v420q0 7 5.5 13t13.5 6h67q8 0 13.5 -5.5t5.5 -13.5v-413q0 -77 45.5 -127.5t120.5 -50.5q76 0 122 50t46 126v415q0 8 5.5 13.5 t13.5 5.5h67q8 0 13.5 -6t5.5 -13v-420q0 -115 -77.5 -193t-195.5 -78q-117 0 -194 78t-77 193z"/>
<glyph glyph-name="Udieresis" horiz-adv-x="721" unicode="Ü" d="M249 782q-23 0 -39.5 17t-16.5 40t16.5 39.5t39.5 16.5t40 -16.5t17 -39.5t-17 -40t-40 -17zM478 782q-23 0 -39.5 17t-16.5 40t16.5 39.5t39.5 16.5t40 -16.5t17 -39.5t-17 -40t-40 -17zM89 261v420q0 7 5.5 13t13.5 6h67q8 0 13.5 -5.5t5.5 -13.5v-413 q0 -77 45.5 -127.5t120.5 -50.5q76 0 122 50t46 126v415q0 8 5.5 13.5t13.5 5.5h67q8 0 13.5 -6t5.5 -13v-420q0 -115 -77.5 -193t-195.5 -78q-117 0 -194 78t-77 193z"/>
<glyph glyph-name="Yacute" horiz-adv-x="574" unicode="Ý" d="M218 774q-18 -8 -24 5l-14 28q-6 12 6 19l157 91q5 3 13 3q9 0 13 -6l23 -44q10 -16 -6 -24zM234 19v318l-234 334q-3 5 -3 11q0 18 19 18h74q9 0 16 -9l181 -255l181 255q7 9 16 9h75q19 0 19 -18q0 -6 -3 -11l-237 -333v-319q0 -7 -6 -13t-13 -6h-66q-8 0 -13.5 5.5 t-5.5 13.5z"/>
<glyph glyph-name="Thorn" horiz-adv-x="594" unicode="Þ" d="M200 225h138q52 0 89.5 37.5t37.5 91.5q0 51 -37.5 85.5t-89.5 34.5h-138v-249zM97 19v662q0 8 5.5 13.5t13.5 5.5h65q7 0 13 -6t6 -13v-108h144h2q91 0 156.5 -65.5t65.5 -155.5q0 -93 -65.5 -159t-157.5 -66h-145v-108q0 -7 -6 -13t-13 -6h-65q-8 0 -13.5 5.5 t-5.5 13.5z"/>
<glyph glyph-name="germandbls" horiz-adv-x="519" unicode="ß" d="M65 19v392q0 147 58.5 223t164.5 76q70 0 119 -39t49 -115q0 -40 -21 -81t-42 -73.5t-21 -50.5q0 -10 17.5 -29t39 -39.5t39 -55.5t17.5 -73q0 -68 -46 -116t-126 -48q-23 0 -44 3q-15 1 -15 21v46q0 17 19 16l15 -2q14 -2 25 -2q34 0 54 22t20 59q0 27 -18.5 54t-40 45 t-40 42t-18.5 46q0 32 44 105.5t44 106.5t-22.5 53t-54.5 20q-55 0 -87.5 -53t-32.5 -162v-391q0 -7 -5.5 -13t-13.5 -6h-58q-8 0 -13.5 6t-5.5 13z"/>
<glyph glyph-name="agrave" horiz-adv-x="422" unicode="à" d="M292 543l-168 72q-14 7 -6 24l23 44q4 6 13 6q8 0 13 -3l157 -91q12 -6 6 -19l-14 -29q-6 -13 -24 -4zM123 125q0 -28 17 -46t44 -18q28 0 54 16t36 34v64q-24 16 -70 16q-36 0 -58.5 -18t-22.5 -48zM36 124q0 56 42.5 92.5t117.5 36.5q19 0 38.5 -3t29.5 -6l11 -3v7 q0 45 -13 63t-49 18q-49 0 -112 -18q-17 -4 -22 16l-8 37q-4 17 13 23q54 23 138 23q46 0 75.5 -13t43 -39.5t17.5 -54.5t4 -71v-213q0 -7 -6 -13t-13 -6h-28q-11 0 -17 14l-10 27q-53 -51 -123 -51q-57 0 -93 36.5t-36 97.5z"/>
<glyph glyph-name="aacute" horiz-adv-x="422" unicode="á" d="M139 543q-18 -9 -24 4l-14 29q-6 13 6 19l157 91q4 3 13 3t13 -6l23 -44q8 -17 -6 -24zM123 125q0 -28 17 -46t44 -18q28 0 54 16t36 34v64q-24 16 -70 16q-36 0 -58.5 -18t-22.5 -48zM36 124q0 56 42.5 92.5t117.5 36.5q19 0 38.5 -3t29.5 -6l11 -3v7q0 45 -13 63 t-49 18q-49 0 -112 -18q-17 -4 -22 16l-8 37q-4 17 13 23q54 23 138 23q46 0 75.5 -13t43 -39.5t17.5 -54.5t4 -71v-213q0 -7 -6 -13t-13 -6h-28q-11 0 -17 14l-10 27q-53 -51 -123 -51q-57 0 -93 36.5t-36 97.5z"/>
<glyph glyph-name="acircumflex" horiz-adv-x="422" unicode="â" d="M90 542l-20 27q-7 10 6 19l125 98q6 4 12 4q4 0 12 -4l125 -98q13 -9 6 -19l-20 -27q-9 -12 -23 -3l-100 65l-100 -65q-14 -8 -23 3zM123 125q0 -28 17 -46t44 -18q28 0 54 16t36 34v64q-24 16 -70 16q-36 0 -58.5 -18t-22.5 -48zM36 124q0 56 42.5 92.5t117.5 36.5 q19 0 38.5 -3t29.5 -6l11 -3v7q0 45 -13 63t-49 18q-49 0 -112 -18q-17 -4 -22 16l-8 37q-4 17 13 23q54 23 138 23q46 0 75.5 -13t43 -39.5t17.5 -54.5t4 -71v-213q0 -7 -6 -13t-13 -6h-28q-11 0 -17 14l-10 27q-53 -51 -123 -51q-57 0 -93 36.5t-36 97.5z"/>
<glyph glyph-name="atilde" horiz-adv-x="422" unicode="ã" d="M91 568l-23 15q-13 8 -6 23q42 84 98 84q25 0 45.5 -16t35.5 -32t28 -16q8 0 15 4.5t10.5 9.5t8.5 14t7 12q10 17 25 9q1 0 11.5 -7t14.5 -12q3 -4 3 -9q0 -4 -6 -18q-34 -75 -94 -75q-28 0 -61.5 32.5t-45.5 32.5q-24 0 -43 -41q-8 -18 -23 -10zM123 125q0 -28 17 -46 t44 -18q28 0 54 16t36 34v64q-24 16 -70 16q-36 0 -58.5 -18t-22.5 -48zM36 124q0 56 42.5 92.5t117.5 36.5q19 0 38.5 -3t29.5 -6l11 -3v7q0 45 -13 63t-49 18q-49 0 -112 -18q-17 -4 -22 16l-8 37q-4 17 13 23q54 23 138 23q46 0 75.5 -13t43 -39.5t17.5 -54.5t4 -71v-213 q0 -7 -6 -13t-13 -6h-28q-11 0 -17 14l-10 27q-53 -51 -123 -51q-57 0 -93 36.5t-36 97.5z"/>
<glyph glyph-name="adieresis" horiz-adv-x="422" unicode="ä" d="M120 567q-23 0 -39.5 16.5t-16.5 39.5q0 24 16.5 40.5t39.5 16.5q24 0 40.5 -16.5t16.5 -40.5q0 -23 -16.5 -39.5t-40.5 -16.5zM317 567q-23 0 -39.5 16.5t-16.5 39.5q0 24 16.5 40.5t39.5 16.5q24 0 40.5 -16.5t16.5 -40.5q0 -23 -16.5 -39.5t-40.5 -16.5zM123 125 q0 -28 17 -46t44 -18q28 0 54 16t36 34v64q-24 16 -70 16q-36 0 -58.5 -18t-22.5 -48zM36 124q0 56 42.5 92.5t117.5 36.5q19 0 38.5 -3t29.5 -6l11 -3v7q0 45 -13 63t-49 18q-49 0 -112 -18q-17 -4 -22 16l-8 37q-4 17 13 23q54 23 138 23q46 0 75.5 -13t43 -39.5 t17.5 -54.5t4 -71v-213q0 -7 -6 -13t-13 -6h-28q-11 0 -17 14l-10 27q-53 -51 -123 -51q-57 0 -93 36.5t-36 97.5z"/>
<glyph glyph-name="aring" horiz-adv-x="422" unicode="å" d="M217 543q21 0 37 17t16 39t-15.5 37.5t-37.5 15.5q-24 0 -40 -15.5t-16 -37.5t16 -39t40 -17zM217 488q-47 0 -79 32t-32 79t32 79t79 32q46 0 78.5 -32.5t32.5 -78.5t-32.5 -78.5t-78.5 -32.5zM123 125q0 -28 17 -46t44 -18q28 0 54 16t36 34v64q-24 16 -70 16 q-36 0 -58.5 -18t-22.5 -48zM36 124q0 56 42.5 92.5t117.5 36.5q19 0 38.5 -3t29.5 -6l11 -3v7q0 45 -13 63t-49 18q-49 0 -112 -18q-17 -4 -22 16l-8 37q-4 17 13 23q54 23 138 23q46 0 75.5 -13t43 -39.5t17.5 -54.5t4 -71v-213q0 -7 -6 -13t-13 -6h-28q-11 0 -17 14 l-10 27q-53 -51 -123 -51q-57 0 -93 36.5t-36 97.5z"/>
<glyph glyph-name="ae" horiz-adv-x="677" unicode="æ" d="M123 126q0 -30 20 -46.5t48 -16.5q47 0 82 46v72q-28 10 -73 10q-32 0 -54.5 -17.5t-22.5 -47.5zM355 245h198q-1 37 -28 62.5t-65 25.5q-40 0 -70.5 -25.5t-34.5 -62.5zM36 125q0 57 41 92.5t111 35.5l84 -6q-1 50 -11.5 68.5t-44.5 18.5q-48 0 -118 -20q-7 -1 -13.5 3 t-8.5 12l-7 40q-1 15 16 20q69 21 138 21q89 0 117 -47q53 47 122 47q77 0 130.5 -52t53.5 -133q0 -44 -21 -44h-275q2 -43 35 -75.5t83 -32.5q45 0 89 27q20 11 27 1q5 -6 14.5 -17.5t14.5 -17.5q11 -15 -3 -26q-58 -50 -148 -50q-94 0 -147 68q-20 -26 -58.5 -47 t-85.5 -21q-60 0 -97.5 37t-37.5 98z"/>
<glyph glyph-name="ccedilla" horiz-adv-x="434" unicode="ç" d="M185 -1q-65 18 -107.5 73t-42.5 127q0 87 63 149t147 62q88 0 145 -71q4 -5 4 -12q0 -10 -8 -16l-33 -30q-5 -5 -11 -5q-7 0 -16 9q-34 38 -80 38q-49 0 -82.5 -36t-33.5 -87q0 -52 33 -88t82 -36q11 0 20 1t17.5 5t13.5 5.5t13 8t10 8t11 10.5l8 8q13 13 27 2l27 -22 q11 -8 11 -18q0 -4 -4 -10q-52 -82 -154 -84v-43q46 -6 73.5 -33.5t27.5 -69.5q0 -44 -30.5 -74t-74.5 -30q-46 0 -76 35q-13 15 1 27l17 14q13 9 22 -1q14 -15 36 -15q17 0 28 12t11 30q0 47 -78 56q-17 3 -17 19v82z"/>
<glyph glyph-name="egrave" horiz-adv-x="451" unicode="è" d="M303 543l-168 72q-14 7 -6 24l23 44q4 6 13 6t13 -3l157 -91q12 -6 6 -19l-14 -29q-6 -13 -24 -4zM133 244h194q-2 36 -29 62.5t-63 26.5q-40 0 -68.5 -25.5t-33.5 -63.5zM36 200q0 87 56 148.5t144 61.5q78 0 131 -52.5t53 -132.5q0 -13 -2 -27q-2 -17 -18 -17h-272 q2 -42 35 -74.5t80 -32.5q44 0 89 29q19 11 27 1l28 -38q12 -14 -2 -26q-58 -50 -148 -50q-89 0 -145 61t-56 149z"/>
<glyph glyph-name="eacute" horiz-adv-x="451" unicode="é" d="M165 543q-18 -9 -24 4l-14 29q-6 13 6 19l157 91q4 3 13 3t13 -6l23 -44q8 -17 -6 -24zM133 244h194q-2 36 -29 62.5t-63 26.5q-40 0 -68.5 -25.5t-33.5 -63.5zM36 200q0 87 56 148.5t144 61.5q78 0 131 -52.5t53 -132.5q0 -13 -2 -27q-2 -17 -18 -17h-272 q2 -42 35 -74.5t80 -32.5q44 0 89 29q19 11 27 1l28 -38q12 -14 -2 -26q-58 -50 -148 -50q-89 0 -145 61t-56 149z"/>
<glyph glyph-name="ecircumflex" horiz-adv-x="451" unicode="ê" d="M113 542l-20 27q-7 10 6 19l125 98q6 4 12 4q4 0 12 -4l125 -98q13 -9 6 -19l-20 -27q-9 -12 -23 -3l-100 65l-100 -65q-14 -8 -23 3zM133 244h194q-2 36 -29 62.5t-63 26.5q-40 0 -68.5 -25.5t-33.5 -63.5zM36 200q0 87 56 148.5t144 61.5q78 0 131 -52.5t53 -132.5 q0 -13 -2 -27q-2 -17 -18 -17h-272q2 -42 35 -74.5t80 -32.5q44 0 89 29q19 11 27 1l28 -38q12 -14 -2 -26q-58 -50 -148 -50q-89 0 -145 61t-56 149z"/>
<glyph glyph-name="edieresis" horiz-adv-x="451" unicode="ë" d="M134 567q-23 0 -39.5 16.5t-16.5 39.5q0 24 16.5 40.5t39.5 16.5q24 0 40.5 -16.5t16.5 -40.5q0 -23 -16.5 -39.5t-40.5 -16.5zM331 567q-23 0 -39.5 16.5t-16.5 39.5q0 24 16.5 40.5t39.5 16.5q24 0 40.5 -16.5t16.5 -40.5q0 -23 -16.5 -39.5t-40.5 -16.5zM133 244h194 q-2 36 -29 62.5t-63 26.5q-40 0 -68.5 -25.5t-33.5 -63.5zM36 200q0 87 56 148.5t144 61.5q78 0 131 -52.5t53 -132.5q0 -13 -2 -27q-2 -17 -18 -17h-272q2 -42 35 -74.5t80 -32.5q44 0 89 29q19 11 27 1l28 -38q12 -14 -2 -26q-58 -50 -148 -50q-89 0 -145 61t-56 149z"/>
<glyph glyph-name="igrave" horiz-adv-x="225" unicode="ì" d="M65 19v362q0 7 5.5 13t13.5 6h57q7 0 13 -6t6 -13v-362q0 -7 -6 -13t-13 -6h-57q-8 0 -13.5 6t-5.5 13zM179 543l-168 72q-8 5 -8 14q0 7 2 10l23 44q4 6 13 6t13 -3l157 -91q8 -4 8 -12q0 -3 -2 -7l-14 -29q-3 -8 -11 -8q-6 0 -13 4z"/>
<glyph glyph-name="iacute" horiz-adv-x="225" unicode="í" d="M65 19v362q0 7 5.5 13t13.5 6h57q7 0 13 -6t6 -13v-362q0 -7 -6 -13t-13 -6h-57q-8 0 -13.5 6t-5.5 13zM42 543q-7 -4 -13 -4q-8 0 -11 8l-14 29q-2 4 -2 7q0 8 8 12l157 91q4 3 13 3t13 -6l23 -44q2 -3 2 -10q0 -9 -8 -14z"/>
<glyph glyph-name="icircumflex" horiz-adv-x="225" unicode="î" d="M-11 542l-20 27q-2 4 -2 6q0 7 8 13l125 98q6 4 12 4q4 0 12 -4l125 -98q8 -6 8 -13q0 -2 -2 -6l-20 -27q-9 -12 -23 -3l-100 65l-100 -65q-14 -8 -23 3zM65 19v362q0 7 5.5 13t13.5 6h57q7 0 13 -6t6 -13v-362q0 -7 -6 -13t-13 -6h-57q-8 0 -13.5 6t-5.5 13z"/>
<glyph glyph-name="idieresis" horiz-adv-x="225" unicode="ï" d="M65 19v362q0 7 5.5 13t13.5 6h57q7 0 13 -6t6 -13v-362q0 -7 -6 -13t-13 -6h-57q-8 0 -13.5 6t-5.5 13zM13 567q-23 0 -39.5 16.5t-16.5 39.5q0 24 16.5 40.5t39.5 16.5q24 0 40.5 -16.5t16.5 -40.5q0 -23 -16.5 -39.5t-40.5 -16.5zM210 567q-23 0 -39.5 16.5t-16.5 39.5 q0 24 16.5 40.5t39.5 16.5q24 0 40.5 -16.5t16.5 -40.5q0 -23 -16.5 -39.5t-40.5 -16.5z"/>
<glyph glyph-name="eth" horiz-adv-x="535" unicode="ð" d="M126 218q0 -56 38.5 -97t93.5 -41q47 0 79.5 27.5t46 65.5t13.5 81q0 16 -1 24q-6 20 -45 48t-92 28q-55 0 -94 -40t-39 -96zM34 219q0 99 62.5 158t147.5 59q66 0 133 -37q-22 81 -117 152l-89 -51q-16 -9 -25 6l-5 10q-10 16 6 25l69 40q-46 27 -83 41q-15 5 -15 17 q0 4 2 10l18 43q5 12 16 12q2 0 8 -2q69 -25 138 -72l69 40q17 8 26 -8l6 -9q4 -6 2 -13.5t-9 -11.5l-53 -31q152 -129 152 -327q0 -122 -60.5 -201t-174.5 -79q-92 0 -158 67.5t-66 161.5z"/>
<glyph glyph-name="ntilde" horiz-adv-x="507" unicode="ñ" d="M139 568l-23 15q-13 8 -6 23q42 84 98 84q25 0 45.5 -16t35.5 -32t28 -16q8 0 15 4.5t10.5 9.5t8.5 14t7 12q10 17 25 9q1 0 11.5 -7t14.5 -12q5 -9 -3 -27q-34 -75 -94 -75q-28 0 -61.5 32.5t-45.5 32.5q-24 0 -43 -41q-8 -18 -23 -10zM65 19v362q0 7 5.5 13t13.5 6h29 q13 0 16 -12l12 -34q7 8 21.5 19t48.5 24t70 13q86 0 126.5 -52.5t40.5 -137.5v-201q0 -7 -6 -13t-13 -6h-57q-8 0 -13.5 5.5t-5.5 13.5v205q0 48 -22 73.5t-61 25.5q-41 0 -73 -22t-38 -38v-244q0 -19 -23 -19h-52q-8 0 -13.5 6t-5.5 13z"/>
<glyph glyph-name="ograve" horiz-adv-x="474" unicode="ò" d="M306 543l-168 72q-14 7 -6 24l23 44q4 6 13 6q8 0 13 -3l157 -91q12 -6 6 -19l-14 -29q-6 -13 -24 -4zM124 201q0 -52 33 -88.5t80 -36.5t80 36.5t33 88.5q0 50 -33 86t-80 36t-80 -36t-33 -86zM35 201q0 85 59 147t143 62t143 -62t59 -147q0 -87 -59 -149t-143 -62 t-143 62t-59 149z"/>
<glyph glyph-name="oacute" horiz-adv-x="474" unicode="ó" d="M168 543q-18 -9 -24 4l-14 29q-6 13 6 19l157 91q5 3 13 3q9 0 13 -6l23 -44q8 -17 -6 -24zM124 201q0 -52 33 -88.5t80 -36.5t80 36.5t33 88.5q0 50 -33 86t-80 36t-80 -36t-33 -86zM35 201q0 85 59 147t143 62t143 -62t59 -147q0 -87 -59 -149t-143 -62t-143 62 t-59 149z"/>
<glyph glyph-name="ocircumflex" horiz-adv-x="474" unicode="ô" d="M113 542l-20 27q-7 10 6 19l125 98q6 4 12 4q4 0 12 -4l125 -98q13 -9 6 -19l-20 -27q-9 -12 -23 -3l-100 65l-100 -65q-14 -8 -23 3zM124 201q0 -52 33 -88.5t80 -36.5t80 36.5t33 88.5q0 50 -33 86t-80 36t-80 -36t-33 -86zM35 201q0 85 59 147t143 62t143 -62t59 -147 q0 -87 -59 -149t-143 -62t-143 62t-59 149z"/>
<glyph glyph-name="otilde" horiz-adv-x="474" unicode="õ" d="M115 568l-23 15q-13 8 -6 23q42 84 98 84q25 0 45.5 -16t35.5 -32t28 -16q8 0 15 4.5t10.5 9.5t8.5 14t7 12q10 17 25 9q1 0 11.5 -7t14.5 -12q5 -9 -3 -27q-34 -75 -94 -75q-28 0 -61.5 32.5t-45.5 32.5q-24 0 -43 -41q-8 -18 -23 -10zM124 201q0 -52 33 -88.5t80 -36.5 t80 36.5t33 88.5q0 50 -33 86t-80 36t-80 -36t-33 -86zM35 201q0 85 59 147t143 62t143 -62t59 -147q0 -87 -59 -149t-143 -62t-143 62t-59 149z"/>
<glyph glyph-name="odieresis" horiz-adv-x="474" unicode="ö" d="M137 567q-23 0 -39.5 16.5t-16.5 39.5q0 24 16.5 40.5t39.5 16.5q24 0 40.5 -16.5t16.5 -40.5q0 -23 -16.5 -39.5t-40.5 -16.5zM334 567q-23 0 -39.5 16.5t-16.5 39.5q0 24 16.5 40.5t39.5 16.5q24 0 40.5 -16.5t16.5 -40.5q0 -23 -16.5 -39.5t-40.5 -16.5zM124 201 q0 -52 33 -88.5t80 -36.5t80 36.5t33 88.5q0 50 -33 86t-80 36t-80 -36t-33 -86zM35 201q0 85 59 147t143 62t143 -62t59 -147q0 -87 -59 -149t-143 -62t-143 62t-59 149z"/>
<glyph glyph-name="divide" horiz-adv-x="518" unicode="÷" d="M193 165q0 26 18.5 44.5t44.5 18.5t44.5 -18.5t18.5 -44.5t-18.5 -44.5t-44.5 -18.5t-44.5 18.5t-18.5 44.5zM66 306q-8 0 -13.5 6t-5.5 13v42q0 7 5.5 13t13.5 6h387q7 0 12.5 -5.5t5.5 -13.5v-42q0 -8 -5.5 -13.5t-12.5 -5.5h-387zM256 471q-26 0 -44.5 18.5 t-18.5 44.5t18.5 44.5t44.5 18.5t44.5 -18.5t18.5 -44.5t-18.5 -44.5t-44.5 -18.5z"/>
<glyph glyph-name="oslash" horiz-adv-x="473" unicode="ø" d="M172 98q28 -22 65 -22q47 0 79.5 37t32.5 89q0 34 -15 61zM140 136l162 164q-28 23 -65 23q-47 0 -79.5 -35.5t-32.5 -85.5q0 -39 15 -66zM59 26q-14 13 -1 26l19 19q-41 57 -41 131q0 85 58.5 146.5t142.5 61.5q71 0 127 -48l24 23q5 6 13 6t13 -6l8 -7q6 -5 6 -13 t-6 -13l-25 -25q41 -55 41 -125q0 -87 -59 -149.5t-142 -62.5q-73 0 -127 46l-18 -18q-12 -12 -27 1z"/>
<glyph glyph-name="ugrave" horiz-adv-x="494" unicode="ù" d="M316 543l-168 72q-14 7 -6 24l23 44q4 6 13 6q8 0 13 -3l157 -91q12 -6 6 -19l-14 -29q-6 -13 -24 -4zM60 179v202q0 7 6 13t13 6h57q8 0 13.5 -6t5.5 -13v-205q0 -48 21.5 -74t60.5 -26t67.5 24t31.5 42v239q0 19 22 19h52q8 0 13.5 -6t5.5 -13v-362q0 -7 -5.5 -13 t-13.5 -6h-28q-13 0 -18 16l-10 29l-5 -5q-5 -4 -8.5 -7t-11 -9t-14.5 -10t-18 -9t-21.5 -8t-24.5 -5t-29 -2q-85 0 -123.5 52t-38.5 137z"/>
<glyph glyph-name="uacute" horiz-adv-x="494" unicode="ú" d="M181 543q-18 -9 -24 4l-14 29q-6 13 6 19l157 91q4 3 13 3t13 -6l23 -44q8 -17 -6 -24zM60 179v202q0 7 6 13t13 6h57q8 0 13.5 -6t5.5 -13v-205q0 -48 21.5 -74t60.5 -26t67.5 24t31.5 42v239q0 19 22 19h52q8 0 13.5 -6t5.5 -13v-362q0 -7 -5.5 -13t-13.5 -6h-28 q-13 0 -18 16l-10 29l-5 -5q-5 -4 -8.5 -7t-11 -9t-14.5 -10t-18 -9t-21.5 -8t-24.5 -5t-29 -2q-85 0 -123.5 52t-38.5 137z"/>
<glyph glyph-name="ucircumflex" horiz-adv-x="494" unicode="û" d="M126 542l-20 27q-7 10 6 19l125 98q6 4 12 4q4 0 12 -4l125 -98q13 -9 6 -19l-20 -27q-9 -12 -23 -3l-100 65l-100 -65q-14 -8 -23 3zM60 179v202q0 7 6 13t13 6h57q8 0 13.5 -6t5.5 -13v-205q0 -48 21.5 -74t60.5 -26t67.5 24t31.5 42v239q0 19 22 19h52q8 0 13.5 -6 t5.5 -13v-362q0 -7 -5.5 -13t-13.5 -6h-28q-13 0 -18 16l-10 29l-5 -5q-5 -4 -8.5 -7t-11 -9t-14.5 -10t-18 -9t-21.5 -8t-24.5 -5t-29 -2q-85 0 -123.5 52t-38.5 137z"/>
<glyph glyph-name="udieresis" horiz-adv-x="494" unicode="ü" d="M152 567q-23 0 -39.5 16.5t-16.5 39.5q0 24 16.5 40.5t39.5 16.5q24 0 40.5 -16.5t16.5 -40.5q0 -23 -16.5 -39.5t-40.5 -16.5zM349 567q-23 0 -39.5 16.5t-16.5 39.5q0 24 16.5 40.5t39.5 16.5q24 0 40.5 -16.5t16.5 -40.5q0 -23 -16.5 -39.5t-40.5 -16.5zM60 179v202 q0 7 6 13t13 6h57q8 0 13.5 -6t5.5 -13v-205q0 -48 21.5 -74t60.5 -26t67.5 24t31.5 42v239q0 19 22 19h52q8 0 13.5 -6t5.5 -13v-362q0 -7 -5.5 -13t-13.5 -6h-28q-13 0 -18 16l-10 29l-5 -5q-5 -4 -8.5 -7t-11 -9t-14.5 -10t-18 -9t-21.5 -8t-24.5 -5t-29 -2 q-85 0 -123.5 52t-38.5 137z"/>
<glyph glyph-name="yacute" horiz-adv-x="463" unicode="ý" d="M167 543q-18 -9 -24 4l-14 29q-6 13 6 19l157 91q5 3 13 3q9 0 13 -6l23 -44q8 -17 -6 -24zM185 14l-174 360q-2 6 -2 9q0 17 19 17h66q12 0 17 -11l124 -266h1l120 266q5 11 21 11h57q9 0 14.5 -5t5.5 -12q0 -5 -3 -9l-306 -662q-6 -12 -17 -12h-60q-19 0 -19 17 q0 7 2 10z"/>
<glyph glyph-name="thorn" horiz-adv-x="491" unicode="þ" d="M162 107q6 -8 31 -18.5t55 -10.5q50 0 82 35t32 87q0 51 -30.5 87.5t-79.5 36.5q-33 0 -58.5 -18t-31.5 -31v-168zM162 17v-299q0 -8 -6 -13.5t-13 -5.5h-58q-7 0 -13 5.5t-6 13.5v963q0 7 6 13t13 6h58q7 0 13 -6t6 -13v-305q1 0 5 3t8.5 6t11.5 6.5t15 6.5t17.5 6 t21 4.5t23.5 1.5q81 0 136 -62t55 -149q0 -88 -57 -148.5t-140 -60.5q-42 0 -96 27z"/>
<glyph glyph-name="ydieresis" horiz-adv-x="463" unicode="ÿ" d="M137 567q-23 0 -39.5 16.5t-16.5 39.5q0 24 16.5 40.5t39.5 16.5q24 0 40.5 -16.5t16.5 -40.5q0 -23 -16.5 -39.5t-40.5 -16.5zM334 567q-23 0 -39.5 16.5t-16.5 39.5q0 24 16.5 40.5t39.5 16.5q24 0 40.5 -16.5t16.5 -40.5q0 -23 -16.5 -39.5t-40.5 -16.5zM185 14 l-174 360q-2 6 -2 9q0 17 19 17h66q12 0 17 -11l124 -266h1l120 266q5 11 21 11h57q9 0 14.5 -5t5.5 -12q0 -5 -3 -9l-306 -662q-6 -12 -17 -12h-60q-19 0 -19 17q0 7 2 10z"/>
<glyph glyph-name="Amacron" horiz-adv-x="662" unicode="Ā" d="M202 814q-8 0 -13.5 5t-5.5 13v28q0 19 19 19h256q19 0 19 -19v-28q0 -8 -5.5 -13t-13.5 -5h-256zM206 238h250l-123 274h-5zM20 0q-19 0 -19 17q0 3 2 9l307 673q6 11 17 11h10q11 0 17 -11l305 -673q2 -6 2 -9q0 -17 -19 -17h-63q-16 0 -23 15l-62 137h-327 q-10 -23 -30.5 -68.5t-30.5 -68.5q-6 -15 -23 -15h-63z"/>
<glyph glyph-name="amacron" horiz-adv-x="422" unicode="ā" d="M88 576q-8 0 -13.5 5t-5.5 13v28q0 19 19 19h256q19 0 19 -19v-28q0 -8 -5.5 -13t-13.5 -5h-256zM123 125q0 -28 17 -46t44 -18q28 0 54 16t36 34v64q-24 16 -70 16q-36 0 -58.5 -18t-22.5 -48zM36 124q0 56 42.5 92.5t117.5 36.5q19 0 38.5 -3t29.5 -6l11 -3v7 q0 45 -13 63t-49 18q-49 0 -112 -18q-17 -4 -22 16l-8 37q-4 17 13 23q54 23 138 23q46 0 75.5 -13t43 -39.5t17.5 -54.5t4 -71v-213q0 -7 -6 -13t-13 -6h-28q-11 0 -17 14l-10 27q-53 -51 -123 -51q-57 0 -93 36.5t-36 97.5z"/>
<glyph glyph-name="Abreve" horiz-adv-x="662" unicode="Ă" d="M331 768q-53 0 -91.5 33t-46.5 83q-2 9 2.5 15t13.5 6h29q14 0 18 -16q19 -58 75 -58q24 0 44 17t28 41q5 16 18 16h31q9 0 13.5 -6t2.5 -15q-8 -50 -46.5 -83t-90.5 -33zM206 238h250l-123 274h-5zM20 0q-19 0 -19 17q0 3 2 9l307 673q6 11 17 11h10q11 0 17 -11 l305 -673q2 -6 2 -9q0 -17 -19 -17h-63q-16 0 -23 15l-62 137h-327q-10 -23 -30.5 -68.5t-30.5 -68.5q-6 -15 -23 -15h-63z"/>
<glyph glyph-name="abreve" horiz-adv-x="422" unicode="ă" d="M213 529q-53 0 -91.5 33t-46.5 83q-3 21 16 21h29q14 0 18 -15q19 -59 75 -59q24 0 44 17t28 42q5 15 18 15h31q20 0 16 -21q-8 -50 -46.5 -83t-90.5 -33zM123 125q0 -28 17 -46t44 -18q28 0 54 16t36 34v64q-24 16 -70 16q-36 0 -58.5 -18t-22.5 -48zM36 124 q0 56 42.5 92.5t117.5 36.5q19 0 38.5 -3t29.5 -6l11 -3v7q0 45 -13 63t-49 18q-49 0 -112 -18q-17 -4 -22 16l-8 37q-4 17 13 23q54 23 138 23q46 0 75.5 -13t43 -39.5t17.5 -54.5t4 -71v-213q0 -7 -6 -13t-13 -6h-28q-11 0 -17 14l-10 27q-53 -51 -123 -51q-57 0 -93 36.5 t-36 97.5z"/>
<glyph glyph-name="Aogonek" horiz-adv-x="662" unicode="Ą" d="M206 238h250l-123 274h-5zM20 0q-19 0 -19 17q0 3 2 9l307 673q6 11 17 11h10q11 0 17 -11l305 -673q2 -6 2 -9q0 -17 -19 -17h-38q-47 -47 -47 -98q0 -26 17.5 -43t44.5 -17q21 0 50 12q8 3 13.5 -1.5t5.5 -13.5v-28q0 -10 -14 -18q-28 -12 -68 -12q-50 0 -83 27t-33 79 q0 74 67 124l-63 141h-327l-61 -137q-6 -15 -23 -15h-63z"/>
<glyph glyph-name="aogonek" horiz-adv-x="423" unicode="ą" d="M123 125q0 -28 17 -46t44 -18q28 0 54 16t36 34v64q-24 16 -70 16q-36 0 -58.5 -18t-22.5 -48zM36 124q0 56 42.5 92.5t117.5 36.5q19 0 38.5 -3t29.5 -6l11 -3v7q0 46 -13.5 66.5t-48.5 20.5q-42 0 -112 -20q-17 -4 -22 16l-8 33q-4 17 13 23q54 23 138 23 q46 0 75.5 -13t43 -39.5t17.5 -54.5t4 -71v-213q0 -7 -6 -13t-13 -6q-48 -45 -48 -98q0 -26 17.5 -43t44.5 -17q21 0 50 12q8 3 13.5 -1.5t5.5 -13.5v-28q0 -10 -14 -18q-28 -12 -68 -12q-50 0 -83 27t-33 79q0 35 17.5 66t34.5 45l18 14l-10 29q-53 -51 -123 -51 q-57 0 -93 36.5t-36 97.5z"/>
<glyph glyph-name="Cacute" horiz-adv-x="696" unicode="Ć" d="M336 774q-18 -8 -24 5l-14 28q-6 12 6 19l157 91q5 3 13 3q9 0 13 -6l23 -44q10 -16 -6 -24zM46 349q0 150 105.5 255.5t255.5 105.5q135 0 242 -93q7 -6 7 -14t-6 -14l-44 -45q-11 -14 -25 0q-77 67 -173 67q-106 0 -178.5 -77t-72.5 -183t73 -182.5t179 -76.5 q86 0 172 66q13 10 24 1l46 -45q5 -4 5 -12q0 -9 -6 -15q-100 -97 -243 -97q-150 0 -255.5 104.5t-105.5 254.5z"/>
<glyph glyph-name="cacute" horiz-adv-x="434" unicode="ć" d="M177 543q-18 -9 -24 4l-14 29q-6 13 6 19l157 91q4 3 13 3t13 -6l23 -44q8 -17 -6 -24zM35 199q0 87 63 149t147 62q88 0 145 -71q4 -5 4 -12q0 -10 -8 -16l-33 -30q-5 -5 -11 -5q-7 0 -16 9q-34 38 -80 38q-49 0 -82.5 -36t-33.5 -87q0 -52 33 -88t82 -36q11 0 20 1 t17.5 5t13.5 5.5t13 8t10 8t11 10.5l8 8q13 13 27 2l27 -22q11 -8 11 -18q0 -4 -4 -10q-53 -84 -155 -84q-85 0 -147 60t-62 149z"/>
<glyph glyph-name="Ccircumflex" horiz-adv-x="696" unicode="Ĉ" d="M306 769q-14 -8 -23 3l-20 27q-7 10 6 19l125 98q6 4 12 4q4 0 12 -4l125 -98q13 -9 6 -19l-20 -27q-9 -12 -23 -3l-100 65zM46 349q0 150 105.5 255.5t255.5 105.5q135 0 242 -93q7 -6 7 -14t-6 -14l-44 -45q-11 -14 -25 0q-77 67 -173 67q-106 0 -178.5 -77t-72.5 -183 t73 -182.5t179 -76.5q86 0 172 66q13 10 24 1l46 -45q5 -4 5 -12q0 -9 -6 -15q-100 -97 -243 -97q-150 0 -255.5 104.5t-105.5 254.5z"/>
<glyph glyph-name="ccircumflex" horiz-adv-x="434" unicode="ĉ" d="M122 542l-20 27q-7 10 6 19l125 98q6 4 12 4q4 0 12 -4l125 -98q13 -9 6 -19l-20 -27q-9 -12 -23 -3l-100 65l-100 -65q-14 -8 -23 3zM35 199q0 87 63 149t147 62q88 0 145 -71q4 -5 4 -12q0 -10 -8 -16l-33 -30q-5 -5 -11 -5q-7 0 -16 9q-34 38 -80 38q-49 0 -82.5 -36 t-33.5 -87q0 -52 33 -88t82 -36q11 0 20 1t17.5 5t13.5 5.5t13 8t10 8t11 10.5l8 8q13 13 27 2l27 -22q11 -8 11 -18q0 -4 -4 -10q-53 -84 -155 -84q-85 0 -147 60t-62 149z"/>
<glyph glyph-name="Cdotaccent" horiz-adv-x="696" unicode="Ċ" d="M407 788q-26 0 -45 19t-19 46t19 45.5t45 18.5q27 0 46 -18.5t19 -45.5t-19 -46t-46 -19zM46 349q0 150 105.5 255.5t255.5 105.5q135 0 242 -93q7 -6 7 -14t-6 -14l-44 -45q-11 -14 -25 0q-77 67 -173 67q-106 0 -178.5 -77t-72.5 -183t73 -182.5t179 -76.5q86 0 172 66 q13 10 24 1l46 -45q5 -4 5 -12q0 -9 -6 -15q-100 -97 -243 -97q-150 0 -255.5 104.5t-105.5 254.5z"/>
<glyph glyph-name="cdotaccent" horiz-adv-x="434" unicode="ċ" d="M245 551q-26 0 -45 19t-19 45q0 27 19 46t45 19q27 0 46 -19t19 -46q0 -26 -19 -45t-46 -19zM35 199q0 87 63 149t147 62q88 0 145 -71q4 -5 4 -12q0 -10 -8 -16l-33 -30q-5 -5 -11 -5q-7 0 -16 9q-34 38 -80 38q-49 0 -82.5 -36t-33.5 -87q0 -52 33 -88t82 -36 q11 0 20 1t17.5 5t13.5 5.5t13 8t10 8t11 10.5l8 8q13 13 27 2l27 -22q11 -8 11 -18q0 -4 -4 -10q-53 -84 -155 -84q-85 0 -147 60t-62 149z"/>
<glyph glyph-name="Ccaron" horiz-adv-x="696" unicode="Č" d="M394 768l-125 98q-13 9 -6 19l20 27q4 7 11 7q5 0 12 -4l100 -65l100 65q8 5 12 5q5 0 11 -8l20 -27q7 -10 -6 -19l-125 -98q-13 -9 -24 0zM46 349q0 150 105.5 255.5t255.5 105.5q135 0 242 -93q7 -6 7 -14t-6 -14l-44 -45q-11 -14 -25 0q-77 67 -173 67 q-106 0 -178.5 -77t-72.5 -183t73 -182.5t179 -76.5q86 0 172 66q13 10 24 1l46 -45q5 -4 5 -12q0 -9 -6 -15q-100 -97 -243 -97q-150 0 -255.5 104.5t-105.5 254.5z"/>
<glyph glyph-name="ccaron" horiz-adv-x="434" unicode="č" d="M233 535l-125 98q-13 9 -6 19l20 27q4 7 11 7q5 0 12 -4l100 -65l100 65q8 5 12 5q5 0 11 -8l20 -27q7 -10 -6 -19l-125 -98q-13 -9 -24 0zM35 199q0 87 63 149t147 62q88 0 145 -71q4 -5 4 -12q0 -10 -8 -16l-33 -30q-5 -5 -11 -5q-7 0 -16 9q-34 38 -80 38 q-49 0 -82.5 -36t-33.5 -87q0 -52 33 -88t82 -36q11 0 20 1t17.5 5t13.5 5.5t13 8t10 8t11 10.5l8 8q13 13 27 2l27 -22q11 -8 11 -18q0 -4 -4 -10q-53 -84 -155 -84q-85 0 -147 60t-62 149z"/>
<glyph glyph-name="Dcaron" horiz-adv-x="743" unicode="Ď" d="M323 768l-125 98q-13 9 -6 19l20 27q4 7 11 7q5 0 12 -4l100 -65l100 65q8 5 12 5q5 0 11 -8l20 -27q7 -10 -6 -19l-125 -98q-13 -9 -24 0zM199 95h132q110 0 182 72.5t72 183.5q0 110 -72 182t-182 72h-132v-510zM97 19v662q0 8 5.5 13.5t12.5 5.5h230q145 0 248 -102.5 t103 -246.5q0 -145 -103 -248t-248 -103h-230q-7 0 -12.5 5.5t-5.5 13.5z"/>
<glyph glyph-name="dcaron" horiz-adv-x="520" unicode="ď" d="M551 428l-14 14q-10 10 4 24q65 52 65 124q-6 -3 -21 -3q-26 0 -44 18t-18 43q0 26 18.5 44t45.5 18q31 0 53 -23t22 -75q0 -60 -27.5 -107t-59.5 -76q-13 -12 -24 -1zM129 200q0 -52 29.5 -88t76.5 -36q28 0 50.5 13.5t31.5 25t13 21.5v163q-35 24 -87 24 q-50 0 -82 -35.5t-32 -87.5zM36 200q0 88 57 149t140 61q18 0 35.5 -3t27.5 -6.5t22 -8.5l11 -4v293q0 7 5.5 13t13.5 6h58q8 0 13.5 -6t5.5 -13v-662q0 -7 -5.5 -13t-13.5 -6h-30q-13 0 -18 17l-8 29q-5 -6 -15.5 -15.5t-43.5 -25t-68 -15.5q-79 0 -133 61.5t-54 148.5z "/>
<glyph glyph-name="Dcroat" horiz-adv-x="747" unicode="Đ" d="M203 95h132q110 0 182 72.5t72 183.5q0 110 -72 182t-182 72h-132v-235h188q8 0 13.5 -5.5t5.5 -13.5v-11q0 -8 -5.5 -13t-13.5 -5h-188v-227zM101 19v303h-29q-7 0 -12.5 5.5t-5.5 13.5v10q0 8 5.5 13.5t12.5 5.5h29v311q0 8 5.5 13.5t12.5 5.5h230q145 0 248 -102.5 t103 -246.5q0 -145 -103 -248t-248 -103h-230q-7 0 -12.5 5.5t-5.5 13.5z"/>
<glyph glyph-name="dcroat" d="M129 200q0 -52 29.5 -88.5t76.5 -36.5q28 0 50.5 14t31.5 25.5t13 21.5v162q-35 23 -87 23q-50 0 -82 -34.5t-32 -86.5zM36 200q0 88 57 149t140 61q18 0 35.5 -3t27.5 -6.5t22 -8.5l11 -4v146h-135q-8 0 -13.5 5t-5.5 13v11q0 8 5.5 13.5t13.5 5.5h135v99q0 7 5.5 13 t13.5 6h58q8 0 13.5 -6t5.5 -13v-99h33q7 0 12.5 -5.5t5.5 -13.5v-10q0 -8 -5.5 -13.5t-12.5 -5.5h-33v-515q0 -7 -5.5 -13t-13.5 -6h-30q-13 0 -18 17l-8 29q-5 -6 -15.5 -15.5t-43.5 -25t-68 -15.5q-79 0 -133 61.5t-54 148.5z" unicode="đ"/>
<glyph glyph-name="Emacron" horiz-adv-x="589" unicode="Ē" d="M186 814q-8 0 -13.5 5t-5.5 13v28q0 19 19 19h256q19 0 19 -19v-28q0 -8 -5.5 -13t-13.5 -5h-256zM97 19v662q0 8 5.5 13.5t13.5 5.5h400q8 0 13.5 -5.5t5.5 -13.5v-56q0 -8 -5.5 -13.5t-13.5 -5.5h-316v-204h267q7 0 13 -6t6 -13v-56q0 -8 -5.5 -13.5t-13.5 -5.5h-267 v-215h316q8 0 13.5 -5.5t5.5 -13.5v-55q0 -8 -5.5 -13.5t-13.5 -5.5h-400q-8 0 -13.5 5.5t-5.5 13.5z"/>
<glyph glyph-name="emacron" horiz-adv-x="451" unicode="ē" d="M108 576q-8 0 -13.5 5t-5.5 13v28q0 19 19 19h256q19 0 19 -19v-28q0 -8 -5.5 -13t-13.5 -5h-256zM133 244h194q-2 36 -29 62.5t-63 26.5q-40 0 -68.5 -25.5t-33.5 -63.5zM36 200q0 87 56 148.5t144 61.5q78 0 131 -52.5t53 -132.5q0 -13 -2 -27q-2 -17 -18 -17h-272 q2 -42 35 -74.5t80 -32.5q44 0 89 29q19 11 27 1l28 -38q12 -14 -2 -26q-58 -50 -148 -50q-89 0 -145 61t-56 149z"/>
<glyph glyph-name="Ebreve" horiz-adv-x="589" unicode="Ĕ" d="M314 768q-53 0 -91.5 33t-46.5 83q-2 9 2.5 15t13.5 6h29q14 0 18 -16q19 -58 75 -58q24 0 44 17t28 41q5 16 18 16h31q9 0 13.5 -6t2.5 -15q-8 -50 -46.5 -83t-90.5 -33zM97 19v662q0 8 5.5 13.5t13.5 5.5h400q8 0 13.5 -5.5t5.5 -13.5v-56q0 -8 -5.5 -13.5t-13.5 -5.5 h-316v-204h267q7 0 13 -6t6 -13v-56q0 -8 -5.5 -13.5t-13.5 -5.5h-267v-215h316q8 0 13.5 -5.5t5.5 -13.5v-55q0 -8 -5.5 -13.5t-13.5 -5.5h-400q-8 0 -13.5 5.5t-5.5 13.5z"/>
<glyph glyph-name="ebreve" horiz-adv-x="451" unicode="ĕ" d="M237 529q-53 0 -91.5 33t-46.5 83q-3 21 16 21h29q14 0 18 -15q19 -59 75 -59q24 0 44 17t28 42q5 15 18 15h31q20 0 16 -21q-8 -50 -46.5 -83t-90.5 -33zM133 244h194q-2 36 -29 62.5t-63 26.5q-40 0 -68.5 -25.5t-33.5 -63.5zM36 200q0 87 56 148.5t144 61.5 q78 0 131 -52.5t53 -132.5q0 -13 -2 -27q-2 -17 -18 -17h-272q2 -42 35 -74.5t80 -32.5q44 0 89 29q19 11 27 1l28 -38q12 -14 -2 -26q-58 -50 -148 -50q-89 0 -145 61t-56 149z"/>
<glyph glyph-name="Edotaccent" horiz-adv-x="589" unicode="Ė" d="M318 788q-26 0 -45 19t-19 46t19 45.5t45 18.5q27 0 46 -18.5t19 -45.5t-19 -46t-46 -19zM97 19v662q0 8 5.5 13.5t13.5 5.5h400q8 0 13.5 -5.5t5.5 -13.5v-56q0 -8 -5.5 -13.5t-13.5 -5.5h-316v-204h267q7 0 13 -6t6 -13v-56q0 -8 -5.5 -13.5t-13.5 -5.5h-267v-215h316 q8 0 13.5 -5.5t5.5 -13.5v-55q0 -8 -5.5 -13.5t-13.5 -5.5h-400q-8 0 -13.5 5.5t-5.5 13.5z"/>
<glyph glyph-name="edotaccent" horiz-adv-x="451" unicode="ė" d="M237 551q-26 0 -45 19t-19 45q0 27 19 46t45 19q27 0 46 -19t19 -46q0 -26 -19 -45t-46 -19zM133 244h194q-2 36 -29 62.5t-63 26.5q-40 0 -68.5 -25.5t-33.5 -63.5zM36 200q0 87 56 148.5t144 61.5q78 0 131 -52.5t53 -132.5q0 -13 -2 -27q-2 -17 -18 -17h-272 q2 -42 35 -74.5t80 -32.5q44 0 89 29q19 11 27 1l28 -38q12 -14 -2 -26q-58 -50 -148 -50q-89 0 -145 61t-56 149z"/>
<glyph glyph-name="Eogonek" horiz-adv-x="589" unicode="Ę" d="M97 19v662q0 8 5.5 13.5t13.5 5.5h400q8 0 13.5 -5.5t5.5 -13.5v-56q0 -8 -5.5 -13.5t-13.5 -5.5h-316v-204h267q7 0 13 -6t6 -13v-56q0 -8 -5.5 -13.5t-13.5 -5.5h-267v-215h316q8 0 13.5 -5.5t5.5 -13.5v-55q0 -8 -5.5 -13.5t-13.5 -5.5q-47 -47 -47 -98 q0 -26 17.5 -43t44.5 -17q21 0 50 12q8 3 13.5 -1.5t5.5 -13.5v-28q0 -10 -14 -18q-28 -12 -68 -12q-50 0 -83 27t-33 79q0 66 55 113h-341q-8 0 -13.5 5.5t-5.5 13.5z"/>
<glyph glyph-name="eogonek" horiz-adv-x="452" unicode="ę" d="M134 244h194q-2 36 -29 62.5t-63 26.5q-40 0 -68.5 -25.5t-33.5 -63.5zM157 -113q0 57 47 106q-75 11 -121 69.5t-46 137.5q0 87 56 148.5t144 61.5q78 0 131 -52.5t53 -132.5q0 -13 -2 -27q-2 -17 -18 -17h-272q2 -42 35 -75.5t80 -33.5q45 0 88 28q20 11 27 1 q6 -7 15.5 -19t13.5 -16q12 -14 -2 -26q-50 -42 -123 -49q-39 -41 -39 -89q0 -26 17.5 -43t44.5 -17q21 0 50 12q8 3 13.5 -1.5t5.5 -13.5v-28q0 -10 -14 -18q-28 -12 -68 -12q-50 0 -83 27t-33 79z"/>
<glyph glyph-name="Ecaron" horiz-adv-x="589" unicode="Ě" d="M299 768l-125 98q-13 9 -6 19l20 27q4 7 11 7q5 0 12 -4l100 -65l100 65q8 5 12 5q5 0 11 -8l20 -27q7 -10 -6 -19l-125 -98q-13 -9 -24 0zM97 19v662q0 8 5.5 13.5t13.5 5.5h400q8 0 13.5 -5.5t5.5 -13.5v-56q0 -8 -5.5 -13.5t-13.5 -5.5h-316v-204h267q7 0 13 -6t6 -13 v-56q0 -8 -5.5 -13.5t-13.5 -5.5h-267v-215h316q8 0 13.5 -5.5t5.5 -13.5v-55q0 -8 -5.5 -13.5t-13.5 -5.5h-400q-8 0 -13.5 5.5t-5.5 13.5z"/>
<glyph glyph-name="ecaron" horiz-adv-x="451" unicode="ě" d="M223 535l-125 98q-13 9 -6 19l20 27q4 7 11 7q5 0 12 -4l100 -65l100 65q8 5 12 5q5 0 11 -8l20 -27q7 -10 -6 -19l-125 -98q-13 -9 -24 0zM133 244h194q-2 36 -29 62.5t-63 26.5q-40 0 -68.5 -25.5t-33.5 -63.5zM36 200q0 87 56 148.5t144 61.5q78 0 131 -52.5 t53 -132.5q0 -13 -2 -27q-2 -17 -18 -17h-272q2 -42 35 -74.5t80 -32.5q44 0 89 29q19 11 27 1l28 -38q12 -14 -2 -26q-58 -50 -148 -50q-89 0 -145 61t-56 149z"/>
<glyph glyph-name="Gcircumflex" horiz-adv-x="722" unicode="Ĝ" d="M305 769q-14 -8 -23 3l-20 27q-7 10 6 19l125 98q6 4 12 4q4 0 12 -4l125 -98q13 -9 6 -19l-20 -27q-9 -12 -23 -3l-100 65zM46 349q0 150 105.5 255.5t254.5 105.5q134 0 243 -93q7 -7 7 -15q0 -7 -6 -13q-7 -8 -22 -23.5t-23 -23.5q-11 -12 -26 1q-78 68 -170 68 q-105 0 -178 -77t-73 -183t73 -182.5t178 -76.5q17 0 33.5 1.5t30.5 4.5t26.5 6t23 7t17 6.5t12.5 5.5t7 3v112h-98q-8 0 -13.5 5t-5.5 13v58q0 19 19 19h182q7 0 12.5 -5.5t5.5 -13.5q0 -40 0.5 -121t0.5 -121q0 -10 -8 -16q-12 -7 -33 -18t-86 -29.5t-129 -18.5 q-150 0 -255 104.5t-105 254.5z"/>
<glyph glyph-name="gcircumflex" horiz-adv-x="460" unicode="ĝ" d="M137 542l-20 27q-7 10 6 19l125 98q6 4 12 4q4 0 12 -4l125 -98q13 -9 6 -19l-20 -27q-9 -12 -23 -3l-100 65l-100 -65q-14 -8 -23 3zM133 -157q0 -31 29 -51t75 -20q47 0 80.5 22t33.5 57q0 11 -4.5 22.5t-22.5 23t-48 11.5q-59 0 -88 -2q-55 -18 -55 -63zM239 141 q37 0 60.5 25.5t23.5 66.5t-23.5 66.5t-60.5 25.5q-38 0 -63 -26t-25 -66t25 -66t63 -26zM25 24q0 22 7.5 41.5t18 32t20.5 22t17 14.5l8 4q-31 37 -31 97q0 72 48.5 123.5t123.5 51.5h175q19 0 19 -19v-25q0 -15 -11 -17l-55 -15q5 -4 12 -11t19 -35t12 -61 q0 -66 -47.5 -114.5t-122.5 -48.5q-22 0 -42 4t-31.5 8t-13.5 4q-9 0 -25 -14t-16 -35q0 -18 13 -29.5t35 -11.5h136q68 0 112.5 -35.5t44.5 -98.5q0 -69 -58.5 -117.5t-154.5 -48.5q-98 0 -148 41t-50 96q0 59 59 94v3q-25 7 -49.5 31.5t-24.5 68.5z"/>
<glyph glyph-name="Gbreve" horiz-adv-x="722" unicode="Ğ" d="M407 768q-53 0 -91.5 33t-46.5 83q-2 9 2.5 15t13.5 6h29q14 0 18 -16q19 -58 75 -58q24 0 44 17t28 41q5 16 18 16h31q9 0 13.5 -6t2.5 -15q-8 -50 -46.5 -83t-90.5 -33zM46 349q0 150 105.5 255.5t254.5 105.5q134 0 243 -93q7 -7 7 -15q0 -7 -6 -13q-7 -8 -22 -23.5 t-23 -23.5q-11 -12 -26 1q-78 68 -170 68q-105 0 -178 -77t-73 -183t73 -182.5t178 -76.5q17 0 33.5 1.5t30.5 4.5t26.5 6t23 7t17 6.5t12.5 5.5t7 3v112h-98q-8 0 -13.5 5t-5.5 13v58q0 19 19 19h182q7 0 12.5 -5.5t5.5 -13.5q0 -40 0.5 -121t0.5 -121q0 -10 -8 -16 q-12 -7 -33 -18t-86 -29.5t-129 -18.5q-150 0 -255 104.5t-105 254.5z"/>
<glyph glyph-name="gbreve" horiz-adv-x="460" unicode="ğ" d="M260 529q-53 0 -91.5 33t-46.5 83q-4 21 16 21h29q14 0 18 -15q19 -59 75 -59q24 0 44 17t28 42q5 15 18 15h31q19 0 16 -21q-8 -50 -46.5 -83t-90.5 -33zM133 -157q0 -31 29 -51t75 -20q47 0 80.5 22t33.5 57q0 11 -4.5 22.5t-22.5 23t-48 11.5q-59 0 -88 -2 q-55 -18 -55 -63zM239 141q37 0 60.5 25.5t23.5 66.5t-23.5 66.5t-60.5 25.5q-38 0 -63 -26t-25 -66t25 -66t63 -26zM25 24q0 22 7.5 41.5t18 32t20.5 22t17 14.5l8 4q-31 37 -31 97q0 72 48.5 123.5t123.5 51.5h175q19 0 19 -19v-25q0 -15 -11 -17l-55 -15q5 -4 12 -11 t19 -35t12 -61q0 -66 -47.5 -114.5t-122.5 -48.5q-22 0 -42 4t-31.5 8t-13.5 4q-9 0 -25 -14t-16 -35q0 -18 13 -29.5t35 -11.5h136q68 0 112.5 -35.5t44.5 -98.5q0 -69 -58.5 -117.5t-154.5 -48.5q-98 0 -148 41t-50 96q0 59 59 94v3q-25 7 -49.5 31.5t-24.5 68.5z"/>
<glyph glyph-name="Gdotaccent" horiz-adv-x="722" unicode="Ġ" d="M406 788q-26 0 -45 19t-19 46t19 45.5t45 18.5q27 0 46 -18.5t19 -45.5t-19 -46t-46 -19zM46 349q0 150 105.5 255.5t254.5 105.5q134 0 243 -93q7 -7 7 -15q0 -7 -6 -13q-7 -8 -22 -23.5t-23 -23.5q-11 -12 -26 1q-78 68 -170 68q-105 0 -178 -77t-73 -183t73 -182.5 t178 -76.5q17 0 33.5 1.5t30.5 4.5t26.5 6t23 7t17 6.5t12.5 5.5t7 3v112h-98q-8 0 -13.5 5t-5.5 13v58q0 19 19 19h182q7 0 12.5 -5.5t5.5 -13.5q0 -40 0.5 -121t0.5 -121q0 -10 -8 -16q-12 -7 -33 -18t-86 -29.5t-129 -18.5q-150 0 -255 104.5t-105 254.5z"/>
<glyph glyph-name="gdotaccent" horiz-adv-x="460" unicode="ġ" d="M259 551q-26 0 -45 19t-19 45q0 27 19 46t45 19q27 0 46 -19t19 -46q0 -26 -19 -45t-46 -19zM133 -157q0 -31 29 -51t75 -20q47 0 80.5 22t33.5 57q0 11 -4.5 22.5t-22.5 23t-48 11.5q-59 0 -88 -2q-55 -18 -55 -63zM239 141q37 0 60.5 25.5t23.5 66.5t-23.5 66.5 t-60.5 25.5q-38 0 -63 -26t-25 -66t25 -66t63 -26zM25 24q0 22 7.5 41.5t18 32t20.5 22t17 14.5l8 4q-31 37 -31 97q0 72 48.5 123.5t123.5 51.5h175q19 0 19 -19v-25q0 -15 -11 -17l-55 -15q5 -4 12 -11t19 -35t12 -61q0 -66 -47.5 -114.5t-122.5 -48.5q-22 0 -42 4 t-31.5 8t-13.5 4q-9 0 -25 -14t-16 -35q0 -18 13 -29.5t35 -11.5h136q68 0 112.5 -35.5t44.5 -98.5q0 -69 -58.5 -117.5t-154.5 -48.5q-98 0 -148 41t-50 96q0 59 59 94v3q-25 7 -49.5 31.5t-24.5 68.5z"/>
<glyph glyph-name="Gcommaaccent" horiz-adv-x="722" unicode="Ģ" d="M408 -92q30 0 52 -22.5t22 -75.5q0 -60 -27.5 -107t-59.5 -76q-7 -6 -13 -6q-5 0 -10 5l-15 14q-9 11 5 24q64 51 65 124q-9 -3 -22 -3q-25 0 -43.5 18t-18.5 43q0 26 19 44t46 18zM46 349q0 150 105.5 255.5t254.5 105.5q134 0 243 -93q7 -7 7 -15q0 -7 -6 -13 q-7 -8 -22 -23.5t-23 -23.5q-11 -12 -26 1q-78 68 -170 68q-105 0 -178 -77t-73 -183t73 -182.5t178 -76.5q17 0 33.5 1.5t30.5 4.5t26.5 6t23 7t17 6.5t12.5 5.5t7 3v112h-98q-8 0 -13.5 5t-5.5 13v58q0 19 19 19h182q7 0 12.5 -5.5t5.5 -13.5q0 -40 0.5 -121t0.5 -121 q0 -10 -8 -16q-12 -7 -33 -18t-86 -29.5t-129 -18.5q-150 0 -255 104.5t-105 254.5z"/>
<glyph glyph-name="gcommaaccent" horiz-adv-x="460" unicode="ģ" d="M133 -157q0 -31 29 -51t75 -20q47 0 80.5 22t33.5 57q0 11 -4.5 22.5t-22.5 23t-48 11.5q-59 0 -88 -2q-55 -18 -55 -63zM239 141q37 0 60.5 25.5t23.5 66.5t-23.5 66.5t-60.5 25.5q-38 0 -63 -26t-25 -66t25 -66t63 -26zM25 24q0 22 7.5 41.5t18 32t20.5 22t17 14.5l8 4 q-31 37 -31 97q0 72 48.5 123.5t123.5 51.5h175q19 0 19 -19v-25q0 -15 -11 -17l-55 -15q5 -4 12 -11t19 -35t12 -61q0 -66 -47.5 -114.5t-122.5 -48.5q-22 0 -42 4t-31.5 8t-13.5 4q-9 0 -25 -14t-16 -35q0 -18 13 -29.5t35 -11.5h136q68 0 112.5 -35.5t44.5 -98.5 q0 -69 -58.5 -117.5t-154.5 -48.5q-98 0 -148 41t-50 96q0 59 59 94v3q-25 7 -49.5 31.5t-24.5 68.5zM255 529q-30 0 -52 22.5t-22 75.5q0 60 27.5 107t59.5 76q8 6 13 6t10 -5l15 -14q9 -11 -5 -24q-64 -51 -65 -124q9 3 22 3q25 0 43.5 -18t18.5 -43q0 -26 -19 -44 t-46 -18z"/>
<glyph glyph-name="Hcircumflex" horiz-adv-x="768" unicode="Ĥ" d="M289 769q-14 -8 -23 3l-20 27q-7 10 6 19l125 98q6 4 12 4q4 0 12 -4l125 -98q13 -9 6 -19l-20 -27q-9 -12 -23 -3l-100 65zM97 19v662q0 7 5.5 13t13.5 6h66q8 0 13.5 -5.5t5.5 -13.5v-279h366v279q0 8 5.5 13.5t13.5 5.5h66q8 0 13.5 -6t5.5 -13v-662q0 -7 -5.5 -13 t-13.5 -6h-66q-8 0 -13.5 5.5t-5.5 13.5v289h-366v-289q0 -8 -5.5 -13.5t-13.5 -5.5h-66q-8 0 -13.5 6t-5.5 13z"/>
<glyph glyph-name="hcircumflex" horiz-adv-x="508" unicode="ĥ" d="M-11 759l-20 27q-2 4 -2 6q0 7 8 13l125 98q6 4 12 4q4 0 12 -4l125 -98q13 -9 6 -19l-20 -27q-9 -12 -23 -3l-100 65l-100 -65q-14 -8 -23 3zM65 19v662q0 7 5.5 13t13.5 6h58q8 0 13.5 -6t5.5 -13v-314q61 43 120 43q82 0 124.5 -52.5t42.5 -137.5v-201q0 -7 -6 -13 t-13 -6h-56q-8 0 -13.5 5.5t-5.5 13.5v203q0 48 -23 74.5t-62 26.5q-40 0 -71.5 -22.5t-36.5 -40.5v-241q0 -19 -20 -19h-57q-8 0 -13.5 6t-5.5 13z"/>
<glyph glyph-name="Hbar" horiz-adv-x="768" unicode="Ħ" d="M201 402h366v132h-366v-132zM97 19v515h-24q-7 0 -12.5 5.5t-5.5 13.5v10q0 8 5.5 13.5t12.5 5.5h24v99q0 7 5.5 13t13.5 6h66q8 0 13.5 -5.5t5.5 -13.5v-99h366v99q0 8 5.5 13.5t13.5 5.5h66q8 0 13.5 -6t5.5 -13v-99h23q8 0 13.5 -5.5t5.5 -13.5v-11q0 -8 -5.5 -13 t-13.5 -5h-23v-515q0 -7 -5.5 -13t-13.5 -6h-66q-8 0 -13.5 5.5t-5.5 13.5v289h-366v-289q0 -8 -5.5 -13.5t-13.5 -5.5h-66q-8 0 -13.5 6t-5.5 13z"/>
<glyph glyph-name="hbar" horiz-adv-x="508" unicode="ħ" d="M65 19v515h-32q-7 0 -12.5 5.5t-5.5 13.5v10q0 8 5.5 13.5t12.5 5.5h32v99q0 7 5.5 13t13.5 6h58q8 0 13.5 -6t5.5 -13v-99h136q8 0 13.5 -5.5t5.5 -13.5v-11q0 -8 -5.5 -13t-13.5 -5h-136v-168l13 8q14 9 27 15.5t35.5 13t44.5 6.5q167 0 167 -211v-179q0 -7 -6 -13 t-13 -6h-56q-8 0 -13.5 5.5t-5.5 13.5v201q0 48 -23 74.5t-62 26.5q-41 0 -74.5 -22t-33.5 -38v-242q0 -19 -38 -19h-39q-8 0 -13.5 6t-5.5 13z"/>
<glyph glyph-name="Itilde" horiz-adv-x="298" unicode="Ĩ" d="M27 792l-23 15q-8 5 -8 14q0 3 2 9q42 84 98 84q25 0 45.5 -16t35.5 -32t28 -16q8 0 15 4.5t10.5 9.5t8.5 14t7 12q10 17 25 9q1 0 11.5 -7t14.5 -12q3 -4 3 -9q0 -4 -6 -18q-34 -75 -94 -75q-28 0 -61.5 32.5t-45.5 32.5q-24 0 -43 -41q-8 -18 -23 -10zM97 19v662 q0 7 5.5 13t13.5 6h66q8 0 13.5 -6t5.5 -13v-662q0 -7 -5.5 -13t-13.5 -6h-66q-8 0 -13.5 6t-5.5 13z"/>
<glyph glyph-name="itilde" horiz-adv-x="225" unicode="ĩ" d="M65 19v362q0 7 5.5 13t13.5 6h57q7 0 13 -6t6 -13v-362q0 -7 -6 -13t-13 -6h-57q-8 0 -13.5 6t-5.5 13zM-9 568l-23 15q-8 5 -8 14q0 3 2 9q42 84 98 84q25 0 45.5 -16t35.5 -32t28 -16q8 0 15 4.5t10.5 9.5t8.5 14t7 12q10 17 25 9q1 0 11.5 -7t14.5 -12q3 -4 3 -9 q0 -4 -6 -18q-34 -75 -94 -75q-28 0 -61.5 32.5t-45.5 32.5q-24 0 -43 -41q-8 -18 -23 -10z"/>
<glyph glyph-name="Imacron" horiz-adv-x="298" unicode="Ī" d="M22 814q-8 0 -13.5 5t-5.5 13v28q0 19 19 19h256q19 0 19 -19v-28q0 -8 -5.5 -13t-13.5 -5h-256zM97 19v662q0 7 5.5 13t13.5 6h66q8 0 13.5 -6t5.5 -13v-662q0 -7 -5.5 -13t-13.5 -6h-66q-8 0 -13.5 6t-5.5 13z"/>
<glyph glyph-name="imacron" horiz-adv-x="225" unicode="ī" d="M65 19v362q0 7 5.5 13t13.5 6h57q7 0 13 -6t6 -13v-362q0 -7 -6 -13t-13 -6h-57q-8 0 -13.5 6t-5.5 13zM-14 576q-8 0 -13.5 5t-5.5 13v28q0 19 19 19h256q19 0 19 -19v-28q0 -8 -5.5 -13t-13.5 -5h-256z"/>
<glyph glyph-name="Ibreve" horiz-adv-x="298" unicode="Ĭ" d="M150 768q-52 0 -95 35t-43 85q0 17 16 17h29q14 0 18 -16q19 -58 75 -58q24 0 44 17t28 41q5 16 18 16h31q16 0 16 -17q0 -50 -43 -85t-94 -35zM97 19v662q0 7 5.5 13t13.5 6h66q8 0 13.5 -6t5.5 -13v-662q0 -7 -5.5 -13t-13.5 -6h-66q-8 0 -13.5 6t-5.5 13z"/>
<glyph glyph-name="ibreve" horiz-adv-x="225" unicode="ĭ" d="M65 19v362q0 7 5.5 13t13.5 6h57q7 0 13 -6t6 -13v-362q0 -7 -6 -13t-13 -6h-57q-8 0 -13.5 6t-5.5 13zM114 529q-52 0 -95 35t-43 85q0 17 16 17h29q14 0 18 -15q19 -59 75 -59q24 0 44 17t28 42q5 15 18 15h31q16 0 16 -17q0 -50 -43 -85t-94 -35z"/>
<glyph glyph-name="Iogonek" horiz-adv-x="298" unicode="Į" d="M97 19v662q0 7 5.5 13t13.5 6h66q8 0 13.5 -6t5.5 -13v-662q0 -7 -5.5 -13t-13.5 -6h-8q-47 -47 -47 -98q0 -26 17.5 -43t44.5 -17q21 0 50 12q8 3 13.5 -1.5t5.5 -13.5v-28q0 -10 -14 -18q-28 -12 -68 -12q-50 0 -83 27t-33 79q0 66 55 113q-7 0 -12.5 5.5t-5.5 13.5z "/>
<glyph glyph-name="iogonek" horiz-adv-x="225" unicode="į" d="M65 19v362q0 7 5.5 13t13.5 6h57q7 0 13 -6t6 -13v-362q0 -7 -6 -13t-13 -6h-8q-47 -47 -47 -98q0 -26 17.5 -43t44.5 -17q21 0 50 12q8 3 13.5 -1.5t5.5 -13.5v-28q0 -10 -14 -18q-28 -12 -68 -12q-50 0 -83 27t-33 79q0 67 57 115q-11 5 -11 17zM111 563 q-24 0 -40.5 17t-16.5 41q0 25 16.5 42t40.5 17q25 0 42 -17t17 -42q0 -24 -17 -41t-42 -17z"/>
<glyph glyph-name="Idotaccent" horiz-adv-x="298" unicode="İ" d="M149 788q-26 0 -45 19t-19 46t19 45.5t45 18.5q27 0 46 -18.5t19 -45.5t-19 -46t-46 -19zM97 19v662q0 7 5.5 13t13.5 6h66q8 0 13.5 -6t5.5 -13v-662q0 -7 -5.5 -13t-13.5 -6h-66q-8 0 -13.5 6t-5.5 13z"/>
<glyph glyph-name="dotlessi" horiz-adv-x="225" unicode="ı" d="M65 19v362q0 7 5.5 13t13.5 6h57q7 0 13 -6t6 -13v-362q0 -7 -6 -13t-13 -6h-57q-8 0 -13.5 6t-5.5 13z"/>
<glyph glyph-name="IJ" horiz-adv-x="724" unicode="Ĳ" d="M295 63q-8 13 2 25l36 39q8 7 16 7q9 0 16 -9q38 -43 82 -43q41 0 71 32t30 94v473q0 8 5.5 13.5t13.5 5.5h66q8 0 13.5 -5.5t5.5 -13.5v-472q0 -102 -57.5 -160.5t-147.5 -58.5q-93 0 -152 73zM97 19v662q0 7 5.5 13t13.5 6h66q8 0 13.5 -6t5.5 -13v-662q0 -7 -5.5 -13 t-13.5 -6h-66q-8 0 -13.5 6t-5.5 13z"/>
<glyph glyph-name="ij" horiz-adv-x="473" unicode="ĳ" d="M312 -124v505q0 8 5.5 13.5t13.5 5.5h58q8 0 13.5 -5.5t5.5 -13.5v-505q0 -90 -47.5 -138t-122.5 -48q-72 0 -114 40q-12 9 -4 23l25 45q7 14 25 3q36 -25 66 -25q35 0 55.5 25.5t20.5 74.5zM359 563q-24 0 -40.5 17t-16.5 41q0 25 16.5 42t40.5 17q25 0 42 -17t17 -42 q0 -24 -17 -41t-42 -17zM65 19v362q0 7 5.5 13t13.5 6h57q7 0 13 -6t6 -13v-362q0 -7 -6 -13t-13 -6h-57q-8 0 -13.5 6t-5.5 13zM111 563q-24 0 -40.5 17t-16.5 41q0 25 16.5 42t40.5 17q25 0 42 -17t17 -42q0 -24 -17 -41t-42 -17z"/>
<glyph glyph-name="Jcircumflex" horiz-adv-x="413" unicode="Ĵ" d="M189 769q-14 -8 -23 3l-20 27q-7 10 6 19l125 98q6 4 12 4q4 0 12 -4l125 -98q8 -6 8 -13q0 -2 -2 -6l-20 -27q-9 -12 -23 -3l-100 65zM-17 63q-3 5 -3 11q0 7 5 14l36 39q8 7 16 7q9 0 16 -9q38 -43 82 -43q41 0 71 32t30 94v473q0 8 5.5 13.5t13.5 5.5h66 q8 0 13.5 -5.5t5.5 -13.5v-472q0 -102 -57.5 -160.5t-147.5 -58.5q-93 0 -152 73z"/>
<glyph glyph-name="jcircumflex" horiz-adv-x="226" unicode="ĵ" d="M-11 542l-20 27q-7 10 6 19l125 98q6 4 12 4q4 0 12 -4l125 -98q8 -6 8 -13q0 -2 -2 -6l-20 -27q-9 -12 -23 -3l-100 65l-100 -65q-14 -8 -23 3zM65 -124v505q0 8 5.5 13.5t13.5 5.5h58q8 0 13.5 -5.5t5.5 -13.5v-505q0 -90 -47.5 -138t-122.5 -48q-72 0 -114 40 q-6 4 -6 14q0 6 2 9l25 45q8 14 25 3q36 -25 66 -25q35 0 55.5 25.5t20.5 74.5z"/>
<glyph glyph-name="Kcommaaccent" horiz-adv-x="636" unicode="Ķ" d="M336 -92q30 0 52 -22.5t22 -75.5q0 -60 -27.5 -107t-59.5 -76q-7 -6 -13 -6q-5 0 -10 5l-15 14q-9 11 5 24q64 51 65 124q-9 -3 -22 -3q-25 0 -43.5 18t-18.5 43q0 26 19 44t46 18zM97 24v652q0 10 7 17t17 7h58q10 0 17 -7t7 -17v-277l282 291q8 10 19 10h75q9 0 15 -6 t6 -14q0 -9 -7 -16l-289 -294l306 -337q4 -6 4 -11q0 -8 -6 -15t-16 -7h-80q-13 0 -18 7l-291 328v-311q0 -10 -7 -17t-17 -7h-58q-10 0 -17 7t-7 17z"/>
<glyph glyph-name="kcommaaccent" horiz-adv-x="467" unicode="ķ" d="M240 -92q30 0 52 -22.5t22 -75.5q0 -60 -27.5 -107t-59.5 -76q-8 -6 -13 -6t-10 5l-15 14q-9 11 5 24q64 51 65 124q-9 -3 -22 -3q-25 0 -43.5 18t-18.5 43q0 26 19 44t46 18zM65 19v662q0 7 5.5 13t13.5 6h58q8 0 13.5 -6t5.5 -13v-433l156 140q14 12 25 12h70 q16 0 16 -15q0 -7 -5 -12l-166 -151l196 -196q5 -5 5 -12q0 -14 -16 -14h-82q-12 0 -18 8l-181 186v-175q0 -7 -5.5 -13t-13.5 -6h-58q-8 0 -13.5 6t-5.5 13z"/>
<glyph glyph-name="kgreenlandic" horiz-adv-x="472" unicode="ĸ" d="M65 19v362q0 7 5.5 13t13.5 6h58q8 0 13.5 -6t5.5 -13v-163l170 170q14 12 25 12h70q16 0 16 -15q0 -7 -5 -12l-180 -178l196 -169q5 -5 5 -12q0 -14 -16 -14h-82q-12 0 -18 8l-181 156v-145q0 -7 -5.5 -13t-13.5 -6h-58q-8 0 -13.5 6t-5.5 13z"/>
<glyph glyph-name="Lacute" horiz-adv-x="499" unicode="Ĺ" d="M80 774q-18 -8 -24 5l-14 28q-1 2 -1 6q0 9 7 13l157 91q5 3 13 3q9 0 13 -6l23 -44q10 -16 -6 -24zM97 19v662q0 8 5.5 13.5t13.5 5.5h66q8 0 13.5 -6t5.5 -13v-588h271q8 0 13.5 -5.5t5.5 -13.5v-55q0 -8 -5.5 -13.5t-13.5 -5.5h-356q-8 0 -13.5 5.5t-5.5 13.5z"/>
<glyph glyph-name="lacute" horiz-adv-x="225" unicode="ĺ" d="M42 760q-18 -9 -24 4l-14 29q-2 4 -2 7q0 8 8 12l157 91q4 3 13 3t13 -6l23 -44q2 -3 2 -10q0 -9 -8 -14zM65 19v662q0 7 5.5 13t13.5 6h57q7 0 13 -6t6 -13v-662q0 -7 -6 -13t-13 -6h-57q-8 0 -13.5 6t-5.5 13z"/>
<glyph glyph-name="Lcommaaccent" horiz-adv-x="499" unicode="Ļ" d="M294 -92q30 0 52 -22.5t22 -75.5q0 -60 -27.5 -107t-59.5 -76q-8 -6 -13 -6t-10 5l-15 14q-9 11 5 24q64 51 65 124q-9 -3 -22 -3q-25 0 -43.5 18t-18.5 43q0 26 19 44t46 18zM97 19v662q0 8 5.5 13.5t13.5 5.5h66q8 0 13.5 -6t5.5 -13v-588h271q8 0 13.5 -5.5t5.5 -13.5 v-55q0 -8 -5.5 -13.5t-13.5 -5.5h-356q-8 0 -13.5 5.5t-5.5 13.5z"/>
<glyph glyph-name="lcommaaccent" horiz-adv-x="225" unicode="ļ" d="M109 -92q30 0 52 -22.5t22 -75.5q0 -60 -27.5 -107t-59.5 -76q-8 -6 -13 -6t-10 5l-15 14q-9 11 5 24q64 51 65 124q-9 -3 -22 -3q-25 0 -43.5 18t-18.5 43q0 26 19 44t46 18zM65 19v662q0 7 5.5 13t13.5 6h57q7 0 13 -6t6 -13v-662q0 -7 -6 -13t-13 -6h-57q-8 0 -13.5 6 t-5.5 13z"/>
<glyph glyph-name="Lcaron" horiz-adv-x="499" unicode="Ľ" d="M394 710q30 0 52 -22.5t22 -75.5q0 -60 -27.5 -107t-59.5 -76q-14 -12 -23 -1l-15 14q-9 11 5 24q64 51 65 124q-9 -3 -22 -3q-25 0 -43.5 18t-18.5 43q0 26 19 44t46 18zM97 19v662q0 8 5.5 13.5t13.5 5.5h66q8 0 13.5 -6t5.5 -13v-588h271q8 0 13.5 -5.5t5.5 -13.5v-55 q0 -8 -5.5 -13.5t-13.5 -5.5h-356q-8 0 -13.5 5.5t-5.5 13.5z"/>
<glyph glyph-name="lcaron" horiz-adv-x="255" unicode="ľ" d="M286 428l-14 14q-10 10 4 24q65 52 65 124q-6 -3 -21 -3q-26 0 -44 18t-18 43q0 26 18.5 44t45.5 18q31 0 53 -23t22 -75q0 -60 -27.5 -107t-59.5 -76q-13 -12 -24 -1zM65 19v662q0 7 5.5 13t13.5 6h57q7 0 13 -6t6 -13v-662q0 -7 -6 -13t-13 -6h-57q-8 0 -13.5 6 t-5.5 13z"/>
<glyph glyph-name="Ldot" horiz-adv-x="561" unicode="Ŀ" d="M464 287q-26 0 -45 19t-19 46t19 45.5t45 18.5q27 0 46 -18.5t19 -45.5t-19 -46t-46 -19zM97 19v662q0 8 5.5 13.5t13.5 5.5h66q8 0 13.5 -6t5.5 -13v-588h271q8 0 13.5 -5.5t5.5 -13.5v-55q0 -8 -5.5 -13.5t-13.5 -5.5h-356q-8 0 -13.5 5.5t-5.5 13.5z"/>
<glyph glyph-name="ldot" horiz-adv-x="365" unicode="ŀ" d="M296 295q-26 0 -45 19t-19 45q0 27 19 46t45 19q27 0 46 -19t19 -46q0 -26 -19 -45t-46 -19zM65 19v662q0 7 5.5 13t13.5 6h57q7 0 13 -6t6 -13v-662q0 -7 -6 -13t-13 -6h-57q-8 0 -13.5 6t-5.5 13z"/>
<glyph glyph-name="Lslash" horiz-adv-x="508" unicode="Ł" d="M106 19v289l-22 -12q-6 -4 -13.5 -2t-11.5 9l-5 9q-3 4 -3 10q0 10 9 16l46 25v318q0 8 5.5 13.5t13.5 5.5h66q7 0 13 -6t6 -13v-257l99 57q16 9 26 -7l5 -9q9 -16 -7 -26l-123 -71v-275h271q8 0 13.5 -5.5t5.5 -13.5v-55q0 -8 -5.5 -13.5t-13.5 -5.5h-356 q-8 0 -13.5 5.5t-5.5 13.5z"/>
<glyph glyph-name="lslash" horiz-adv-x="246" unicode="ł" d="M80 19v297l-43 -24q-6 -4 -13.5 -2t-11.5 9l-5 9q-3 4 -3 10q0 10 9 16l67 37v310q0 7 6 13t13 6h57q8 0 13.5 -6t5.5 -13v-254l76 45q16 8 26 -7l5 -10q2 -3 2 -8q0 -11 -9 -17l-100 -58v-353q0 -7 -5.5 -13t-13.5 -6h-57q-7 0 -13 6t-6 13z"/>
<glyph glyph-name="Nacute" horiz-adv-x="775" unicode="Ń" d="M327 774q-18 -8 -24 5l-14 28q-6 12 6 19l157 91q5 3 13 3q9 0 13 -6l23 -44q10 -16 -6 -24zM97 19v673q0 7 5.5 12.5t13.5 5.5h25l434 -502h1v473q0 8 5.5 13.5t13.5 5.5h64q7 0 13 -6t6 -13v-673q0 -7 -5.5 -12.5t-13.5 -5.5h-26l-434 516h-1v-487q0 -8 -5.5 -13.5 t-13.5 -5.5h-63q-8 0 -13.5 6t-5.5 13z"/>
<glyph glyph-name="nacute" horiz-adv-x="507" unicode="ń" d="M196 543q-18 -9 -24 4l-14 29q-6 13 6 19l157 91q5 3 13 3q9 0 13 -6l23 -44q8 -17 -6 -24zM65 19v362q0 7 5.5 13t13.5 6h29q13 0 16 -12l12 -34q7 8 21.5 19t48.5 24t70 13q86 0 126.5 -52.5t40.5 -137.5v-201q0 -7 -6 -13t-13 -6h-57q-8 0 -13.5 5.5t-5.5 13.5v205 q0 48 -22 73.5t-61 25.5q-41 0 -73 -22t-38 -38v-244q0 -19 -23 -19h-52q-8 0 -13.5 6t-5.5 13z"/>
<glyph glyph-name="Ncommaaccent" horiz-adv-x="775" unicode="Ņ" d="M390 -92q30 0 52 -22.5t22 -75.5q0 -60 -27.5 -107t-59.5 -76q-8 -6 -13 -6t-10 5l-15 14q-9 11 5 24q64 51 65 124q-9 -3 -22 -3q-25 0 -43.5 18t-18.5 43q0 26 19 44t46 18zM97 19v673q0 7 5.5 12.5t13.5 5.5h25l434 -502h1v473q0 8 5.5 13.5t13.5 5.5h64q7 0 13 -6 t6 -13v-673q0 -7 -5.5 -12.5t-13.5 -5.5h-26l-434 516h-1v-487q0 -8 -5.5 -13.5t-13.5 -5.5h-63q-8 0 -13.5 6t-5.5 13z"/>
<glyph glyph-name="ncommaaccent" horiz-adv-x="508" unicode="ņ" d="M257 -92q30 0 52 -22.5t22 -75.5q0 -60 -27.5 -107t-59.5 -76q-7 -6 -13 -6q-5 0 -10 5l-15 14q-9 11 5 24q64 51 65 124q-9 -3 -22 -3q-25 0 -43.5 18t-18.5 43q0 26 19 44t46 18zM65 19v362q0 7 5.5 13t13.5 6h29q13 0 16 -12l12 -34q7 8 21.5 19t48.5 24t70 13 q86 0 126.5 -52.5t40.5 -137.5v-201q0 -7 -6 -13t-13 -6h-57q-8 0 -13.5 5.5t-5.5 13.5v205q0 48 -22 73.5t-61 25.5q-41 0 -73 -22t-38 -38v-244q0 -19 -23 -19h-52q-8 0 -13.5 6t-5.5 13z"/>
<glyph glyph-name="Ncaron" horiz-adv-x="775" unicode="Ň" d="M380 768l-125 98q-13 9 -6 19l20 27q4 7 11 7q5 0 12 -4l100 -65l100 65q8 5 12 5q5 0 11 -8l20 -27q7 -10 -6 -19l-125 -98q-13 -9 -24 0zM97 19v673q0 7 5.5 12.5t13.5 5.5h25l434 -502h1v473q0 8 5.5 13.5t13.5 5.5h64q7 0 13 -6t6 -13v-673q0 -7 -5.5 -12.5 t-13.5 -5.5h-26l-434 516h-1v-487q0 -8 -5.5 -13.5t-13.5 -5.5h-63q-8 0 -13.5 6t-5.5 13z"/>
<glyph glyph-name="ncaron" horiz-adv-x="507" unicode="ň" d="M250 535l-125 98q-13 9 -6 19l20 27q4 7 11 7q5 0 12 -4l100 -65l100 65q8 5 12 5q5 0 11 -8l20 -27q7 -10 -6 -19l-125 -98q-13 -9 -24 0zM65 19v362q0 7 5.5 13t13.5 6h29q13 0 16 -12l12 -34q7 8 21.5 19t48.5 24t70 13q86 0 126.5 -52.5t40.5 -137.5v-201 q0 -7 -6 -13t-13 -6h-57q-8 0 -13.5 5.5t-5.5 13.5v205q0 48 -22 73.5t-61 25.5q-41 0 -73 -22t-38 -38v-244q0 -19 -23 -19h-52q-8 0 -13.5 6t-5.5 13z"/>
<glyph glyph-name="napostrophe" horiz-adv-x="507" unicode="ŉ" d="M-75 710q30 0 52 -22.5t22 -75.5q0 -60 -27.5 -107t-59.5 -76q-14 -12 -23 -1l-15 14q-9 11 5 24q64 51 65 124q-9 -3 -22 -3q-25 0 -43.5 18t-18.5 43q0 26 19 44t46 18zM65 19v362q0 7 5.5 13t13.5 6h29q13 0 16 -12l12 -34q7 8 21.5 19t48.5 24t70 13 q86 0 126.5 -52.5t40.5 -137.5v-201q0 -7 -6 -13t-13 -6h-57q-8 0 -13.5 5.5t-5.5 13.5v205q0 48 -22 73.5t-61 25.5q-41 0 -73 -22t-38 -38v-244q0 -19 -23 -19h-52q-8 0 -13.5 6t-5.5 13z"/>
<glyph glyph-name="Eng" horiz-adv-x="775" unicode="Ŋ" d="M97 19v673q0 7 5.5 12.5t13.5 5.5h25l434 -502h1v473q0 8 5.5 13.5t13.5 5.5h64q7 0 13 -6t6 -13v-805q0 -90 -47.5 -138t-122.5 -48q-72 0 -114 40q-12 9 -4 23l25 45q7 14 25 3q36 -25 66 -25q74 0 74 100v180l-381 450h-1v-487q0 -8 -5.5 -13.5t-13.5 -5.5h-63 q-8 0 -13.5 6t-5.5 13z"/>
<glyph glyph-name="eng" horiz-adv-x="508" unicode="ŋ" d="M65 19v362q0 7 5.5 13t13.5 6h29q13 0 16 -12l12 -34q7 8 21.5 19t48.5 24t70 13q86 0 126.5 -52.5t40.5 -137.5v-344q0 -90 -47.5 -138t-122.5 -48q-72 0 -114 40q-12 9 -4 23l25 45q7 14 25 3q36 -25 66 -25q35 0 56 25.5t21 74.5v344q0 48 -22 73.5t-61 25.5 q-41 0 -73 -22t-38 -38v-240q0 -19 -23 -19h-52q-8 0 -13.5 6t-5.5 13z"/>
<glyph glyph-name="Omacron" horiz-adv-x="811" unicode="Ō" d="M278 814q-8 0 -13.5 5t-5.5 13v28q0 19 19 19h256q19 0 19 -19v-28q0 -8 -5.5 -13t-13.5 -5h-256zM146 349q0 -107 76 -183t183 -76t183.5 76t76.5 183t-76.5 184t-183.5 77q-106 0 -182.5 -77t-76.5 -184zM46 349q0 150 104.5 255.5t254.5 105.5t255 -105.5t105 -255.5 t-105 -254.5t-255 -104.5t-254.5 104.5t-104.5 254.5z"/>
<glyph glyph-name="omacron" horiz-adv-x="474" unicode="ō" d="M110 576q-8 0 -13.5 5t-5.5 13v28q0 19 19 19h256q19 0 19 -19v-28q0 -8 -5.5 -13t-13.5 -5h-256zM124 201q0 -52 33 -88.5t80 -36.5t80 36.5t33 88.5q0 50 -33 86t-80 36t-80 -36t-33 -86zM35 201q0 85 59 147t143 62t143 -62t59 -147q0 -87 -59 -149t-143 -62t-143 62 t-59 149z"/>
<glyph glyph-name="Obreve" horiz-adv-x="811" unicode="Ŏ" d="M406 768q-53 0 -91.5 33t-46.5 83q-2 9 2.5 15t13.5 6h29q14 0 18 -16q19 -58 75 -58q24 0 44 17t28 41q5 16 18 16h31q9 0 13.5 -6t2.5 -15q-8 -50 -46.5 -83t-90.5 -33zM146 349q0 -107 76 -183t183 -76t183.5 76t76.5 183t-76.5 184t-183.5 77q-106 0 -182.5 -77 t-76.5 -184zM46 349q0 150 104.5 255.5t254.5 105.5t255 -105.5t105 -255.5t-105 -254.5t-255 -104.5t-254.5 104.5t-104.5 254.5z"/>
<glyph glyph-name="obreve" horiz-adv-x="474" unicode="ŏ" d="M238 529q-53 0 -91.5 33t-46.5 83q-4 21 16 21h29q14 0 18 -15q19 -59 75 -59q24 0 44 17t28 42q5 15 18 15h31q19 0 16 -21q-8 -50 -46.5 -83t-90.5 -33zM124 201q0 -52 33 -88.5t80 -36.5t80 36.5t33 88.5q0 50 -33 86t-80 36t-80 -36t-33 -86zM35 201q0 85 59 147 t143 62t143 -62t59 -147q0 -87 -59 -149t-143 -62t-143 62t-59 149z"/>
<glyph glyph-name="Ohungarumlaut" horiz-adv-x="811" unicode="Ő" d="M326 768q-20 0 -20 15v2l1 2l43 141q6 19 19 19h57q21 0 21 -15q0 -4 -3 -10l-78 -139q-8 -15 -18 -15h-22zM492 768q-20 0 -20 14q0 1 0.5 2.5t0.5 2.5l43 141q6 19 19 19h57q21 0 21 -15q0 -4 -3 -10l-78 -139q-9 -15 -18 -15h-22zM146 349q0 -107 76 -183t183 -76 t183.5 76t76.5 183t-76.5 184t-183.5 77q-106 0 -182.5 -77t-76.5 -184zM46 349q0 150 104.5 255.5t254.5 105.5t255 -105.5t105 -255.5t-105 -254.5t-255 -104.5t-254.5 104.5t-104.5 254.5z"/>
<glyph glyph-name="ohungarumlaut" horiz-adv-x="474" unicode="ő" d="M147 521q-20 0 -20 15l1 2v2l44 141q6 19 19 19h57q21 0 21 -15q0 -4 -3 -10l-78 -139q-8 -15 -18 -15h-23zM313 521q-20 0 -20 14q0 1 0.5 2.5t0.5 2.5l44 141q6 19 19 19h57q21 0 21 -15q0 -5 -3 -10l-78 -139q-8 -15 -18 -15h-23zM124 201q0 -52 33 -88.5t80 -36.5 t80 36.5t33 88.5q0 50 -33 86t-80 36t-80 -36t-33 -86zM35 201q0 85 59 147t143 62t143 -62t59 -147q0 -87 -59 -149t-143 -62t-143 62t-59 149z"/>
<glyph glyph-name="OE" horiz-adv-x="970" unicode="Œ" d="M146 349q0 -107 76 -183.5t183 -76.5q43 0 73 10v500q-38 11 -73 11q-106 0 -182.5 -77t-76.5 -184zM46 349q0 150 104.5 255.5t254.5 105.5q22 0 45 -2.5t35 -5.5l12 -2h400q8 0 13.5 -5.5t5.5 -13.5v-56q0 -8 -5.5 -13.5t-13.5 -5.5h-316v-204h267q8 0 13.5 -6t5.5 -13 v-56q0 -8 -5.5 -13.5t-13.5 -5.5h-267v-215h316q8 0 13.5 -5.5t5.5 -13.5v-55q0 -8 -5.5 -13.5t-13.5 -5.5h-400q-49 -10 -92 -10q-150 0 -254.5 104.5t-104.5 254.5z"/>
<glyph glyph-name="oe" horiz-adv-x="756" unicode="œ" d="M124 202q0 -52 32.5 -89t80.5 -37q47 0 79.5 37t32.5 89q0 50 -32.5 85.5t-79.5 35.5q-48 0 -80.5 -35t-32.5 -86zM439 244h193q-1 37 -28 62t-65 25q-39 0 -67 -24.5t-33 -62.5zM35 202q0 85 59 146.5t143 61.5q91 0 151 -75q57 75 153 75q77 0 130.5 -52t53.5 -133 q0 -13 -2 -27q-2 -17 -19 -17h-270q6 -43 37.5 -75.5t75.5 -32.5q45 0 89 27q20 11 27 1q5 -6 14.5 -17.5t14.5 -17.5q11 -15 -3 -26q-56 -50 -148 -50q-94 0 -153 74q-59 -74 -151 -74q-84 0 -143 62.5t-59 149.5z"/>
<glyph glyph-name="Racute" horiz-adv-x="665" unicode="Ŕ" d="M247 774q-18 -8 -24 5l-14 28q-6 12 6 19l157 91q4 3 13 3t13 -6l23 -44q10 -16 -6 -24zM202 360h178q49 0 85.5 36.5t36.5 87.5q0 48 -36.5 83.5t-85.5 35.5h-178v-243zM97 19v662q0 8 5.5 13.5t13.5 5.5h272q90 0 154 -62.5t64 -151.5q0 -68 -40.5 -122t-107.5 -81 l137 -254q3 -5 3 -10q0 -19 -20 -19h-78q-12 0 -16 9l-133 265h-151v-255q0 -7 -6 -13t-13 -6h-65q-8 0 -13.5 5.5t-5.5 13.5z"/>
<glyph glyph-name="racute" horiz-adv-x="336" unicode="ŕ" d="M118 543q-18 -9 -24 4l-14 29q-6 13 6 19l157 91q5 3 13 3q9 0 13 -6l23 -44q8 -17 -6 -24zM65 19v362q0 7 5.5 13t13.5 6h29q13 0 17 -14l11 -34q41 58 117 58q29 0 52 -7.5t23 -21.5q0 -2 -2 -8l-24 -49q-7 -16 -24 -9q-14 7 -34 7q-26 0 -48 -12t-30 -21t-12 -16v-254 q0 -19 -27 -19h-48q-8 0 -13.5 6t-5.5 13z"/>
<glyph glyph-name="Rcommaaccent" horiz-adv-x="664" unicode="Ŗ" d="M324 -92q30 0 52 -22.5t22 -75.5q0 -60 -27.5 -107t-59.5 -76q-8 -6 -13 -6t-10 5l-15 14q-9 11 5 24q64 51 65 124q-9 -3 -22 -3q-25 0 -43.5 18t-18.5 43q0 26 19 44t46 18zM202 360h178q49 0 85.5 36.5t36.5 87.5q0 48 -36.5 83.5t-85.5 35.5h-178v-243zM97 19v662 q0 8 5.5 13.5t13.5 5.5h272q90 0 154 -62.5t64 -151.5q0 -68 -40.5 -122t-107.5 -81l137 -254q3 -5 3 -10q0 -19 -20 -19h-78q-12 0 -16 9l-133 265h-151v-255q0 -7 -6 -13t-13 -6h-65q-8 0 -13.5 5.5t-5.5 13.5z"/>
<glyph glyph-name="rcommaaccent" horiz-adv-x="336" unicode="ŗ" d="M108 -92q30 0 52 -22.5t22 -75.5q0 -60 -27.5 -107t-59.5 -76q-7 -6 -13 -6q-5 0 -10 5l-15 14q-9 11 5 24q64 51 65 124q-9 -3 -22 -3q-25 0 -43.5 18t-18.5 43q0 26 19 44t46 18zM65 19v362q0 7 5.5 13t13.5 6h29q13 0 17 -14l11 -34q41 58 117 58q29 0 52 -7.5 t23 -21.5q0 -2 -2 -8l-24 -49q-7 -16 -24 -9q-14 7 -34 7q-26 0 -48 -12t-30 -21t-12 -16v-254q0 -19 -27 -19h-48q-8 0 -13.5 6t-5.5 13z"/>
<glyph glyph-name="Rcaron" horiz-adv-x="665" unicode="Ř" d="M297 768l-125 98q-13 9 -6 19l20 27q4 7 11 7q5 0 12 -4l100 -65l100 65q8 5 12 5q5 0 11 -8l20 -27q7 -10 -6 -19l-125 -98q-13 -9 -24 0zM202 360h178q49 0 85.5 36.5t36.5 87.5q0 48 -36.5 83.5t-85.5 35.5h-178v-243zM97 19v662q0 8 5.5 13.5t13.5 5.5h272 q90 0 154 -62.5t64 -151.5q0 -68 -40.5 -122t-107.5 -81l137 -254q3 -5 3 -10q0 -19 -20 -19h-78q-12 0 -16 9l-133 265h-151v-255q0 -7 -6 -13t-13 -6h-65q-8 0 -13.5 5.5t-5.5 13.5z"/>
<glyph glyph-name="rcaron" horiz-adv-x="336" unicode="ř" d="M158 535l-125 98q-8 6 -8 13q0 2 2 6l20 27q4 7 11 7q5 0 12 -4l100 -65l100 65q8 5 12 5q5 0 11 -8l20 -27q7 -10 -6 -19l-125 -98q-13 -9 -24 0zM65 19v362q0 7 5.5 13t13.5 6h29q13 0 17 -14l11 -34q41 58 117 58q29 0 52 -7.5t23 -21.5q0 -2 -2 -8l-24 -49 q-7 -16 -24 -9q-14 7 -34 7q-26 0 -48 -12t-30 -21t-12 -16v-254q0 -19 -27 -19h-48q-8 0 -13.5 6t-5.5 13z"/>
<glyph glyph-name="Sacute" horiz-adv-x="537" unicode="Ś" d="M206 774q-18 -8 -24 5l-14 28q-6 12 6 19l157 91q5 3 13 3q9 0 13 -6l23 -44q10 -16 -6 -24zM58 69q-11 9 -11 17q0 5 5 15q5 6 13 20t13 21q10 13 21 13q6 0 13 -5q83 -69 160 -69q51 0 82 27t31 66q0 43 -36.5 75t-114.5 64q-88 37 -135 84.5t-47 127.5q0 31 12.5 62 t37 59.5t68.5 46t101 17.5q101 0 185 -59q11 -7 11 -20q0 -6 -5 -14q-4 -6 -12.5 -19t-12.5 -19q-8 -14 -22 -14q-6 0 -13 4q-88 50 -135 50q-57 0 -85 -28t-28 -62q0 -41 31 -70t96 -56q104 -42 159.5 -91.5t55.5 -132.5q0 -79 -63.5 -134t-159.5 -55q-55 0 -106.5 18 t-73 33t-35.5 28z"/>
<glyph glyph-name="sacute" horiz-adv-x="358" unicode="ś" d="M120 543q-18 -9 -24 4l-14 29q-6 13 6 19l157 91q5 3 13 3q9 0 13 -6l23 -44q8 -17 -6 -24zM47 31q-12 8 -6 21l21 39q8 15 25 5q44 -26 93 -26t49 34q0 19 -16.5 32t-60.5 33q-114 50 -114 131q0 43 35 76.5t102 33.5q70 0 118 -31q11 -7 11 -19q0 -6 -3 -10l-18 -34 q-9 -16 -26 -8q-44 21 -82 21q-45 0 -45 -30q0 -18 14.5 -28.5t49.5 -25.5q67 -29 100 -58t33 -80q0 -48 -41.5 -82.5t-106.5 -34.5q-81 0 -132 41z"/>
<glyph glyph-name="Scircumflex" horiz-adv-x="537" unicode="Ŝ" d="M167 769q-14 -8 -23 3l-20 27q-7 10 6 19l125 98q6 4 12 4q4 0 12 -4l125 -98q13 -9 6 -19l-20 -27q-9 -12 -23 -3l-100 65zM58 69q-11 9 -11 17q0 5 5 15q5 6 13 20t13 21q10 13 21 13q6 0 13 -5q83 -69 160 -69q51 0 82 27t31 66q0 43 -36.5 75t-114.5 64 q-88 37 -135 84.5t-47 127.5q0 31 12.5 62t37 59.5t68.5 46t101 17.5q101 0 185 -59q11 -7 11 -20q0 -6 -5 -14q-4 -6 -12.5 -19t-12.5 -19q-8 -14 -22 -14q-6 0 -13 4q-88 50 -135 50q-57 0 -85 -28t-28 -62q0 -41 31 -70t96 -56q104 -42 159.5 -91.5t55.5 -132.5 q0 -79 -63.5 -134t-159.5 -55q-55 0 -106.5 18t-73 33t-35.5 28z"/>
<glyph glyph-name="scircumflex" horiz-adv-x="358" unicode="ŝ" d="M55 542l-20 27q-2 4 -2 6q0 7 8 13l125 98q6 4 12 4q4 0 12 -4l125 -98q13 -9 6 -19l-20 -27q-9 -12 -23 -3l-100 65l-100 -65q-14 -8 -23 3zM47 31q-12 8 -6 21l21 39q8 15 25 5q44 -26 93 -26t49 34q0 19 -16.5 32t-60.5 33q-114 50 -114 131q0 43 35 76.5t102 33.5 q70 0 118 -31q11 -7 11 -19q0 -6 -3 -10l-18 -34q-9 -16 -26 -8q-44 21 -82 21q-45 0 -45 -30q0 -18 14.5 -28.5t49.5 -25.5q67 -29 100 -58t33 -80q0 -48 -41.5 -82.5t-106.5 -34.5q-81 0 -132 41z"/>
<glyph glyph-name="Scedilla" horiz-adv-x="539" unicode="Ş" d="M59 69q-11 9 -11 17q0 5 5 15q5 6 13.5 20t12.5 21q10 13 21 13q6 0 13 -5q83 -69 160 -69q51 0 82 27t31 66q0 43 -36.5 75t-114.5 64q-88 37 -135 84.5t-47 127.5q0 31 12.5 62t37 59.5t68.5 46t101 17.5q101 0 185 -59q11 -7 11 -20q0 -6 -5 -14l-25 -38 q-8 -14 -22 -14q-6 0 -13 4q-88 50 -135 50q-57 0 -85 -28t-28 -62q0 -41 31 -70t96 -56q104 -42 159.5 -91.5t55.5 -132.5q0 -78 -62.5 -133t-157.5 -56v-43q46 -6 73.5 -33.5t27.5 -69.5q0 -44 -30.5 -74t-74.5 -30q-46 0 -76 35q-13 15 1 27l17 14q13 9 22 -1 q14 -15 36 -15q17 0 28 12t11 30q0 47 -78 56q-17 3 -17 19v78q-40 7 -77 23.5t-54 28.5t-27 22z"/>
<glyph glyph-name="scedilla" horiz-adv-x="360" unicode="ş" d="M48 31q-12 8 -6 21l21 39q8 15 25 5q44 -26 93 -26t49 34q0 19 -16 32t-61 33q-114 50 -114 131q0 43 35 76.5t102 33.5q70 0 118 -31q11 -7 11 -19q0 -6 -3 -10l-18 -34q-9 -16 -26 -8q-44 21 -82 21q-45 0 -45 -30q0 -18 14.5 -28.5t49.5 -25.5q67 -29 100 -58t33 -80 q0 -48 -40.5 -82t-104.5 -35v-42q46 -6 73.5 -33.5t27.5 -69.5q0 -44 -30.5 -74t-74.5 -30q-46 0 -76 35q-13 15 1 27l17 14q13 9 22 -1q14 -15 36 -15q17 0 28 12t11 30q0 47 -78 56q-17 3 -17 19v78q-46 10 -75 35z"/>
<glyph glyph-name="Scaron" horiz-adv-x="537" unicode="Š" d="M254 768l-125 98q-13 9 -6 19l20 27q4 7 11 7q5 0 12 -4l100 -65l100 65q8 5 12 5q5 0 11 -8l20 -27q7 -10 -6 -19l-125 -98q-13 -9 -24 0zM58 69q-11 9 -11 17q0 5 5 15q5 6 13 20t13 21q10 13 21 13q6 0 13 -5q83 -69 160 -69q51 0 82 27t31 66q0 43 -36.5 75 t-114.5 64q-88 37 -135 84.5t-47 127.5q0 31 12.5 62t37 59.5t68.5 46t101 17.5q101 0 185 -59q11 -7 11 -20q0 -6 -5 -14q-4 -6 -12.5 -19t-12.5 -19q-8 -14 -22 -14q-6 0 -13 4q-88 50 -135 50q-57 0 -85 -28t-28 -62q0 -41 31 -70t96 -56q104 -42 159.5 -91.5 t55.5 -132.5q0 -79 -63.5 -134t-159.5 -55q-55 0 -106.5 18t-73 33t-35.5 28z"/>
<glyph glyph-name="scaron" horiz-adv-x="358" unicode="š" d="M164 535l-125 98q-8 6 -8 13q0 2 2 6l20 27q4 7 11 7q5 0 12 -4l100 -65l100 65q8 5 12 5q5 0 11 -8l20 -27q7 -10 -6 -19l-125 -98q-13 -9 -24 0zM47 31q-12 8 -6 21l21 39q8 15 25 5q44 -26 93 -26t49 34q0 19 -16.5 32t-60.5 33q-114 50 -114 131q0 43 35 76.5 t102 33.5q70 0 118 -31q11 -7 11 -19q0 -6 -3 -10l-18 -34q-9 -16 -26 -8q-44 21 -82 21q-45 0 -45 -30q0 -18 14.5 -28.5t49.5 -25.5q67 -29 100 -58t33 -80q0 -48 -41.5 -82.5t-106.5 -34.5q-81 0 -132 41z"/>
<glyph glyph-name="Tcommaaccent" d="M242 -92q30 0 52 -22.5t22 -75.5q0 -60 -27.5 -107t-59.5 -76q-7 -6 -13 -6q-5 0 -10 5l-15 14q-9 11 5 24q64 51 65 124q-9 -3 -22 -3q-25 0 -43.5 18t-18.5 43q0 26 19 44t46 18zM193 19v587h-163q-8 0 -13.5 5.5t-5.5 13.5v56q0 8 5.5 13.5t13.5 5.5h430 q8 0 13.5 -5.5t5.5 -13.5v-56q0 -8 -5.5 -13.5t-13.5 -5.5h-163v-587q0 -7 -5.5 -13t-13.5 -6h-66q-8 0 -13.5 6t-5.5 13z" unicode="Ţ"/>
<glyph glyph-name="tcommaaccent" horiz-adv-x="345" unicode="ţ" d="M190 -92q30 0 52 -22.5t22 -75.5q0 -60 -27.5 -107t-59.5 -76q-8 -6 -13 -6t-10 5l-15 14q-9 11 5 24q64 51 65 124q-9 -3 -22 -3q-25 0 -43.5 18t-18.5 43q0 26 19 44t46 18zM90 109v208h-42q-8 0 -13.5 5.5t-5.5 13.5v45q0 19 19 19h42v111q0 7 6 13t13 6l57 1 q7 0 12.5 -5.5t5.5 -13.5v-112h102q19 0 19 -19v-45q0 -8 -5.5 -13.5t-13.5 -5.5h-102v-198q0 -24 8 -32t24 -8q25 0 61 18q16 7 23 -9l18 -44q2 -6 2 -9q0 -9 -11 -15q-13 -8 -49.5 -19t-67.5 -11q-56 0 -79 30.5t-23 88.5z"/>
<glyph glyph-name="Tcaron" d="M232 768l-125 98q-13 9 -6 19l20 27q4 7 11 7q5 0 12 -4l100 -65l100 65q8 5 12 5q5 0 11 -8l20 -27q7 -10 -6 -19l-125 -98q-13 -9 -24 0zM193 19v587h-163q-8 0 -13.5 5.5t-5.5 13.5v56q0 8 5.5 13.5t13.5 5.5h430q8 0 13.5 -5.5t5.5 -13.5v-56q0 -8 -5.5 -13.5 t-13.5 -5.5h-163v-587q0 -7 -5.5 -13t-13.5 -6h-66q-8 0 -13.5 6t-5.5 13z" unicode="Ť"/>
<glyph glyph-name="tcaron" horiz-adv-x="346" unicode="ť" d="M386 428l-14 14q-10 10 4 24q65 52 65 124q-6 -3 -21 -3q-26 0 -44 18t-18 43q0 26 18.5 44t45.5 18q31 0 53 -23t22 -75q0 -60 -27.5 -107t-59.5 -76q-13 -12 -24 -1zM91 109v208h-42q-8 0 -13.5 5.5t-5.5 13.5v45q0 19 19 19h42v111q0 7 5.5 13t13.5 6l57 1 q7 0 12.5 -5.5t5.5 -13.5v-112h102q19 0 19 -19v-45q0 -8 -5.5 -13.5t-13.5 -5.5h-102v-198q0 -24 8 -32t24 -8q25 0 61 18q16 7 23 -9l18 -44q2 -6 2 -9q0 -9 -11 -15q-13 -8 -49.5 -19t-67.5 -11q-56 0 -79 30.5t-23 88.5z"/>
<glyph glyph-name="Tbar" d="M193 19v274h-105q-7 0 -12.5 5.5t-5.5 13.5v10q0 8 5.5 13.5t12.5 5.5h105v265h-163q-8 0 -13.5 5.5t-5.5 13.5v56q0 8 5.5 13.5t13.5 5.5h430q8 0 13.5 -5.5t5.5 -13.5v-56q0 -8 -5.5 -13.5t-13.5 -5.5h-163v-265h104q8 0 13.5 -5.5t5.5 -13.5v-11q0 -8 -5.5 -13 t-13.5 -5h-104v-274q0 -7 -5.5 -13t-13.5 -6h-66q-8 0 -13.5 6t-5.5 13z" unicode="Ŧ"/>
<glyph glyph-name="tbar" horiz-adv-x="346" unicode="ŧ" d="M91 109v62h-36q-7 0 -12.5 5.5t-5.5 13.5v10q0 8 5.5 13.5t12.5 5.5h36v99h-42q-8 0 -13.5 5.5t-5.5 13.5v44q0 19 19 19h42v111q0 7 5.5 13t13.5 6l57 1q7 0 12.5 -5.5t5.5 -13.5v-112h102q19 0 19 -19v-44q0 -8 -5.5 -13.5t-13.5 -5.5h-102v-99h88q8 0 13.5 -5.5 t5.5 -13.5v-11q0 -8 -5.5 -13t-13.5 -5h-88v-50q0 -24 8 -32t24 -8q29 0 61 16q16 7 23 -9l18 -44q2 -6 2 -9q0 -9 -11 -15q-13 -8 -49.5 -19t-67.5 -11q-56 0 -79 30.5t-23 88.5z"/>
<glyph glyph-name="Utilde" horiz-adv-x="721" unicode="Ũ" d="M250 792l-23 15q-13 8 -6 23q42 84 98 84q25 0 45.5 -16t35.5 -32t28 -16q8 0 15 4.5t10.5 9.5t8.5 14t7 12q10 17 25 9q1 0 11.5 -7t14.5 -12q5 -9 -3 -27q-34 -75 -94 -75q-28 0 -61.5 32.5t-45.5 32.5q-24 0 -43 -41q-8 -18 -23 -10zM89 261v420q0 7 5.5 13t13.5 6h67 q8 0 13.5 -5.5t5.5 -13.5v-413q0 -77 45.5 -127.5t120.5 -50.5q76 0 122 50t46 126v415q0 8 5.5 13.5t13.5 5.5h67q8 0 13.5 -6t5.5 -13v-420q0 -115 -77.5 -193t-195.5 -78q-117 0 -194 78t-77 193z"/>
<glyph glyph-name="utilde" horiz-adv-x="494" unicode="ũ" d="M131 568l-23 15q-13 8 -6 23q42 84 98 84q25 0 45.5 -16t35.5 -32t28 -16q8 0 15 4.5t10.5 9.5t8.5 14t7 12q10 17 25 9q1 0 11.5 -7t14.5 -12q5 -9 -3 -27q-34 -75 -94 -75q-28 0 -61.5 32.5t-45.5 32.5q-24 0 -43 -41q-8 -18 -23 -10zM60 179v202q0 7 6 13t13 6h57 q8 0 13.5 -6t5.5 -13v-205q0 -48 21.5 -74t60.5 -26t67.5 24t31.5 42v239q0 19 22 19h52q8 0 13.5 -6t5.5 -13v-362q0 -7 -5.5 -13t-13.5 -6h-28q-13 0 -18 16l-10 29l-5 -5q-5 -4 -8.5 -7t-11 -9t-14.5 -10t-18 -9t-21.5 -8t-24.5 -5t-29 -2q-85 0 -123.5 52t-38.5 137z "/>
<glyph glyph-name="Umacron" horiz-adv-x="721" unicode="Ū" d="M236 814q-8 0 -13.5 5t-5.5 13v28q0 19 19 19h256q19 0 19 -19v-28q0 -8 -5.5 -13t-13.5 -5h-256zM89 261v420q0 7 5.5 13t13.5 6h67q8 0 13.5 -5.5t5.5 -13.5v-413q0 -77 45.5 -127.5t120.5 -50.5q76 0 122 50t46 126v415q0 8 5.5 13.5t13.5 5.5h67q8 0 13.5 -6t5.5 -13 v-420q0 -115 -77.5 -193t-195.5 -78q-117 0 -194 78t-77 193z"/>
<glyph glyph-name="umacron" horiz-adv-x="494" unicode="ū" d="M123 576q-8 0 -13.5 5t-5.5 13v28q0 19 19 19h256q19 0 19 -19v-28q0 -8 -5.5 -13t-13.5 -5h-256zM60 179v202q0 7 6 13t13 6h57q8 0 13.5 -6t5.5 -13v-205q0 -48 21.5 -74t60.5 -26t67.5 24t31.5 42v239q0 19 22 19h52q8 0 13.5 -6t5.5 -13v-362q0 -7 -5.5 -13t-13.5 -6 h-28q-13 0 -18 16l-10 29l-5 -5q-5 -4 -8.5 -7t-11 -9t-14.5 -10t-18 -9t-21.5 -8t-24.5 -5t-29 -2q-85 0 -123.5 52t-38.5 137z"/>
<glyph glyph-name="Ubreve" horiz-adv-x="721" unicode="Ŭ" d="M367 768q-53 0 -91.5 33t-46.5 83q-2 9 2.5 15t13.5 6h29q14 0 18 -16q19 -58 75 -58q24 0 44 17t28 41q5 16 18 16h31q9 0 13.5 -6t2.5 -15q-8 -50 -46.5 -83t-90.5 -33zM89 261v420q0 7 5.5 13t13.5 6h67q8 0 13.5 -5.5t5.5 -13.5v-413q0 -77 45.5 -127.5t120.5 -50.5 q76 0 122 50t46 126v415q0 8 5.5 13.5t13.5 5.5h67q8 0 13.5 -6t5.5 -13v-420q0 -115 -77.5 -193t-195.5 -78q-117 0 -194 78t-77 193z"/>
<glyph glyph-name="ubreve" horiz-adv-x="494" unicode="ŭ" d="M251 529q-53 0 -91.5 33t-46.5 83q-3 21 16 21h29q14 0 18 -15q19 -59 75 -59q24 0 44 17t28 42q5 15 18 15h31q20 0 16 -21q-8 -50 -46.5 -83t-90.5 -33zM60 179v202q0 7 6 13t13 6h57q8 0 13.5 -6t5.5 -13v-205q0 -48 21.5 -74t60.5 -26t67.5 24t31.5 42v239 q0 19 22 19h52q8 0 13.5 -6t5.5 -13v-362q0 -7 -5.5 -13t-13.5 -6h-28q-13 0 -18 16l-10 29l-5 -5q-5 -4 -8.5 -7t-11 -9t-14.5 -10t-18 -9t-21.5 -8t-24.5 -5t-29 -2q-85 0 -123.5 52t-38.5 137z"/>
<glyph glyph-name="Uring" horiz-adv-x="721" unicode="Ů" d="M363 811q21 0 37 17t16 39t-15.5 37.5t-37.5 15.5q-23 0 -39.5 -15.5t-16.5 -37.5t16.5 -39t39.5 -17zM363 756q-47 0 -79 32t-32 79t32 79t79 32q46 0 78.5 -32.5t32.5 -78.5t-32.5 -78.5t-78.5 -32.5zM89 261v420q0 7 5.5 13t13.5 6h67q8 0 13.5 -5.5t5.5 -13.5v-413 q0 -77 45.5 -127.5t120.5 -50.5q76 0 122 50t46 126v415q0 8 5.5 13.5t13.5 5.5h67q8 0 13.5 -6t5.5 -13v-420q0 -115 -77.5 -193t-195.5 -78q-117 0 -194 78t-77 193z"/>
<glyph glyph-name="uring" horiz-adv-x="494" unicode="ů" d="M247 543q21 0 37 17t16 39t-15.5 37.5t-37.5 15.5q-24 0 -40 -15.5t-16 -37.5t16 -39t40 -17zM247 488q-47 0 -79 32t-32 79t32 79t79 32q46 0 78.5 -32.5t32.5 -78.5t-32.5 -78.5t-78.5 -32.5zM60 179v202q0 7 6 13t13 6h57q8 0 13.5 -6t5.5 -13v-205q0 -48 21.5 -74 t60.5 -26t67.5 24t31.5 42v239q0 19 22 19h52q8 0 13.5 -6t5.5 -13v-362q0 -7 -5.5 -13t-13.5 -6h-28q-13 0 -18 16l-10 29l-5 -5q-5 -4 -8.5 -7t-11 -9t-14.5 -10t-18 -9t-21.5 -8t-24.5 -5t-29 -2q-85 0 -123.5 52t-38.5 137z"/>
<glyph glyph-name="Uhungarumlaut" horiz-adv-x="721" unicode="Ű" d="M270 768q-20 0 -20 15v2l1 2l43 141q6 19 19 19h57q21 0 21 -15q0 -4 -3 -10l-78 -139q-8 -15 -18 -15h-22zM436 768q-20 0 -20 14q0 1 0.5 2.5t0.5 2.5l43 141q6 19 19 19h57q21 0 21 -15q0 -4 -3 -10l-78 -139q-9 -15 -18 -15h-22zM89 261v420q0 7 5.5 13t13.5 6h67 q8 0 13.5 -5.5t5.5 -13.5v-413q0 -77 45.5 -127.5t120.5 -50.5q76 0 122 50t46 126v415q0 8 5.5 13.5t13.5 5.5h67q8 0 13.5 -6t5.5 -13v-420q0 -115 -77.5 -193t-195.5 -78q-117 0 -194 78t-77 193z"/>
<glyph glyph-name="uhungarumlaut" horiz-adv-x="494" unicode="ű" d="M157 521q-20 0 -20 15l1 2v2l44 141q6 19 19 19h57q21 0 21 -15q0 -4 -3 -10l-78 -139q-8 -15 -18 -15h-23zM323 521q-20 0 -20 14q0 1 0.5 2.5t0.5 2.5l44 141q6 19 19 19h57q21 0 21 -15q0 -5 -3 -10l-78 -139q-8 -15 -18 -15h-23zM60 179v202q0 7 6 13t13 6h57 q8 0 13.5 -6t5.5 -13v-205q0 -48 21.5 -74t60.5 -26t67.5 24t31.5 42v239q0 19 22 19h52q8 0 13.5 -6t5.5 -13v-362q0 -7 -5.5 -13t-13.5 -6h-28q-13 0 -18 16l-10 29l-5 -5q-5 -4 -8.5 -7t-11 -9t-14.5 -10t-18 -9t-21.5 -8t-24.5 -5t-29 -2q-85 0 -123.5 52t-38.5 137z "/>
<glyph glyph-name="Uogonek" horiz-adv-x="724" unicode="Ų" d="M90 261v420q0 7 6 13t13 6h67q8 0 13.5 -5.5t5.5 -13.5v-413q0 -77 45.5 -127.5t120.5 -50.5q76 0 122 50t46 126v415q0 8 5.5 13.5t13.5 5.5h67q7 0 13 -6t6 -13v-420q0 -110 -71 -186.5t-182 -83.5q-38 -42 -38 -89q0 -26 17.5 -43t44.5 -17q21 0 50 12q8 3 13.5 -1.5 t5.5 -13.5v-28q0 -10 -14 -18q-28 -12 -68 -12q-50 0 -83 27t-33 79q0 57 47 106q-103 13 -168 88t-65 180z"/>
<glyph glyph-name="uogonek" horiz-adv-x="493" unicode="ų" d="M59 179v202q0 7 5.5 13t13.5 6h57q7 0 13 -6t6 -13v-201q0 -48 21.5 -74t60.5 -26t67.5 24t31.5 42v235q0 19 22 19h52q7 0 13 -6t6 -13v-362q0 -17 -18 -19q-47 -47 -47 -98q0 -26 17.5 -43t44.5 -17q21 0 50 12q8 3 13.5 -1.5t5.5 -13.5v-28q0 -10 -14 -18 q-28 -12 -68 -12q-50 0 -83 27t-33 79q0 67 68 124l-11 34l-5 -5q-5 -4 -8.5 -7t-11 -9t-14.5 -10t-18 -9t-21.5 -8t-24.5 -5t-29 -2q-85 0 -123.5 52t-38.5 137z"/>
<glyph glyph-name="Wcircumflex" horiz-adv-x="900" unicode="Ŵ" d="M349 769q-14 -8 -23 3l-20 27q-7 10 6 19l125 98q6 4 12 4q4 0 12 -4l125 -98q13 -9 6 -19l-20 -27q-9 -12 -23 -3l-100 65zM222 4l-189 672q-1 2 -1 7q0 17 19 17h67q14 0 18 -14l121 -459h4l163 472q4 11 17 11h18q13 0 17 -11l165 -472h4l119 459q4 14 18 14h67 q19 0 19 -17q0 -5 -1 -7l-189 -672q-4 -14 -18 -14h-16q-13 0 -17 11l-176 497h-5l-173 -497q-4 -11 -17 -11h-16q-14 0 -18 14z"/>
<glyph glyph-name="wcircumflex" horiz-adv-x="613" unicode="ŵ" d="M184 542l-20 27q-7 10 6 19l125 98q6 4 12 4q4 0 12 -4l125 -98q13 -9 6 -19l-20 -27q-9 -12 -23 -3l-100 65l-100 -65q-14 -8 -23 3zM146 0l-119 377q-2 3 -2 9q0 14 16 14h54q15 0 18 -12l67 -221h1l107 233q4 10 17 10h6q13 0 17 -10l106 -234h1l66 222q5 12 31 12h39 q17 0 17 -14q0 -3 -2 -9l-117 -377q-3 -10 -18 -10h-4q-13 0 -17 9l-123 267h-1l-122 -267q-4 -9 -16 -9h-5q-14 0 -17 10z"/>
<glyph glyph-name="Ycircumflex" horiz-adv-x="574" unicode="Ŷ" d="M187 769q-14 -8 -23 3l-20 27q-7 10 6 19l125 98q6 4 12 4q4 0 12 -4l125 -98q13 -9 6 -19l-20 -27q-9 -12 -23 -3l-100 65zM234 19v318l-234 334q-3 5 -3 11q0 18 19 18h74q9 0 16 -9l181 -255l181 255q7 9 16 9h75q19 0 19 -18q0 -6 -3 -11l-237 -333v-319q0 -7 -6 -13 t-13 -6h-66q-8 0 -13.5 5.5t-5.5 13.5z"/>
<glyph glyph-name="ycircumflex" horiz-adv-x="463" unicode="ŷ" d="M113 542l-20 27q-7 10 6 19l125 98q6 4 12 4q4 0 12 -4l125 -98q13 -9 6 -19l-20 -27q-9 -12 -23 -3l-100 65l-100 -65q-14 -8 -23 3zM185 14l-174 360q-2 6 -2 9q0 17 19 17h66q12 0 17 -11l124 -266h1l120 266q5 11 21 11h57q9 0 14.5 -5t5.5 -12q0 -5 -3 -9l-306 -662 q-6 -12 -17 -12h-60q-19 0 -19 17q0 7 2 10z"/>
<glyph glyph-name="Ydieresis" horiz-adv-x="574" unicode="Ÿ" d="M171 782q-23 0 -39.5 17t-16.5 40t16.5 39.5t39.5 16.5t40 -16.5t17 -39.5t-17 -40t-40 -17zM400 782q-23 0 -39.5 17t-16.5 40t16.5 39.5t39.5 16.5t40 -16.5t17 -39.5t-17 -40t-40 -17zM234 19v318l-234 334q-3 5 -3 11q0 18 19 18h74q9 0 16 -9l181 -255l181 255 q7 9 16 9h75q19 0 19 -18q0 -6 -3 -11l-237 -333v-319q0 -7 -6 -13t-13 -6h-66q-8 0 -13.5 5.5t-5.5 13.5z"/>
<glyph glyph-name="Zacute" horiz-adv-x="535" unicode="Ź" d="M212 774q-18 -8 -24 5l-14 28q-6 12 6 19l157 91q5 3 13 3q9 0 13 -6l23 -44q10 -16 -6 -24zM27 19v18l330 563v4h-282q-7 0 -13 6t-6 13v58q0 7 6 13t13 6h411q8 0 13.5 -6t5.5 -13v-13l-331 -572v-1h292q8 0 13.5 -5.5t5.5 -13.5v-57q0 -8 -5.5 -13.5t-13.5 -5.5h-420 q-8 0 -13.5 6t-5.5 13z"/>
<glyph glyph-name="zacute" horiz-adv-x="364" unicode="ź" d="M122 543q-18 -9 -24 4l-14 29q-6 13 6 19l157 91q5 3 13 3q9 0 13 -6l23 -44q8 -17 -6 -24zM32 19v10l170 285v1h-142q-7 0 -12.5 5.5t-5.5 13.5v47q0 8 5 13.5t13 5.5h258q8 0 14 -5.5t6 -12.5q0 -4 -3 -9l-169 -288v-1h132q19 0 19 -19v-46q0 -8 -5.5 -13.5t-13.5 -5.5 h-247q-7 0 -13 6t-6 13z"/>
<glyph glyph-name="Zdotaccent" horiz-adv-x="535" unicode="Ż" d="M277 788q-26 0 -45 19t-19 46t19 45.5t45 18.5q27 0 46 -18.5t19 -45.5t-19 -46t-46 -19zM27 19v18l330 563v4h-282q-7 0 -13 6t-6 13v58q0 7 6 13t13 6h411q8 0 13.5 -6t5.5 -13v-13l-331 -572v-1h292q8 0 13.5 -5.5t5.5 -13.5v-57q0 -8 -5.5 -13.5t-13.5 -5.5h-420 q-8 0 -13.5 6t-5.5 13z"/>
<glyph glyph-name="zdotaccent" horiz-adv-x="364" unicode="ż" d="M190 551q-26 0 -45 19t-19 45q0 27 19 46t45 19q27 0 46 -19t19 -46q0 -26 -19 -45t-46 -19zM32 19v10l170 285v1h-142q-7 0 -12.5 5.5t-5.5 13.5v47q0 8 5 13.5t13 5.5h258q8 0 14 -5.5t6 -12.5q0 -4 -3 -9l-169 -288v-1h132q19 0 19 -19v-46q0 -8 -5.5 -13.5 t-13.5 -5.5h-247q-7 0 -13 6t-6 13z"/>
<glyph glyph-name="Zcaron" horiz-adv-x="535" unicode="Ž" d="M264 768l-125 98q-13 9 -6 19l20 27q4 7 11 7q5 0 12 -4l100 -65l100 65q8 5 12 5q5 0 11 -8l20 -27q7 -10 -6 -19l-125 -98q-13 -9 -24 0zM27 19v18l330 563v4h-282q-7 0 -13 6t-6 13v58q0 7 6 13t13 6h411q8 0 13.5 -6t5.5 -13v-13l-331 -572v-1h292q8 0 13.5 -5.5 t5.5 -13.5v-57q0 -8 -5.5 -13.5t-13.5 -5.5h-420q-8 0 -13.5 6t-5.5 13z"/>
<glyph glyph-name="zcaron" horiz-adv-x="364" unicode="ž" d="M183 535l-125 98q-13 9 -6 19l20 27q4 7 11 7q5 0 12 -4l100 -65l100 65q8 5 12 5q5 0 11 -8l20 -27q2 -4 2 -6q0 -7 -8 -13l-125 -98q-13 -9 -24 0zM32 19v10l170 285v1h-142q-7 0 -12.5 5.5t-5.5 13.5v47q0 8 5 13.5t13 5.5h258q8 0 14 -5.5t6 -12.5q0 -4 -3 -9 l-169 -288v-1h132q19 0 19 -19v-46q0 -8 -5.5 -13.5t-13.5 -5.5h-247q-7 0 -13 6t-6 13z"/>
<glyph glyph-name="florin" horiz-adv-x="346" unicode="ƒ" d="M106 -124v442h-68q-8 0 -13.5 5.5t-5.5 13.5v44q0 19 19 19h68v124q0 89 49 137.5t124 48.5q63 0 111 -40q6 -6 6 -15q0 -5 -2 -9l-27 -44q-9 -14 -25 -3q-30 23 -63 23t-54.5 -24.5t-21.5 -73.5v-124h108q19 0 19 -19v-44q0 -8 -5.5 -13.5t-13.5 -5.5h-108v-443 q0 -89 -48.5 -137t-124.5 -48q-66 0 -111 40q-6 6 -6 15q0 4 2 8l27 44q10 15 25 3q30 -23 63 -23t54.5 24.5t21.5 74.5z"/>
<glyph glyph-name="Aringacute" horiz-adv-x="662" unicode="Ǻ" d="M206 238h250l-123 274h-5zM333 715q21 0 37 17t16 39t-15.5 37.5t-37.5 15.5q-23 0 -39.5 -15.5t-16.5 -37.5t16.5 -39t39.5 -17zM20 0q-19 0 -19 17q0 3 2 9l292 640q-33 12 -53 40.5t-20 64.5q0 47 32 79t79 32q46 0 78.5 -32.5t32.5 -78.5q0 -36 -21 -65t-54 -40 l290 -640q2 -6 2 -9q0 -17 -19 -17h-63q-16 0 -23 15l-62 137h-327l-61 -137q-6 -15 -23 -15h-63zM241 893l-14 28q-1 2 -1 6q0 9 7 13l157 91q4 3 13 3t13 -6l23 -44q3 -4 3 -10q0 -9 -9 -14l-168 -72q-7 -3 -12 -3q-9 0 -12 8z"/>
<glyph glyph-name="aringacute" horiz-adv-x="422" unicode="ǻ" d="M145 660q-18 -9 -24 4l-14 29q-6 13 6 19l157 91q4 3 13 3t13 -6l23 -44q8 -17 -6 -24zM214 485q21 0 37 17t16 39t-15.5 37.5t-37.5 15.5q-24 0 -40 -15.5t-16 -37.5t16 -39t40 -17zM214 430q-46 0 -78.5 32t-32.5 79t32.5 79t78.5 32t78.5 -32.5t32.5 -78.5 t-32.5 -78.5t-78.5 -32.5zM123 125q0 -28 17 -46t44 -18q28 0 54 16t36 34v64q-24 16 -70 16q-36 0 -58.5 -18t-22.5 -48zM36 124q0 56 42.5 92.5t117.5 36.5q19 0 38.5 -3t29.5 -6l11 -3v7q0 45 -13 63t-49 18q-49 0 -112 -18q-17 -4 -22 16l-8 37q-4 17 13 23 q54 23 138 23q46 0 75.5 -13t43 -39.5t17.5 -54.5t4 -71v-213q0 -7 -6 -13t-13 -6h-28q-11 0 -17 14l-10 27q-53 -51 -123 -51q-57 0 -93 36.5t-36 97.5z"/>
<glyph glyph-name="AEacute" horiz-adv-x="897" unicode="Ǽ" d="M544 775q-18 -8 -24 5l-14 28q-6 12 6 19l157 91q5 3 13 3q9 0 13 -6l23 -44q10 -16 -6 -24zM234 238h170v274zM3 0q-16 0 -16 14q0 7 4 12l401 643q15 24 25 28q7 3 19 3h388q8 0 13.5 -5.5t5.5 -13.5v-56q0 -8 -5.5 -13.5t-13.5 -5.5h-320v-204h271q7 0 13 -6t6 -13 v-56q0 -8 -5.5 -13.5t-13.5 -5.5h-271v-215h320q8 0 13.5 -5.5t5.5 -13.5v-55q0 -8 -5.5 -13.5t-13.5 -5.5h-401q-8 0 -13.5 5.5t-5.5 13.5v133h-222l-87 -139q-9 -13 -22 -13h-70z"/>
<glyph glyph-name="aeacute" horiz-adv-x="677" unicode="ǽ" d="M332 543q-18 -9 -24 4l-14 29q-6 13 6 19l157 91q5 3 13 3q9 0 13 -6l23 -44q8 -17 -6 -24zM123 126q0 -30 20 -46.5t48 -16.5q47 0 82 46v72q-28 10 -73 10q-32 0 -54.5 -17.5t-22.5 -47.5zM355 245h198q-1 37 -28 62.5t-65 25.5q-40 0 -70.5 -25.5t-34.5 -62.5zM36 125 q0 57 41 92.5t111 35.5l84 -6q-1 50 -11.5 68.5t-44.5 18.5q-48 0 -118 -20q-7 -1 -13.5 3t-8.5 12l-7 40q-1 15 16 20q69 21 138 21q89 0 117 -47q53 47 122 47q77 0 130.5 -52t53.5 -133q0 -44 -21 -44h-275q2 -43 35 -75.5t83 -32.5q45 0 89 27q20 11 27 1 q5 -6 14.5 -17.5t14.5 -17.5q11 -15 -3 -26q-58 -50 -148 -50q-94 0 -147 68q-20 -26 -58.5 -47t-85.5 -21q-60 0 -97.5 37t-37.5 98z"/>
<glyph glyph-name="Oslashacute" horiz-adv-x="811" unicode="Ǿ" d="M336 774q-18 -8 -24 5l-14 28q-6 12 6 19l157 91q5 3 13 3q9 0 13 -6l23 -44q10 -16 -6 -24zM240 149q72 -59 165 -59q107 0 183.5 76t76.5 183q0 96 -60 165zM207 183l365 366q-74 61 -167 61q-106 0 -182.5 -77t-76.5 -184q0 -94 61 -166zM72 22q-14 14 -1 26l63 63 q-88 101 -88 238q0 150 104.5 255.5t254.5 105.5q135 0 238 -90l66 65q13 13 26 0l7 -7q13 -13 0 -26l-65 -66q88 -103 88 -237q0 -150 -105 -254.5t-255 -104.5q-137 0 -237 87l-63 -63q-13 -12 -26 1z"/>
<glyph glyph-name="oslashacute" horiz-adv-x="473" unicode="ǿ" d="M172 98q28 -22 65 -22q47 0 79.5 37t32.5 89q0 34 -15 61zM140 136l162 164q-28 23 -65 23q-47 0 -79.5 -35.5t-32.5 -85.5q0 -39 15 -66zM59 26q-14 13 -1 26l19 19q-41 57 -41 131q0 85 58.5 146.5t142.5 61.5q71 0 127 -48l24 23q5 6 13 6t13 -6l8 -7q6 -5 6 -13 t-6 -13l-25 -25q41 -55 41 -125q0 -87 -59 -149.5t-142 -62.5q-73 0 -127 46l-18 -18q-12 -12 -27 1zM166 543q-7 -4 -13 -4q-8 0 -11 8l-14 29q-2 4 -2 7q0 8 8 12l157 91q5 3 13 3q9 0 13 -6l23 -44q2 -3 2 -10q0 -9 -8 -14z"/>
<glyph glyph-name="Scommaaccent" horiz-adv-x="537" unicode="Ș" d="M279 -92q30 0 52 -22.5t22 -75.5q0 -60 -27.5 -107t-59.5 -76q-8 -6 -13 -6t-10 5l-15 14q-9 11 5 24q64 51 65 124q-9 -3 -22 -3q-25 0 -43.5 18t-18.5 43q0 26 19 44t46 18zM58 69q-11 9 -11 17q0 5 5 15q5 6 13 20t13 21q10 13 21 13q6 0 13 -5q83 -69 160 -69 q51 0 82 27t31 66q0 43 -36.5 75t-114.5 64q-88 37 -135 84.5t-47 127.5q0 31 12.5 62t37 59.5t68.5 46t101 17.5q101 0 185 -59q11 -7 11 -20q0 -6 -5 -14q-4 -6 -12.5 -19t-12.5 -19q-8 -14 -22 -14q-6 0 -13 4q-88 50 -135 50q-57 0 -85 -28t-28 -62q0 -41 31 -70t96 -56 q104 -42 159.5 -91.5t55.5 -132.5q0 -79 -63.5 -134t-159.5 -55q-55 0 -106.5 18t-73 33t-35.5 28z"/>
<glyph glyph-name="scommaaccent" horiz-adv-x="358" unicode="ș" d="M183 -92q30 0 52 -22.5t22 -75.5q0 -60 -27.5 -107t-59.5 -76q-8 -6 -13 -6t-10 5l-15 14q-9 11 5 24q64 51 65 124q-9 -3 -22 -3q-25 0 -43.5 18t-18.5 43q0 26 19 44t46 18zM47 31q-12 8 -6 21l21 39q8 15 25 5q44 -26 93 -26t49 34q0 19 -16.5 32t-60.5 33 q-114 50 -114 131q0 43 35 76.5t102 33.5q70 0 118 -31q11 -7 11 -19q0 -6 -3 -10l-18 -34q-9 -16 -26 -8q-44 21 -82 21q-45 0 -45 -30q0 -18 14.5 -28.5t49.5 -25.5q67 -29 100 -58t33 -80q0 -48 -41.5 -82.5t-106.5 -34.5q-81 0 -132 41z"/>
<glyph glyph-name="uni021A" d="M242 -92q30 0 52 -22.5t22 -75.5q0 -60 -27.5 -107t-59.5 -76q-7 -6 -13 -6q-5 0 -10 5l-15 14q-9 11 5 24q64 51 65 124q-9 -3 -22 -3q-25 0 -43.5 18t-18.5 43q0 26 19 44t46 18zM193 19v587h-163q-8 0 -13.5 5.5t-5.5 13.5v56q0 8 5.5 13.5t13.5 5.5h430 q8 0 13.5 -5.5t5.5 -13.5v-56q0 -8 -5.5 -13.5t-13.5 -5.5h-163v-587q0 -7 -5.5 -13t-13.5 -6h-66q-8 0 -13.5 6t-5.5 13z" unicode="Ț"/>
<glyph glyph-name="uni021B" horiz-adv-x="345" unicode="ț" d="M190 -92q30 0 52 -22.5t22 -75.5q0 -60 -27.5 -107t-59.5 -76q-8 -6 -13 -6t-10 5l-15 14q-9 11 5 24q64 51 65 124q-9 -3 -22 -3q-25 0 -43.5 18t-18.5 43q0 26 19 44t46 18zM90 109v208h-42q-8 0 -13.5 5.5t-5.5 13.5v45q0 19 19 19h42v111q0 7 6 13t13 6l57 1 q7 0 12.5 -5.5t5.5 -13.5v-112h102q19 0 19 -19v-45q0 -8 -5.5 -13.5t-13.5 -5.5h-102v-198q0 -24 8 -32t24 -8q25 0 61 18q16 7 23 -9l18 -44q2 -6 2 -9q0 -9 -11 -15q-13 -8 -49.5 -19t-67.5 -11q-56 0 -79 30.5t-23 88.5z"/>
<glyph glyph-name="dotlessj" horiz-adv-x="226" unicode="ȷ" d="M65 -124v505q0 8 5.5 13.5t13.5 5.5h58q8 0 13.5 -5.5t5.5 -13.5v-505q0 -90 -47.5 -138t-122.5 -48q-72 0 -114 40q-6 4 -6 14q0 6 2 9l25 45q8 14 25 3q36 -25 66 -25q35 0 55.5 25.5t20.5 74.5z"/>
<glyph glyph-name="circumflex" horiz-adv-x="373" unicode="ˆ" d="M61 542l-20 27q-2 4 -2 6q0 7 8 13l125 98q6 4 12 4q4 0 12 -4l125 -98q8 -6 8 -13q0 -2 -2 -6l-20 -27q-6 -8 -11 -8q-4 0 -12 5l-100 65l-100 -65q-7 -4 -12 -4q-7 0 -11 7z"/>
<glyph glyph-name="caron" horiz-adv-x="373" unicode="ˇ" d="M172 535l-125 98q-8 6 -8 13q0 2 2 6l20 27q4 7 11 7q5 0 12 -4l100 -65l100 65q8 5 12 5q5 0 11 -8l20 -27q2 -4 2 -6q0 -7 -8 -13l-125 -98q-8 -4 -12 -4q-6 0 -12 4z"/>
<glyph glyph-name="uni02C9" horiz-adv-x="414" unicode="ˉ" d="M79 576q-8 0 -13.5 5t-5.5 13v28q0 19 19 19h256q19 0 19 -19v-28q0 -8 -5.5 -13t-13.5 -5h-256z"/>
<glyph glyph-name="breve" horiz-adv-x="346" unicode="˘" d="M173 529q-52 0 -95 35t-43 85q0 17 16 17h29q14 0 18 -15q19 -59 75 -59q24 0 44 17t28 42q5 15 18 15h31q16 0 16 -17q0 -50 -43 -85t-94 -35z"/>
<glyph glyph-name="dotaccent" horiz-adv-x="219" unicode="˙" d="M108 551q-26 0 -45 19t-19 45q0 27 19 46t45 19q27 0 46 -19t19 -46q0 -26 -19 -45t-46 -19z"/>
<glyph glyph-name="ring" horiz-adv-x="290" unicode="˚" d="M145 543q21 0 37 17t16 39t-15.5 37.5t-37.5 15.5q-24 0 -40 -15.5t-16 -37.5t16 -39t40 -17zM145 488q-47 0 -79 32t-32 79t32 79t79 32q46 0 78.5 -32.5t32.5 -78.5t-32.5 -78.5t-78.5 -32.5z"/>
<glyph glyph-name="ogonek" horiz-adv-x="276" unicode="˛" d="M109 12h58q-7 -5 -17 -14.5t-27 -38.5t-17 -57q0 -26 17.5 -43t44.5 -17q21 0 50 12q8 3 13.5 -1.5t5.5 -13.5v-28q0 -10 -14 -18q-28 -12 -68 -12q-50 0 -83 27t-33 79q0 35 17.5 66t35.5 45z"/>
<glyph glyph-name="tilde" horiz-adv-x="380" unicode="˜" d="M67 568l-23 15q-8 5 -8 14q0 3 2 9q42 84 98 84q25 0 45.5 -16t35.5 -32t28 -16q8 0 15 4.5t10.5 9.5t8.5 14t7 12q10 17 25 9q1 0 11.5 -7t14.5 -12q3 -4 3 -9q0 -4 -6 -18q-34 -75 -94 -75q-28 0 -61.5 32.5t-45.5 32.5q-24 0 -43 -41q-8 -18 -23 -10z"/>
<glyph glyph-name="hungarumlaut" horiz-adv-x="392" unicode="˝" d="M66 521q-20 0 -20 15v2q1 1 1 2l44 141q6 19 19 19h57q21 0 21 -15q0 -4 -3 -10l-78 -139q-7 -15 -18 -15h-23zM232 521q-20 0 -20 14q0 1 0.5 2.5t0.5 2.5l44 141q6 19 19 19h57q21 0 21 -15q0 -5 -3 -10l-78 -139q-7 -15 -18 -15h-23z"/>
<glyph glyph-name="uni0394" horiz-adv-x="694" unicode="Δ" d="M162 95l369 1l-184 419h-2zM28 41l301 662q5 9 15 9h6q10 0 15 -9l300 -664q4 -8 4 -19q0 -20 -23 -20h-596q-27 0 -27 20q0 11 5 21z"/>
<glyph glyph-name="uni03A9" horiz-adv-x="781" unicode="Ω" d="M41 16v64q0 16 16 16h102q-58 37 -93.5 108t-35.5 150q0 150 105 253t255 103t255 -103t105 -253q0 -78 -36 -149.5t-94 -108.5h102q16 0 16 -16v-64q0 -6 -4.5 -11t-11.5 -5h-259q-7 0 -11.5 5t-4.5 11v41q0 14 4.5 19.5t15.5 10.5q82 32 131.5 104.5t49.5 157.5 q0 106 -76.5 183.5t-181.5 77.5q-106 0 -183 -77.5t-77 -183.5q0 -85 50 -157.5t132 -104.5q11 -5 15.5 -10.5t4.5 -19.5v-41q0 -6 -4.5 -11t-11.5 -5h-259q-7 0 -11.5 5t-4.5 11z"/>
<glyph glyph-name="uni03BC" horiz-adv-x="513" unicode="μ" d="M161 1v-282q0 -7 -5.5 -13t-13.5 -6h-56q-8 0 -13.5 6t-5.5 13v662q0 7 5.5 13t13.5 6h57q7 0 13 -6t6 -13v-201q0 -48 21.5 -74t60.5 -26t67.5 24t31.5 42v235q0 19 22 19h52q7 0 13 -6t6 -13v-362q0 -7 -6 -13t-13 -6h-28q-13 0 -18 16l-10 29l-5 -5q-5 -4 -8.5 -7 t-11 -9t-14.5 -10t-18 -9t-21.5 -8t-24.5 -5t-29 -2q-38 0 -68 11z"/>
<glyph glyph-name="pi" horiz-adv-x="655" unicode="π" d="M129 16v301h-91q-16 0 -16 16v51q0 16 16 16h567q16 0 16 -16v-51q0 -16 -16 -16h-94v-301q0 -7 -5 -11.5t-12 -4.5h-64q-7 0 -11.5 5t-4.5 11v301h-188v-301q0 -7 -5 -11.5t-12 -4.5h-64q-6 0 -11 5t-5 11z"/>
<glyph glyph-name="Wgrave" horiz-adv-x="900" unicode="Ẁ" d="M517 774l-168 72q-14 7 -6 24l23 44q4 6 13 6t13 -3l157 -91q12 -6 6 -19l-14 -28q-6 -13 -24 -5zM222 4l-189 672q-1 2 -1 7q0 17 19 17h67q14 0 18 -14l121 -459h4l163 472q4 11 17 11h18q13 0 17 -11l165 -472h4l119 459q4 14 18 14h67q19 0 19 -17q0 -5 -1 -7 l-189 -672q-4 -14 -18 -14h-16q-13 0 -17 11l-176 497h-5l-173 -497q-4 -11 -17 -11h-16q-14 0 -18 14z"/>
<glyph glyph-name="wgrave" horiz-adv-x="613" unicode="ẁ" d="M376 543l-168 72q-14 7 -6 24l23 44q4 6 13 6t13 -3l157 -91q12 -6 6 -19l-14 -29q-6 -13 -24 -4zM146 0l-119 377q-2 3 -2 9q0 14 16 14h54q15 0 18 -12l67 -221h1l107 233q4 10 17 10h6q13 0 17 -10l106 -234h1l66 222q5 12 31 12h39q17 0 17 -14q0 -3 -2 -9l-117 -377 q-3 -10 -18 -10h-4q-13 0 -17 9l-123 267h-1l-122 -267q-4 -9 -16 -9h-5q-14 0 -17 10z"/>
<glyph glyph-name="Wacute" horiz-adv-x="900" unicode="Ẃ" d="M380 774q-18 -8 -24 5l-14 28q-6 12 6 19l157 91q5 3 13 3q9 0 13 -6l23 -44q10 -16 -6 -24zM222 4l-189 672q-1 2 -1 7q0 17 19 17h67q14 0 18 -14l121 -459h4l163 472q4 11 17 11h18q13 0 17 -11l165 -472h4l119 459q4 14 18 14h67q19 0 19 -17q0 -5 -1 -7l-189 -672 q-4 -14 -18 -14h-16q-13 0 -17 11l-176 497h-5l-173 -497q-4 -11 -17 -11h-16q-14 0 -18 14z"/>
<glyph glyph-name="wacute" horiz-adv-x="613" unicode="ẃ" d="M238 543q-18 -9 -24 4l-14 29q-6 13 6 19l157 91q5 3 13 3q9 0 13 -6l23 -44q8 -17 -6 -24zM146 0l-119 377q-2 3 -2 9q0 14 16 14h54q15 0 18 -12l67 -221h1l107 233q4 10 17 10h6q13 0 17 -10l106 -234h1l66 222q5 12 31 12h39q17 0 17 -14q0 -3 -2 -9l-117 -377 q-3 -10 -18 -10h-4q-13 0 -17 9l-123 267h-1l-122 -267q-4 -9 -16 -9h-5q-14 0 -17 10z"/>
<glyph glyph-name="Wdieresis" horiz-adv-x="900" unicode="Ẅ" d="M334 782q-23 0 -39.5 17t-16.5 40t16.5 39.5t39.5 16.5t40 -16.5t17 -39.5t-17 -40t-40 -17zM563 782q-23 0 -39.5 17t-16.5 40t16.5 39.5t39.5 16.5t40 -16.5t17 -39.5t-17 -40t-40 -17zM222 4l-189 672q-1 2 -1 7q0 17 19 17h67q14 0 18 -14l121 -459h4l163 472 q4 11 17 11h18q13 0 17 -11l165 -472h4l119 459q4 14 18 14h67q19 0 19 -17q0 -5 -1 -7l-189 -672q-4 -14 -18 -14h-16q-13 0 -17 11l-176 497h-5l-173 -497q-4 -11 -17 -11h-16q-14 0 -18 14z"/>
<glyph glyph-name="wdieresis" horiz-adv-x="613" unicode="ẅ" d="M207 567q-23 0 -39.5 16.5t-16.5 39.5q0 24 16.5 40.5t39.5 16.5q24 0 40.5 -16.5t16.5 -40.5q0 -23 -16.5 -39.5t-40.5 -16.5zM404 567q-23 0 -39.5 16.5t-16.5 39.5q0 24 16.5 40.5t39.5 16.5q24 0 40.5 -16.5t16.5 -40.5q0 -23 -16.5 -39.5t-40.5 -16.5zM146 0 l-119 377q-2 3 -2 9q0 14 16 14h54q15 0 18 -12l67 -221h1l107 233q4 10 17 10h6q13 0 17 -10l106 -234h1l66 222q5 12 31 12h39q17 0 17 -14q0 -3 -2 -9l-117 -377q-3 -10 -18 -10h-4q-13 0 -17 9l-123 267h-1l-122 -267q-4 -9 -16 -9h-5q-14 0 -17 10z"/>
<glyph glyph-name="Ygrave" horiz-adv-x="574" unicode="Ỳ" d="M356 774l-168 72q-14 7 -6 24l23 44q4 6 13 6q8 0 13 -3l157 -91q12 -6 6 -19l-14 -28q-6 -13 -24 -5zM234 19v318l-234 334q-3 5 -3 11q0 18 19 18h74q9 0 16 -9l181 -255l181 255q7 9 16 9h75q19 0 19 -18q0 -6 -3 -11l-237 -333v-319q0 -7 -6 -13t-13 -6h-66 q-8 0 -13.5 5.5t-5.5 13.5z"/>
<glyph glyph-name="ygrave" horiz-adv-x="463" unicode="ỳ" d="M303 543l-168 72q-14 7 -6 24l23 44q4 6 13 6t13 -3l157 -91q12 -6 6 -19l-14 -29q-6 -13 -24 -4zM185 14l-174 360q-2 6 -2 9q0 17 19 17h66q12 0 17 -11l124 -266h1l120 266q5 11 21 11h57q9 0 14.5 -5t5.5 -12q0 -5 -3 -9l-306 -662q-6 -12 -17 -12h-60q-19 0 -19 17 q0 7 2 10z"/>
<glyph glyph-name="endash" horiz-adv-x="552" unicode="–" d="M85 276q-8 0 -13.5 5t-5.5 13v24q0 19 19 19h382q19 0 19 -19v-24q0 -8 -5.5 -13t-13.5 -5h-382z"/>
<glyph glyph-name="emdash" horiz-adv-x="772" unicode="—" d="M85 276q-8 0 -13.5 5t-5.5 13v24q0 19 19 19h602q19 0 19 -19v-24q0 -8 -5.5 -13t-13.5 -5h-602z"/>
<glyph glyph-name="quoteleft" horiz-adv-x="201" unicode="‘" d="M105 420q-30 0 -52 23t-22 76q0 59 27.5 107t59.5 76q8 6 13 6t10 -5l15 -15q9 -11 -5 -23q-64 -58 -65 -124q9 3 22 3q25 0 43.5 -18.5t18.5 -43.5q0 -26 -19 -44t-46 -18z"/>
<glyph glyph-name="quoteright" horiz-adv-x="198" unicode="’" d="M60 428l-14 14q-10 10 4 24q65 52 65 124q-6 -3 -21 -3q-26 0 -44 18t-18 43q0 26 18.5 44t45.5 18q31 0 53 -23t22 -75q0 -60 -27.5 -107t-59.5 -76q-7 -6 -13 -6t-11 5z"/>
<glyph glyph-name="quotesinglbase" horiz-adv-x="230" unicode="‚" d="M46 52q0 26 19 44t46 18q30 0 52 -23t22 -76q0 -102 -87 -183q-5 -5 -13 -5q-6 0 -10 5l-15 14q-10 12 5 23q64 51 65 124l-8 -1q-8 -2 -14 -2q-25 0 -43.5 18.5t-18.5 43.5z"/>
<glyph glyph-name="quotedblleft" horiz-adv-x="387" unicode="“" d="M105 422q-30 0 -52 23t-22 76q0 102 87 183q5 5 13 5q6 0 10 -5l15 -14q10 -12 -5 -23q-64 -58 -65 -124q1 0 8.5 1.5t13.5 1.5q25 0 43.5 -18.5t18.5 -43.5q0 -26 -19 -44t-46 -18zM292 422q-30 0 -52.5 23t-22.5 76q0 102 87 183q5 5 13 5q6 0 11 -5l14 -14 q10 -10 -4 -23q-65 -53 -65 -124l7 1q8 2 14 2q26 0 44 -18t18 -44t-18.5 -44t-45.5 -18z"/>
<glyph glyph-name="quotedblright" horiz-adv-x="384" unicode="”" d="M60 428l-14 14q-10 10 4 24q65 52 65 124q-6 -3 -21 -3q-26 0 -44 18t-18 43q0 26 18.5 44t45.5 18q31 0 53 -23t22 -75q0 -60 -27.5 -107t-59.5 -76q-7 -6 -13 -6t-11 5zM247 428l-15 14q-9 11 5 24q64 51 65 124q-9 -3 -22 -3q-25 0 -43.5 18t-18.5 43q0 26 19 44 t46 18q30 0 52 -22.5t22 -75.5q0 -60 -27.5 -107t-59.5 -76q-8 -6 -13 -6t-10 5z"/>
<glyph glyph-name="quotedblbase" horiz-adv-x="416" unicode="„" d="M46 52q0 26 18.5 44t45.5 18q30 0 52.5 -23t22.5 -76q0 -102 -87 -183q-5 -5 -13 -5q-6 0 -11 5l-14 14q-10 10 4 23q65 52 65 124l-7 -1q-8 -2 -14 -2q-26 0 -44 18t-18 44zM232 52q0 26 19 44t46 18q30 0 52 -23t22 -76q0 -102 -87 -183q-5 -5 -13 -5q-6 0 -10 5 l-15 14q-10 12 5 23q64 51 65 124l-8 -1q-8 -2 -14 -2q-25 0 -43.5 18.5t-18.5 43.5z"/>
<glyph glyph-name="dagger" horiz-adv-x="618" unicode="†" d="M69 310q-7 0 -13 6t-6 13v52q0 7 6 13t13 6h182v281q0 7 5.5 13t13.5 6h73q7 0 13 -6t6 -13v-281h188q7 0 12.5 -5.5t5.5 -13.5v-52q0 -8 -5.5 -13.5t-12.5 -5.5h-192l-25 -594q0 -6 -6 -11t-13 -5h-15q-7 0 -13 5t-6 11l-24 594h-187z"/>
<glyph glyph-name="daggerdbl" horiz-adv-x="618" unicode="‡" d="M80 19v52q0 7 6 13t13 6h164l-12 308v1h-182q-7 0 -13 5.5t-6 13.5v52q0 8 6 13.5t13 5.5h182v192q0 7 5.5 13t13.5 6h73q7 0 13 -6t6 -13v-192h188q7 0 12.5 -5.5t5.5 -13.5v-52q0 -8 -5.5 -13.5t-12.5 -5.5h-188l-12 -309h170q7 0 12.5 -5.5t5.5 -13.5v-52 q0 -8 -5.5 -13.5t-12.5 -5.5h-175l-12 -284q0 -6 -6 -11t-13 -5h-15q-7 0 -13 5t-6 11l-12 284h-169q-7 0 -13 6t-6 13z"/>
<glyph glyph-name="bullet" horiz-adv-x="371" unicode="•" d="M183 167q-47 0 -82 34.5t-35 82.5q0 49 35 85t82 36q50 0 85.5 -35.5t35.5 -85.5q0 -48 -35.5 -82.5t-85.5 -34.5z"/>
<glyph glyph-name="ellipsis" horiz-adv-x="646" unicode="…" d="M53 54q0 27 19 46t45 19q27 0 46 -19t19 -46q0 -26 -19 -45t-46 -19q-26 0 -45 19t-19 45zM258 54q0 27 19 46t45 19q27 0 46 -19t19 -46q0 -26 -19 -45t-46 -19q-26 0 -45 19t-19 45zM463 54q0 27 19 46t46 19t45.5 -19t18.5 -46q0 -26 -18.5 -45t-45.5 -19t-46 19 t-19 45z"/>
<glyph glyph-name="perthousand" horiz-adv-x="986" unicode="‰" d="M440 124q0 -26 18.5 -44.5t45.5 -18.5q25 0 43.5 18.5t18.5 44.5q0 25 -18.5 43.5t-43.5 18.5q-27 0 -45.5 -18t-18.5 -44zM747 124q0 -26 18.5 -44.5t44.5 -18.5t44.5 18.5t18.5 44.5q0 25 -18.5 43.5t-44.5 18.5t-44.5 -18t-18.5 -44zM369 124q0 56 39.5 95.5 t95.5 39.5t95.5 -39.5t39.5 -95.5t-39.5 -95.5t-95.5 -39.5t-95.5 39.5t-39.5 95.5zM675 124q0 56 39.5 95.5t95.5 39.5t96 -39.5t40 -95.5t-40 -95.5t-96 -39.5t-95.5 39.5t-39.5 95.5zM181 512q26 0 44 18.5t18 45.5q0 25 -18.5 43.5t-43.5 18.5q-26 0 -44.5 -18.5 t-18.5 -43.5q0 -27 18.5 -45.5t44.5 -18.5zM134 27l343 663q7 10 17 10h33q8 0 13.5 -5t5.5 -13q0 -6 -2 -9l-345 -663q-5 -10 -17 -10h-31q-8 0 -13.5 5t-5.5 13q0 6 2 9zM181 441q-56 0 -95.5 39.5t-39.5 95.5t39.5 95.5t95.5 39.5t95.5 -39.5t39.5 -95.5t-39.5 -95.5 t-95.5 -39.5z"/>
<glyph glyph-name="guilsinglleft" horiz-adv-x="262" unicode="‹" d="M139 39l-104 155q-4 5 -4 12q0 6 4 12l109 148q7 12 18 12h35q19 0 19 -17q0 -4 -4 -14l-71 -139l68 -147q3 -8 3 -13q0 -17 -18 -17h-40q-9 0 -15 8z"/>
<glyph glyph-name="guilsinglright" horiz-adv-x="262" unicode="›" d="M67 31q-18 0 -18 17q0 6 3 13l68 147l-71 139q-4 10 -4 14q0 17 19 17h35q11 0 18 -12l109 -148q4 -6 4 -12q0 -7 -4 -12l-104 -155q-6 -8 -15 -8h-40z"/>
<glyph glyph-name="fraction" horiz-adv-x="136" unicode="⁄" d="M-62 10q-5 -10 -17 -10h-31q-8 0 -13.5 5t-5.5 13q0 6 2 9l343 663q7 10 17 10h33q8 0 13.5 -5t5.5 -13q0 -6 -2 -9z"/>
<glyph glyph-name="zerosuperior" horiz-adv-x="352" unicode="⁰" d="M176 556q26 0 41 25t15 71t-15 71.5t-41 25.5q-55 0 -55 -97q0 -96 55 -96zM176 495q-60 0 -93 41.5t-33 115.5q0 75 33 116.5t93 41.5t93 -41.5t33 -116.5q0 -74 -33 -115.5t-93 -41.5z"/>
<glyph glyph-name="foursuperior" horiz-adv-x="365" unicode="⁴" d="M114 613h90v101zM212 504q-10 0 -10 9v49h-143q-9 0 -9 8v40l167 187q3 3 8 3h31q10 0 10 -9v-178h40q9 0 9 -8v-34q0 -9 -9 -9h-40v-49q0 -9 -10 -9h-44z"/>
<glyph glyph-name="fivesuperior" horiz-adv-x="324" unicode="⁵" d="M153 494q-62 0 -97 38q-4 4 -4 8q0 2 3 7l24 26q7 7 14 1q24 -24 62 -24q23 0 39 14t16 34t-15 32.5t-42 12.5h-76q-15 0 -15 16v132q0 9 9 9h158q9 0 9 -9v-36q0 -8 -9 -8h-110v-50h42q54 0 84 -26.5t30 -71.5t-34.5 -75t-87.5 -30z"/>
<glyph glyph-name="sixsuperior" horiz-adv-x="329" unicode="⁶" d="M167 552q21 0 35.5 13.5t14.5 33.5t-15 34t-36 14q-18 0 -34 -10.5t-21 -21.5q1 -23 16.5 -43t39.5 -20zM167 494q-55 0 -86 36.5t-31 92.5q0 44 19.5 80.5t49 59t52.5 34t42 17.5q2 1 5 1q7 0 10 -8l12 -28q4 -11 -9 -15q-28 -8 -64 -30.5t-46 -53.5q23 15 59 15 q40 0 69.5 -25.5t29.5 -71.5q0 -43 -33 -73.5t-79 -30.5z"/>
<glyph glyph-name="sevensuperior" horiz-adv-x="320" unicode="⁷" d="M73 504q-10 0 -10 7v7l124 227h-126q-9 0 -9 9v37q0 9 9 9h200q9 0 9 -9v-13l-137 -265q-5 -9 -14 -9h-46z"/>
<glyph glyph-name="eightsuperior" horiz-adv-x="331" unicode="⁸" d="M165 548q19 0 32.5 10t13.5 26q0 15 -12 27t-34 15q-20 -3 -32.5 -15t-12.5 -27q0 -16 13.5 -26t31.5 -10zM165 684q40 6 40 37q0 14 -12 24.5t-29 10.5q-16 0 -27 -10.5t-11 -24.5q0 -31 39 -37zM164 494q-51 0 -82.5 24.5t-31.5 61.5q0 28 20.5 48.5t37.5 27.5v1 q-50 23 -50 70q0 37 30.5 60t76.5 23t77 -23t31 -60q0 -24 -16 -43t-35 -27v-1q22 -9 40.5 -28.5t18.5 -47.5q0 -37 -32 -61.5t-85 -24.5z"/>
<glyph glyph-name="ninesuperior" horiz-adv-x="329" unicode="⁹" d="M162 655q37 0 56 32q-1 23 -16.5 43t-40.5 20q-21 0 -35.5 -14t-14.5 -34q0 -19 15 -33t36 -14zM115 487q-1 0 -2 -0.5t-2 -0.5q-8 0 -11 8l-11 29q-6 11 9 14q28 8 63.5 31t46.5 53q-30 -15 -60 -15q-40 0 -69 26t-29 72q0 43 33 73.5t79 30.5q55 0 86 -36.5t31 -92.5 q0 -44 -19.5 -80.5t-49.5 -59t-52.5 -34.5t-42.5 -18z"/>
<glyph glyph-name="zeroinferior" horiz-adv-x="352" unicode="₀" d="M121 -3q0 -96 55 -96q26 0 41 25t15 71t-15 72t-41 26t-40.5 -25.5t-14.5 -72.5zM50 -3q0 75 33 117t93 42t93 -42t33 -117q0 -74 -33 -115.5t-93 -41.5t-93 41.5t-33 115.5z"/>
<glyph glyph-name="oneinferior" horiz-adv-x="226" unicode="₁" d="M54 59l-4 24q0 6 5 11l72 52h40q9 0 9 -9v-278q0 -9 -9 -9h-49q-10 0 -10 9v201l-45 -7q-9 -2 -9 6z"/>
<glyph glyph-name="twoinferior" horiz-adv-x="314" unicode="₂" d="M81 74l-21 26q-7 10 2 16q40 40 95 40q50 0 78.5 -25.5t28.5 -65.5t-43 -88l-67 -73h100q9 0 9 -10v-35q0 -9 -9 -9h-194q-10 0 -10 9v15l118 130q29 31 29 53q0 16 -13 28.5t-36 12.5q-28 0 -53 -25q-7 -7 -14 1z"/>
<glyph glyph-name="threeinferior" horiz-adv-x="318" unicode="₃" d="M95 13q0 12 13 12h30q25 0 39 10.5t14 26.5q0 17 -13.5 27.5t-32.5 10.5q-26 0 -48 -20q-7 -6 -14 1l-22 24q-9 9 1 15q35 36 91 36q46 0 76 -22.5t30 -60.5q0 -24 -15.5 -43t-35.5 -27v-2q22 -9 41 -28.5t19 -46.5q0 -39 -32.5 -62.5t-82.5 -23.5q-62 0 -99 37 q-4 4 -4 7t4 7l21 25q7 7 15 0l3 -2l6 -4t9 -5t11.5 -5t13 -3.5t14.5 -1.5q22 0 36.5 10.5t14.5 27.5q0 18 -15.5 29.5t-44.5 11.5h-30q-13 0 -13 11v28z"/>
<glyph glyph-name="fourinferior" horiz-adv-x="365" unicode="₄" d="M114 -41h90v101zM50 -44l167 187q3 3 8 3h31q10 0 10 -9v-178h40q9 0 9 -8v-34q0 -9 -9 -9h-40v-49q0 -9 -10 -9h-44q-10 0 -10 9v49h-143q-9 0 -9 8v40z"/>
<glyph glyph-name="fiveinferior" horiz-adv-x="324" unicode="₅" d="M62 5v132q0 9 9 9h158q9 0 9 -9v-36q0 -8 -9 -8h-110v-50h42q54 0 84 -26.5t30 -71.5t-34.5 -75t-87.5 -30q-62 0 -97 38q-4 4 -4 8q0 2 3 7l24 26q7 7 14 1q24 -24 62 -24q23 0 39 14t16 34t-15 32.5t-42 12.5h-76q-15 0 -15 16z"/>
<glyph glyph-name="sixinferior" horiz-adv-x="329" unicode="₆" d="M111 -39q1 -23 16.5 -43t39.5 -20q21 0 35.5 13.5t14.5 33.5t-15 34t-36 14q-18 0 -34 -10.5t-21 -21.5zM50 -31q0 44 19.5 80.5t49 59t52.5 34t42 17.5q2 1 5 1q7 0 10 -8l12 -28q4 -11 -9 -15q-28 -8 -64 -30.5t-46 -53.5q23 15 59 15q40 0 69.5 -25.5t29.5 -71.5 q0 -43 -33 -73.5t-79 -30.5q-55 0 -86 36.5t-31 92.5z"/>
<glyph glyph-name="seveninferior" horiz-adv-x="320" unicode="₇" d="M61 91q-9 0 -9 9v37q0 9 9 9h200q9 0 9 -9v-13l-137 -265q-5 -9 -14 -9h-46q-10 0 -10 7v7l124 227h-126z"/>
<glyph glyph-name="eightinferior" horiz-adv-x="331" unicode="₈" d="M120 -70q0 -16 13.5 -26t31.5 -10q19 0 32.5 10t13.5 26q0 15 -12 27t-34 15q-20 -3 -32.5 -15t-12.5 -27zM126 67q0 -31 39 -37q40 6 40 37q0 14 -12 24.5t-29 10.5q-16 0 -27 -10.5t-11 -24.5zM50 -74q0 28 20.5 48.5t37.5 27.5v1q-19 8 -34.5 26.5t-15.5 43.5 q0 37 30.5 60t76.5 23t77 -23t31 -60q0 -24 -16 -43t-35 -27v-1q22 -9 40.5 -28.5t18.5 -47.5q0 -37 -32 -61.5t-85 -24.5q-51 0 -82.5 24.5t-31.5 61.5z"/>
<glyph glyph-name="nineinferior" horiz-adv-x="329" unicode="₉" d="M111 48q0 -19 15 -33t36 -14q37 0 56 32q-1 23 -16.5 43t-40.5 20q-21 0 -35.5 -14t-14.5 -34zM50 50q0 43 33 73.5t79 30.5q55 0 86 -36.5t31 -92.5q0 -44 -19.5 -80.5t-49.5 -59t-52.5 -34.5t-42.5 -18q-1 0 -2 -0.5t-2 -0.5q-8 0 -11 8l-11 29q-6 11 9 14 q28 8 63.5 31t46.5 53q-30 -15 -60 -15q-40 0 -69 26t-29 72z"/>
<glyph glyph-name="Euro" horiz-adv-x="724" unicode="€" d="M38 251q-7 0 -12.5 5.5t-5.5 13.5v10q0 8 5.5 13.5t12.5 5.5h39q-3 24 -3 50q0 15 1 22h-37q-7 0 -12.5 5.5t-5.5 13.5v10q0 8 5.5 13.5t12.5 5.5h43q24 126 123.5 208.5t230.5 82.5q135 0 242 -93q7 -6 7 -14t-6 -14l-42 -43q-7 -7 -14 -7t-16 7q-70 65 -170 65 q-88 0 -154.5 -54.5t-87.5 -137.5h257q8 0 13.5 -5.5t5.5 -13.5v-11q0 -8 -5.5 -13t-13.5 -5h-265q-1 -7 -1 -20q0 -31 5 -52h221q8 0 13.5 -5.5t5.5 -13.5v-11q0 -8 -5.5 -13t-13.5 -5h-206q28 -71 90.5 -115t141.5 -44q86 0 172 66q13 10 24 1l46 -45q5 -4 5 -12 q0 -9 -6 -15q-100 -97 -243 -97q-123 0 -219 73t-128 188h-50z"/>
<glyph glyph-name="afii61289" horiz-adv-x="505" unicode="ℓ" d="M180 296q95 42 154.5 113t59.5 167q0 35 -14.5 55.5t-39.5 20.5q-91 0 -148 -294zM101 151q0 29 5 64q-25 -8 -48 -12q-13 -1 -16 10l-4 29v6q0 12 14 14q42 8 67 16q9 53 16 90q33 170 82 256t123 86q52 0 82 -36t30 -98q0 -122 -80.5 -208t-203.5 -132q-10 -43 -10 -83 q0 -45 19.5 -74.5t61.5 -29.5q80 0 152 44q17 10 24 -3l11 -19q4 -7 5 -10t-0.5 -6.5t-6.5 -7.5q-10 -8 -29 -18.5t-64.5 -24.5t-91.5 -14q-71 0 -104.5 46t-33.5 115z"/>
<glyph glyph-name="trademark" horiz-adv-x="721" unicode="™" d="M151 391q-8 0 -13.5 5.5t-5.5 13.5v228h-67q-8 0 -13.5 5.5t-5.5 13.5v24q0 7 6 13t13 6h198q8 0 13.5 -5.5t5.5 -13.5v-24q0 -19 -19 -19h-67v-228q0 -8 -6 -13.5t-13 -5.5h-26zM334 391q-10 0 -15.5 7t-3.5 16l52 276q4 15 19 15h4q13 0 17 -11l84 -199l86 199 q4 11 17 11h4q15 0 19 -15l53 -277q1 -9 -4.5 -15.5t-14.5 -6.5h-26q-15 0 -19 17l-28 145l-68 -156q-4 -9 -16 -9h-6q-12 0 -17 10l-65 155l-30 -146q-1 -6 -7 -11t-12 -5h-23z"/>
<glyph glyph-name="Omega" horiz-adv-x="781" unicode="Ω" d="M41 16v64q0 16 16 16h102q-58 37 -93.5 108t-35.5 150q0 150 105 253t255 103t255 -103t105 -253q0 -78 -36 -149.5t-94 -108.5h102q16 0 16 -16v-64q0 -6 -4.5 -11t-11.5 -5h-259q-7 0 -11.5 5t-4.5 11v41q0 14 4.5 19.5t15.5 10.5q82 32 131.5 104.5t49.5 157.5 q0 106 -76.5 183.5t-181.5 77.5q-106 0 -183 -77.5t-77 -183.5q0 -85 50 -157.5t132 -104.5q11 -5 15.5 -10.5t4.5 -19.5v-41q0 -6 -4.5 -11t-11.5 -5h-259q-7 0 -11.5 5t-4.5 11z"/>
<glyph glyph-name="estimated" horiz-adv-x="823" unicode="℮" d="M147 375h492v160q-42 55 -106.5 86.5t-139.5 31.5q-77 0 -141 -30t-105 -86v-162zM147 162q38 -54 105 -85t141 -31q112 0 207 84q14 13 26 1l16 -18q10 -10 -5 -25q-104 -98 -244 -98q-152 0 -257.5 104t-105.5 255q0 152 105.5 256.5t257.5 104.5q151 0 256.5 -105 t106.5 -257q0 -27 -22 -27h-587v-159z"/>
<glyph glyph-name="onethird" horiz-adv-x="654" unicode="⅓" d="M396 27q-8 6 0 14l21 25q7 7 15 0l3 -2l6 -4t9 -5t11.5 -5t13 -3.5t14.5 -1.5q22 0 36.5 10.5t14.5 27.5q0 18 -15.5 29.5t-44.5 11.5h-30q-13 0 -13 11v28q0 12 13 12h30q25 0 39 10.5t14 26.5q0 17 -13.5 27.5t-32.5 10.5q-26 0 -48 -20q-7 -6 -14 1l-22 24q-9 9 1 15 q35 36 91 36q46 0 76 -22.5t30 -60.5q0 -24 -15.5 -43t-35.5 -27v-2q22 -9 41 -28.5t19 -46.5q0 -39 -32.5 -62.5t-82.5 -23.5q-62 0 -99 37zM118 404q-10 0 -10 9v201l-45 -7q-9 -2 -9 6l-4 24q0 6 5 11l72 52h40q9 0 9 -9v-278q0 -9 -9 -9h-49zM110 27l343 663q7 10 17 10 h33q8 0 13.5 -5t5.5 -13q0 -6 -2 -9l-345 -663q-5 -10 -17 -10h-31q-8 0 -13.5 5t-5.5 13q0 6 2 9z"/>
<glyph glyph-name="twothirds" horiz-adv-x="654" unicode="⅔" d="M396 27q-8 6 0 14l21 25q7 7 15 0l3 -2l6 -4t9 -5t11.5 -5t13 -3.5t14.5 -1.5q22 0 36.5 10.5t14.5 27.5q0 18 -15.5 29.5t-44.5 11.5h-30q-13 0 -13 11v28q0 12 13 12h30q25 0 39 10.5t14 26.5q0 17 -13.5 27.5t-32.5 10.5q-26 0 -48 -20q-7 -6 -14 1l-22 24q-9 9 1 15 q35 36 91 36q46 0 76 -22.5t30 -60.5q0 -24 -15.5 -43t-35.5 -27v-2q22 -9 41 -28.5t19 -46.5q0 -39 -32.5 -62.5t-82.5 -23.5q-62 0 -99 37zM110 27l343 663q7 10 17 10h33q8 0 13.5 -5t5.5 -13q0 -6 -2 -9l-345 -663q-5 -10 -17 -10h-31q-8 0 -13.5 5t-5.5 13q0 6 2 9z M14 404q-10 0 -10 9v15l118 130q29 31 29 53q0 16 -13 28.5t-36 12.5q-28 0 -53 -25q-7 -7 -14 1l-21 26q-7 10 2 16q40 40 95 40q50 0 78.5 -25.5t28.5 -65.5t-43 -88l-67 -73h100q9 0 9 -10v-35q0 -9 -9 -9h-194z"/>
<glyph glyph-name="oneeighth" horiz-adv-x="670" unicode="⅛" d="M471 80q0 -16 13.5 -26t31.5 -10q19 0 32.5 10t13.5 26q0 15 -12 27t-34 15q-20 -3 -32.5 -15t-12.5 -27zM477 217q0 -31 39 -37q40 6 40 37q0 14 -12 24.5t-29 10.5q-16 0 -27 -10.5t-11 -24.5zM401 76q0 28 20.5 48.5t37.5 27.5v1q-19 8 -34.5 26.5t-15.5 43.5 q0 37 30.5 60t76.5 23t77 -23t31 -60q0 -24 -16 -43t-35 -27v-1q22 -9 40.5 -28.5t18.5 -47.5q0 -37 -32 -61.5t-85 -24.5q-51 0 -82.5 24.5t-31.5 61.5zM118 404q-10 0 -10 9v201l-45 -7q-9 -2 -9 6l-4 24q0 6 5 11l72 52h40q9 0 9 -9v-278q0 -9 -9 -9h-49zM110 27l343 663 q7 10 17 10h33q8 0 13.5 -5t5.5 -13q0 -6 -2 -9l-345 -663q-5 -10 -17 -10h-31q-8 0 -13.5 5t-5.5 13q0 6 2 9z"/>
<glyph glyph-name="threeeighths" horiz-adv-x="705" unicode="⅜" d="M506 80q0 -16 13.5 -26t31.5 -10q19 0 32.5 10t13.5 26q0 15 -12 27t-34 15q-20 -3 -32.5 -15t-12.5 -27zM512 217q0 -31 39 -37q40 6 40 37q0 14 -12 24.5t-29 10.5q-16 0 -27 -10.5t-11 -24.5zM436 76q0 28 20.5 48.5t37.5 27.5v1q-19 8 -34.5 26.5t-15.5 43.5 q0 37 30.5 60t76.5 23t77 -23t31 -60q0 -24 -16 -43t-35 -27v-1q22 -9 40.5 -28.5t18.5 -47.5q0 -37 -32 -61.5t-85 -24.5q-51 0 -82.5 24.5t-31.5 61.5zM145 27l343 663q7 10 17 10h33q8 0 13.5 -5t5.5 -13q0 -6 -2 -9l-345 -663q-5 -10 -17 -10h-31q-8 0 -13.5 5t-5.5 13 q0 6 2 9zM153 394q-62 0 -99 37q-4 4 -4 7t4 7l21 25q7 7 15 0l3 -2l6 -4t9 -5t11.5 -5t13 -3.5t14.5 -1.5q22 0 36.5 10.5t14.5 27.5q0 18 -15.5 29.5t-44.5 11.5h-30q-13 0 -13 11v28q0 12 13 12h30q25 0 39 10.5t14 26.5q0 17 -13.5 27.5t-32.5 10.5q-26 0 -48 -20 q-7 -6 -14 1l-22 24q-9 9 1 15q35 36 91 36q46 0 76 -22.5t30 -60.5q0 -24 -15.5 -43t-35.5 -27v-2q22 -9 41 -28.5t19 -46.5q0 -39 -32.5 -62.5t-82.5 -23.5z"/>
<glyph glyph-name="fiveeighths" horiz-adv-x="705" unicode="⅝" d="M507 80q0 -16 13.5 -26t31.5 -10q19 0 32.5 10t13.5 26q0 15 -12 27t-34 15q-20 -3 -32.5 -15t-12.5 -27zM513 217q0 -31 39 -37q40 6 40 37q0 14 -12 24.5t-29 10.5q-16 0 -27 -10.5t-11 -24.5zM437 76q0 28 20.5 48.5t37.5 27.5v1q-19 8 -34.5 26.5t-15.5 43.5 q0 37 30.5 60t76.5 23t77 -23t31 -60q0 -24 -16 -43t-35 -27v-1q22 -9 40.5 -28.5t18.5 -47.5q0 -37 -32 -61.5t-85 -24.5q-51 0 -82.5 24.5t-31.5 61.5zM153 394q-62 0 -97 38q-4 4 -4 8q0 2 3 7l24 26q7 7 14 1q24 -24 62 -24q23 0 39 14t16 34t-15 32.5t-42 12.5h-76 q-15 0 -15 16v132q0 9 9 9h158q9 0 9 -9v-36q0 -8 -9 -8h-110v-50h42q54 0 84 -26.5t30 -71.5t-34.5 -75t-87.5 -30zM146 27l343 663q7 10 17 10h33q8 0 13.5 -5t5.5 -13q0 -6 -2 -9l-345 -663q-5 -10 -17 -10h-31q-8 0 -13.5 5t-5.5 13q0 6 2 9z"/>
<glyph glyph-name="seveneighths" horiz-adv-x="705" unicode="⅞" d="M506 80q0 -16 13.5 -26t31.5 -10q19 0 32.5 10t13.5 26q0 15 -12 27t-34 15q-20 -3 -32.5 -15t-12.5 -27zM512 217q0 -31 39 -37q40 6 40 37q0 14 -12 24.5t-29 10.5q-16 0 -27 -10.5t-11 -24.5zM436 76q0 28 20.5 48.5t37.5 27.5v1q-19 8 -34.5 26.5t-15.5 43.5 q0 37 30.5 60t76.5 23t77 -23t31 -60q0 -24 -16 -43t-35 -27v-1q22 -9 40.5 -28.5t18.5 -47.5q0 -37 -32 -61.5t-85 -24.5q-51 0 -82.5 24.5t-31.5 61.5zM105 404q-10 0 -10 7v7l124 227h-126q-9 0 -9 9v37q0 9 9 9h200q9 0 9 -9v-13l-137 -265q-5 -9 -14 -9h-46zM145 27 l343 663q7 10 17 10h33q8 0 13.5 -5t5.5 -13q0 -6 -2 -9l-345 -663q-5 -10 -17 -10h-31q-8 0 -13.5 5t-5.5 13q0 6 2 9z"/>
<glyph glyph-name="partialdiff" horiz-adv-x="570" unicode="∂" d="M147 218q0 -57 38.5 -97.5t93.5 -40.5q69 0 104 53.5t35 122.5q0 15 -1 22q-7 20 -46 48t-91 28q-55 0 -94 -40t-39 -96zM55 219q0 99 62.5 158t146.5 59q74 0 133 -37q-12 43 -44 83.5t-71 68t-70.5 45t-52.5 24.5q-20 6 -20 20q0 3 2 9l17 41q5 13 17 13q5 0 8 -1 q35 -13 70.5 -31t85 -56t86 -82.5t63 -114t26.5 -148.5q0 -122 -60.5 -201t-175.5 -79q-91 0 -157 67.5t-66 161.5z"/>
<glyph glyph-name="Delta" horiz-adv-x="694" unicode="∆" d="M162 95l369 1l-184 419h-2zM28 41l301 662q5 9 15 9h6q10 0 15 -9l300 -664q4 -8 4 -19q0 -20 -23 -20h-596q-27 0 -27 20q0 11 5 21z"/>
<glyph glyph-name="product" horiz-adv-x="671" unicode="∏" d="M49 16v668q0 6 5 11t11 5h541q7 0 11.5 -5t4.5 -11v-668q0 -6 -4.5 -11t-11.5 -5h-72q-7 0 -12 5t-5 11v587h-364v-587q0 -16 -16 -16h-72q-6 0 -11 5t-5 11z"/>
<glyph glyph-name="summation" horiz-adv-x="538" unicode="∑" d="M49 16v30l295 309l-295 303v26q0 6 4.5 11t11.5 5h408q7 0 11.5 -5t4.5 -11v-65q0 -16 -16 -16h-254l205 -195q16 -16 16 -31v-41q0 -13 -16 -29l-205 -210h254q7 0 11.5 -5t4.5 -12v-64q0 -6 -4.5 -11t-11.5 -5h-408q-7 0 -11.5 5t-4.5 11z"/>
<glyph glyph-name="minus" horiz-adv-x="525" unicode="−" d="M69 307q-7 0 -13 5.5t-6 13.5v42q0 8 6 13.5t13 5.5h387q7 0 12.5 -5.5t5.5 -13.5v-42q0 -8 -5.5 -13.5t-12.5 -5.5h-387z"/>
<glyph glyph-name="uni2215" horiz-adv-x="136" unicode="∕" d="M-62 10q-5 -10 -17 -10h-31q-8 0 -13.5 5t-5.5 13q0 6 2 9l343 663q7 10 17 10h33q8 0 13.5 -5t5.5 -13q0 -6 -2 -9z"/>
<glyph glyph-name="uni2219" horiz-adv-x="371" unicode="∙" d="M185 245q-30 0 -51.5 22t-21.5 51q0 31 21.5 53t51.5 22q31 0 52.5 -22t21.5 -53q0 -30 -21.5 -51.5t-52.5 -21.5z"/>
<glyph glyph-name="radical" horiz-adv-x="677" unicode="√" d="M221 0l-171 380q-2 6 -2 8q0 12 14 12h72q12 0 14 -9l90 -209h4l227 508q4 10 15 10h168q16 0 16 -16v-54q0 -16 -16 -16h-114l-281 -614q-4 -10 -14 -10h-8q-10 0 -14 10z"/>
<glyph glyph-name="infinity" horiz-adv-x="600" unicode="∞" d="M192 228q28 0 48 20t20 48t-20 48t-48 20q-29 0 -49 -20t-20 -48t20 -48t49 -20zM340 296q0 -28 20 -48t48 -20t48 20t20 48t-20 48t-48 20t-48 -20t-20 -48zM189 157q-58 0 -98.5 40.5t-40.5 98.5t40.5 99t98.5 41q67 0 110 -62q44 62 112 62q57 0 98 -41t41 -99 t-41 -98.5t-98 -40.5q-68 0 -112 61q-42 -61 -110 -61z"/>
<glyph glyph-name="integral" horiz-adv-x="393" unicode="∫" d="M130 -124v648q0 89 49 137.5t124 48.5q63 0 111 -40q6 -6 6 -15q0 -5 -2 -9l-27 -44q-9 -14 -25 -3q-30 23 -63 23t-54.5 -24.5t-21.5 -73.5v-649q0 -89 -48.5 -137t-124.5 -48q-66 0 -111 40q-6 6 -6 15q0 4 2 8l27 44q10 15 25 3q30 -23 63 -23t54.5 24.5t21.5 74.5z "/>
<glyph glyph-name="approxequal" horiz-adv-x="450" unicode="≈" d="M72 130l-29 24q-11 11 -3 22q11 23 40 48q38 34 79 34q33 0 79 -33q2 -1 9 -7t11 -8.5t11 -6.5t13 -5.5t13 -1.5q19 0 32.5 13t22.5 26.5t17 13.5q5 0 10 -4l30 -24q4 -4 4 -11q0 -5 -3 -10q-2 -3 -5 -8.5t-14.5 -19.5t-24 -24.5t-31.5 -19t-39 -8.5q-33 0 -73 31t-62 31 q-16 0 -29 -9t-20 -19t-15 -19t-14 -9q-5 0 -9 4zM64 321l-29 24q-6 6 -6 12q0 5 3 9q6 9 16 23t41 37t62 23q36 0 79 -33q3 -2 12 -9t14.5 -10.5t14 -7t16.5 -3.5q19 0 32 13.5t22.5 27t17.5 13.5q6 0 11 -4l29 -25q4 -4 4 -10q0 -5 -3 -11l-2 -4q-2 -3 -7.5 -10.5 t-12.5 -15.5t-17 -17t-21 -16t-25 -11.5t-29 -4.5q-33 0 -73 31t-62 31q-16 0 -29 -8.5t-20 -19.5t-15 -19.5t-14 -8.5q-5 0 -9 4z"/>
<glyph glyph-name="notequal" horiz-adv-x="450" unicode="≠" d="M122 54q-17 8 -10 24l26 55h-69q-8 0 -13.5 5.5t-5.5 13.5v44q0 8 5.5 13.5t13.5 5.5h107l60 129h-167q-8 0 -13.5 5.5t-5.5 13.5v43q0 8 5.5 13.5t13.5 5.5h205l35 76q5 11 17 11q2 0 8 -2l9 -5q8 -3 10.5 -10t-1.5 -14l-26 -56h55q8 0 13.5 -5.5t5.5 -13.5v-43 q0 -8 -5.5 -13.5t-13.5 -5.5h-93l-59 -129h152q8 0 13.5 -5.5t5.5 -13.5v-44q0 -8 -5.5 -13.5t-13.5 -5.5h-190l-35 -75q-5 -11 -17 -11q-2 0 -8 2z"/>
<glyph glyph-name="lessequal" horiz-adv-x="453" unicode="≤" d="M34 52q-8 0 -13.5 6t-5.5 13v42q0 7 5.5 13t13.5 6h387q7 0 12.5 -5.5t5.5 -13.5v-42q0 -8 -5.5 -13.5t-12.5 -5.5h-387zM25 383q-10 4 -10 17v8q0 10 10 16l393 190q3 2 8 2q13 0 13 -15v-58q0 -10 -8 -15l-276 -123l276 -121q8 -5 8 -15v-58q0 -15 -13 -15q-5 0 -8 2z "/>
<glyph glyph-name="greaterequal" horiz-adv-x="453" unicode="≥" d="M33 52q-7 0 -12.5 5.5t-5.5 13.5v42q0 8 5.5 13.5t12.5 5.5h387q8 0 13.5 -6t5.5 -13v-42q0 -7 -5.5 -13t-13.5 -6h-387zM36 198q-3 -2 -8 -2q-13 0 -13 15v58q0 10 8 15l276 121l-276 123q-8 5 -8 15v58q0 15 13 15q5 0 8 -2l393 -190q10 -6 10 -16v-8q0 -13 -10 -17z "/>
<glyph glyph-name="lozenge" horiz-adv-x="694" unicode="◊" d="M347 129h2l166 227l-166 227h-2l-167 -227zM99 309q-17 22 -17 48q0 22 20 48l228 298q7 9 15 9h6q8 0 15 -9l228 -297q20 -28 20 -50t-20 -51l-228 -296q-7 -9 -15 -9h-6q-8 0 -15 9z"/>
<glyph glyph-name="uniF8FF" horiz-adv-x="599" unicode="" d="M245 156q0 -20 14.5 -34t33.5 -14q20 0 34.5 14t14.5 34t-14.5 34t-34.5 14q-19 0 -33.5 -14t-14.5 -34zM262 314q0 -12 14 -12h36q15 0 15 13v26q0 16 16.5 32t36 28.5t36 36.5t16.5 53q0 48 -35.5 79.5t-89.5 31.5q-24 0 -46.5 -6.5t-37 -15t-25.5 -17.5t-16 -15l-5 -7 q-8 -12 0 -18l22 -22q9 -6 17 0q1 1 7.5 7t9.5 9t11.5 8.5t15.5 8.5t18 5.5t22 2.5q29 0 45 -15t16 -37q0 -21 -15.5 -39t-34 -30t-34 -32.5t-15.5 -45.5v-29zM50 30v640q0 30 30 30h439q30 0 30 -30v-640q0 -30 -30 -30h-439q-30 0 -30 30z"/>
<glyph glyph-name="CR" horiz-adv-x="0"/>
<glyph glyph-name="grave.cap" d="M225 774l-168 72q-8 5 -8 14q0 7 2 10l23 44q4 6 13 6t13 -3l157 -91q8 -4 8 -12q0 -3 -2 -7l-14 -28q-3 -8 -11 -8q-6 0 -13 3z" horiz-adv-x="302"/>
<glyph glyph-name="acute.cap" d="M88 774q-8 -3 -12 -3q-9 0 -12 8l-14 28q-1 2 -1 6q0 9 7 13l157 91q5 3 13 3q9 0 13 -6l23 -44q3 -4 3 -10q0 -9 -9 -14z" horiz-adv-x="302"/>
<glyph glyph-name="circumflex.cap" d="M84 769q-7 -4 -12 -4q-7 0 -11 7l-20 27q-2 4 -2 6q0 7 8 13l125 98q6 4 12 4q4 0 12 -4l125 -98q8 -6 8 -13q0 -2 -2 -6l-20 -27q-6 -8 -11 -8q-4 0 -12 5l-100 65z" horiz-adv-x="373"/>
<glyph glyph-name="caron.cap" d="M172 768l-125 98q-8 6 -8 13q0 2 2 6l20 27q4 7 11 7q5 0 12 -4l100 -65l100 65q8 5 12 5q5 0 11 -8l20 -27q2 -4 2 -6q0 -7 -8 -13l-125 -98q-8 -4 -12 -4q-6 0 -12 4z" horiz-adv-x="373"/>
<glyph glyph-name="caron.alt" d="M184 710q30 0 52 -22.5t22 -75.5q0 -60 -27.5 -107t-59.5 -76q-8 -6 -13 -6t-10 5l-15 14q-9 11 5 24q64 51 65 124q-9 -3 -22 -3q-25 0 -43.5 18t-18.5 43q0 26 19 44t46 18z" horiz-adv-x="373"/>
<glyph glyph-name="tilde.cap" d="M67 792l-23 15q-8 5 -8 14q0 3 2 9q42 84 98 84q25 0 45.5 -16t35.5 -32t28 -16q8 0 15 4.5t10.5 9.5t8.5 14t7 12q10 17 25 9q1 0 11.5 -7t14.5 -12q3 -4 3 -9q0 -4 -6 -18q-34 -75 -94 -75q-28 0 -61.5 32.5t-45.5 32.5q-24 0 -43 -41q-8 -18 -23 -10z" horiz-adv-x="380"/>
<glyph glyph-name="dieresis.cap" d="M122 782q-23 0 -39.5 17t-16.5 40t16.5 39.5t39.5 16.5t40 -16.5t17 -39.5t-17 -40t-40 -17zM351 782q-23 0 -39.5 17t-16.5 40t16.5 39.5t39.5 16.5t40 -16.5t17 -39.5t-17 -40t-40 -17z" horiz-adv-x="474"/>
<glyph glyph-name="macron.cap" d="M79 814q-8 0 -13.5 5t-5.5 13v28q0 19 19 19h256q19 0 19 -19v-28q0 -8 -5.5 -13t-13.5 -5h-256z" horiz-adv-x="414"/>
<glyph glyph-name="breve.cap" d="M173 768q-52 0 -95 35t-43 85q0 17 16 17h29q14 0 18 -16q19 -58 75 -58q24 0 44 17t28 41q5 16 18 16h31q16 0 16 -17q0 -50 -43 -85t-94 -35z" horiz-adv-x="346"/>
<glyph glyph-name="ring.cap" d="M145 811q21 0 37 17t16 39t-15.5 37.5t-37.5 15.5q-23 0 -39.5 -15.5t-16.5 -37.5t16.5 -39t39.5 -17zM145 756q-47 0 -79 32t-32 79t32 79t79 32q46 0 78.5 -32.5t32.5 -78.5t-32.5 -78.5t-78.5 -32.5z" horiz-adv-x="290"/>
<glyph glyph-name="hungarumlaut.cap" d="M60 768q-20 0 -20 15v2l1 2l43 141q6 19 19 19h57q21 0 21 -15q0 -4 -3 -10l-78 -139q-8 -15 -18 -15h-22zM226 768q-20 0 -20 14q0 1 0.5 2.5t0.5 2.5l43 141q6 19 19 19h57q21 0 21 -15q0 -4 -3 -10l-78 -139q-9 -15 -18 -15h-22z" horiz-adv-x="392"/>
<glyph glyph-name="dotaccent.cap" d="M108 788q-26 0 -45 19t-19 46t19 45.5t45 18.5q27 0 46 -18.5t19 -45.5t-19 -46t-46 -19z" horiz-adv-x="219"/>
<glyph glyph-name="cedilla.cap" d="M54 0h60v-53q46 -6 73.5 -33.5t27.5 -69.5q0 -44 -30.5 -74t-74.5 -30q-46 0 -76 35q-6 6 -6 13t7 14l17 14q13 9 22 -1q14 -15 36 -15q17 0 28 12t11 30q0 47 -78 56q-17 3 -17 19v83z" horiz-adv-x="247"/>
<glyph glyph-name="ogonek.cap" d="M109 12h58q-7 -5 -17 -14.5t-27 -38.5t-17 -57q0 -26 17.5 -43t44.5 -17q21 0 50 12q8 3 13.5 -1.5t5.5 -13.5v-28q0 -10 -14 -18q-28 -12 -68 -12q-50 0 -83 27t-33 79q0 35 17.5 66t35.5 45z" horiz-adv-x="276"/>
<glyph glyph-name="commaaccent" d="M142 -92q30 0 52 -22.5t22 -75.5q0 -60 -27.5 -107t-59.5 -76q-7 -6 -13 -6q-5 0 -10 5l-15 14q-9 11 5 24q64 51 65 124q-9 -3 -22 -3q-25 0 -43.5 18t-18.5 43q0 26 19 44t46 18z" horiz-adv-x="292"/>
<glyph glyph-name="commaaccent.alt" d="M142 -92q30 0 52 -22.5t22 -75.5q0 -60 -27.5 -107t-59.5 -76q-7 -6 -13 -6q-5 0 -10 5l-15 14q-9 11 5 24q64 51 65 124q-9 -3 -22 -3q-25 0 -43.5 18t-18.5 43q0 26 19 44t46 18z" horiz-adv-x="292"/>
<glyph glyph-name="commaaccent.cap" d="M142 -92q30 0 52 -22.5t22 -75.5q0 -60 -27.5 -107t-59.5 -76q-7 -6 -13 -6q-5 0 -10 5l-15 14q-9 11 5 24q64 51 65 124q-9 -3 -22 -3q-25 0 -43.5 18t-18.5 43q0 26 19 44t46 18z" horiz-adv-x="292"/>
<glyph glyph-name="brokenbar.case" d="M143 169q0 8 5.5 13.5t13.5 5.5h10q8 0 13 -5.5t5 -13.5v-331q0 -7 -5.5 -12.5t-13.5 -5.5h-9q-8 0 -13.5 5.5t-5.5 12.5v331zM162 512q-8 0 -13.5 5.5t-5.5 12.5v331q0 8 5.5 13.5t13.5 5.5h10q8 0 13 -5.5t5 -13.5v-331q0 -7 -5.5 -12.5t-13.5 -5.5h-9z" horiz-adv-x="333"/>
<glyph glyph-name="zero.tf" d="M302 81q70 0 108 67.5t38 191.5q0 123 -38 190.5t-108 67.5t-108.5 -67.5t-38.5 -190.5q0 -124 38 -191.5t109 -67.5zM302 -10q-118 0 -183 92.5t-65 257.5t65 257.5t183 92.5q117 0 182 -92.5t65 -257.5t-65 -257.5t-182 -92.5z" horiz-adv-x="604"/>
<glyph glyph-name="one.tf" d="M129 0q-8 0 -13.5 5t-5.5 13v43q0 19 19 19h140v447l-87 -44q-17 -8 -22 7l-12 35q-5 12 3 20l149 135h49q7 0 12.5 -5.5t5.5 -13.5v-581h110q19 0 19 -19v-43q0 -8 -5.5 -13t-13.5 -5h-348z" horiz-adv-x="604"/>
<glyph glyph-name="two.tf" d="M78 19v26q13 14 252 299q76 85 76 146q0 44 -31 76.5t-92 32.5q-65 0 -127 -67q-14 -14 -27 0l-34 34q-13 13 -1 26q3 4 9 10.5t25 23.5t40 30t54 23.5t66 10.5q103 0 161 -56.5t58 -139.5q0 -52 -23 -93.5t-73 -101.5q-88 -106 -182 -213h255q8 0 13.5 -6t5.5 -13v-48 q0 -7 -5.5 -13t-13.5 -6h-387q-8 0 -13.5 5.5t-5.5 13.5z" horiz-adv-x="604"/>
<glyph glyph-name="three.tf" d="M79 79q-4 4 -4 12t5 12l39 36q15 12 27 -2q5 -7 21 -20t49 -27.5t66 -14.5q51 0 88 30t37 78q0 49 -41 83t-117 34h-56q-19 0 -19 21v43q0 21 20 21h56q68 0 104.5 30t36.5 77q0 48 -34 78.5t-80 30.5q-65 0 -116 -56q-11 -15 -26 -2l-37 33q-14 12 0 26q3 4 9 9.5t25 21 t39 27t50.5 21t61.5 9.5q89 0 149 -50.5t60 -132.5q0 -53 -32 -96t-71 -61v-3q44 -19 82.5 -63.5t38.5 -102.5q0 -83 -62 -137t-164 -54q-130 0 -205 89z" horiz-adv-x="604"/>
<glyph glyph-name="four.tf" d="M135 232h241v294zM46 149q-8 0 -13.5 5.5t-5.5 13.5v60l370 457q6 6 15 6h37q8 0 13.5 -5.5t5.5 -13.5v-442h81q8 0 13.5 -5t5.5 -13v-42q0 -8 -5.5 -13.5t-13.5 -5.5h-81l1 -132q0 -7 -5.5 -13t-13.5 -6h-59q-7 0 -13 6t-6 13v130h-326z" horiz-adv-x="604"/>
<glyph glyph-name="five.tf" d="M98 73q-10 11 -10 19q0 7 8 15q6 5 18.5 17.5t18.5 17.5q13 12 24 0q7 -8 22 -21t49 -28.5t68 -15.5q59 0 97.5 42.5t38.5 98.5q0 55 -36 91.5t-103 36.5h-153q-14 0 -22.5 11t-8.5 24v280q0 8 5.5 13.5t13.5 5.5h309q8 0 13.5 -5.5t5.5 -13.5v-49q0 -8 -5.5 -13.5 t-13.5 -5.5h-238v-158h101q109 0 169.5 -58t60.5 -158q0 -95 -68 -162t-169 -67q-126 0 -195 83z" horiz-adv-x="604"/>
<glyph glyph-name="six.tf" d="M312 80q55 0 93.5 40.5t38.5 97.5q0 56 -39 96t-94 40q-52 0 -91 -28t-46 -48q-1 -7 -1 -22q0 -69 35 -122.5t104 -53.5zM77 270q0 79 26.5 148.5t63 114t86 82.5t85 56t70.5 31q3 1 8 1q12 0 17 -13l17 -41q2 -6 2 -9q0 -14 -20 -20q-21 -7 -52.5 -24.5t-70.5 -45 t-71 -68t-44 -83.5q59 37 133 37q84 0 146.5 -59t62.5 -158q0 -94 -66 -161.5t-157 -67.5q-115 0 -175.5 79t-60.5 201z" horiz-adv-x="604"/>
<glyph glyph-name="seven.tf" d="M133 19v11l270 562h-296q-7 0 -13 6t-6 13v50q0 7 6 13t13 6h409q8 0 13.5 -6t5.5 -13v-7l-294 -627q-7 -16 -14 -21.5t-25 -5.5h-46q-10 0 -16.5 5.5t-6.5 13.5z" horiz-adv-x="604"/>
<glyph glyph-name="eight.tf" d="M175 180q0 -48 37.5 -78.5t88.5 -30.5q55 0 91.5 30t36.5 79q0 42 -34.5 76.5t-92.5 43.5q-58 -9 -92.5 -43.5t-34.5 -76.5zM302 396q56 8 84 36.5t28 70.5q0 46 -32.5 75.5t-82.5 29.5q-46 0 -77.5 -30t-31.5 -75q0 -90 112 -107zM71 182q0 57 40.5 103t80.5 64v3 q-39 20 -71 61t-32 94q0 81 60.5 132t151.5 51q93 0 153.5 -50.5t60.5 -132.5q0 -52 -32 -93t-71 -61v-4q44 -20 82.5 -64.5t38.5 -102.5q0 -84 -63 -138t-170 -54q-103 0 -166 54.5t-63 137.5z" horiz-adv-x="604"/>
<glyph glyph-name="nine.tf" d="M293 331q53 0 92 28t45 48q1 8 1 24q0 43 -13.5 81t-46 66t-79.5 28q-54 0 -93 -41t-39 -97q0 -57 39 -97t94 -40zM154 37q-2 6 -2 9q0 14 20 20q21 7 53 24.5t70.5 45t71 67.5t44.5 83q-65 -36 -133 -36q-85 0 -147.5 59t-62.5 158q0 94 66 161.5t158 67.5 q114 0 174.5 -79t60.5 -202q0 -67 -17.5 -126t-48.5 -102.5t-64.5 -78t-74.5 -60t-69 -40t-57 -25.5q-3 -1 -8 -1q-12 0 -17 13z" horiz-adv-x="604"/>
<glyph glyph-name="zero.denom" d="M176 51q26 0 41 25t15 71t-15 72t-41 26t-40.5 -25.5t-14.5 -72.5q0 -96 55 -96zM50 147q0 75 33 117t93 42t93 -42t33 -117q0 -74 -33 -115.5t-93 -41.5t-93 41.5t-33 115.5z" horiz-adv-x="352"/>
<glyph glyph-name="one.denom" d="M108 9v201l-45 -7q-9 -2 -9 6l-4 24q0 6 5 11l72 52h40q9 0 9 -9v-278q0 -9 -9 -9h-49q-10 0 -10 9z" horiz-adv-x="226"/>
<glyph glyph-name="two.denom" d="M50 9v15l118 130q29 31 29 53q0 16 -13 28.5t-36 12.5q-28 0 -53 -25q-7 -7 -14 1l-21 26q-7 10 2 16q40 40 95 40q50 0 78.5 -25.5t28.5 -65.5t-43 -88l-67 -73h100q9 0 9 -10v-35q0 -9 -9 -9h-194q-10 0 -10 9z" horiz-adv-x="314"/>
<glyph glyph-name="three.denom" d="M54 27q-4 4 -4 7t4 7l21 25q7 7 15 0l3 -2l6 -4t9 -5t11.5 -5t13 -3.5t14.5 -1.5q22 0 36.5 10.5t14.5 27.5q0 18 -15.5 29.5t-44.5 11.5h-30q-13 0 -13 11v28q0 12 13 12h30q25 0 39 10.5t14 26.5q0 17 -13.5 27.5t-32.5 10.5q-26 0 -48 -20q-7 -6 -14 1l-22 24 q-9 9 1 15q35 36 91 36q46 0 76 -22.5t30 -60.5q0 -24 -15.5 -43t-35.5 -27v-2q22 -9 41 -28.5t19 -46.5q0 -39 -32.5 -62.5t-82.5 -23.5q-62 0 -99 37z" horiz-adv-x="318"/>
<glyph glyph-name="four.denom" d="M114 109h90v101zM59 58q-9 0 -9 8v40l167 187q3 3 8 3h31q10 0 10 -9v-178h40q9 0 9 -8v-34q0 -9 -9 -9h-40v-49q0 -9 -10 -9h-44q-10 0 -10 9v49h-143z" horiz-adv-x="365"/>
<glyph glyph-name="five.denom" d="M56 28q-4 4 -4 8q0 2 3 7l24 26q7 7 14 1q24 -24 62 -24q23 0 39 14t16 34t-15 32.5t-42 12.5h-76q-15 0 -15 16v132q0 9 9 9h158q9 0 9 -9v-36q0 -8 -9 -8h-110v-50h42q54 0 84 -26.5t30 -71.5t-34.5 -75t-87.5 -30q-62 0 -97 38z" horiz-adv-x="324"/>
<glyph glyph-name="six.denom" d="M111 111q1 -23 16.5 -43t39.5 -20q21 0 35.5 13.5t14.5 33.5t-15 34t-36 14q-18 0 -34 -10.5t-21 -21.5zM50 119q0 44 19.5 80.5t49 59t52.5 34t42 17.5q2 1 5 1q7 0 10 -8l12 -28q4 -11 -9 -15q-28 -8 -64 -30.5t-46 -53.5q23 15 59 15q40 0 69.5 -25.5t29.5 -71.5 q0 -43 -33 -73.5t-79 -30.5q-55 0 -86 36.5t-31 92.5z" horiz-adv-x="329"/>
<glyph glyph-name="seven.denom" d="M63 7v7l124 227h-126q-9 0 -9 9v37q0 9 9 9h200q9 0 9 -9v-13l-137 -265q-5 -9 -14 -9h-46q-10 0 -10 7z" horiz-adv-x="320"/>
<glyph glyph-name="eight.denom" d="M120 80q0 -16 13.5 -26t31.5 -10q19 0 32.5 10t13.5 26q0 15 -12 27t-34 15q-20 -3 -32.5 -15t-12.5 -27zM165 180q40 6 40 37q0 14 -12 24.5t-29 10.5q-16 0 -27 -10.5t-11 -24.5q0 -31 39 -37zM50 76q0 28 20.5 48.5t37.5 27.5v1q-50 23 -50 70q0 37 30.5 60t76.5 23 t77 -23t31 -60q0 -24 -16 -43t-35 -27v-1q22 -9 40.5 -28.5t18.5 -47.5q0 -37 -32 -61.5t-85 -24.5q-51 0 -82.5 24.5t-31.5 61.5z" horiz-adv-x="331"/>
<glyph glyph-name="nine.denom" d="M162 151q37 0 56 32q-1 23 -16.5 43t-40.5 20q-21 0 -35.5 -14t-14.5 -34q0 -19 15 -33t36 -14zM89 19q-6 11 9 14q28 8 63.5 31t46.5 53q-30 -15 -60 -15q-40 0 -69 26t-29 72q0 43 33 73.5t79 30.5q55 0 86 -36.5t31 -92.5q0 -44 -19.5 -80.5t-49.5 -59t-52.5 -34.5 t-42.5 -18q-1 0 -2 -0.5t-2 -0.5q-8 0 -11 8z" horiz-adv-x="329"/>
<glyph glyph-name="zero.num" d="M176 456q26 0 41 25t15 71t-15 71.5t-41 25.5q-55 0 -55 -97q0 -96 55 -96zM176 395q-60 0 -93 41.5t-33 115.5q0 75 33 116.5t93 41.5t93 -41.5t33 -116.5q0 -74 -33 -115.5t-93 -41.5z" horiz-adv-x="352"/>
<glyph glyph-name="one.num" d="M118 404q-10 0 -10 9v201l-45 -7q-9 -2 -9 6l-4 24q0 6 5 11l72 52h40q9 0 9 -9v-278q0 -9 -9 -9h-49z" horiz-adv-x="226"/>
<glyph glyph-name="two.num" d="M60 404q-10 0 -10 9v15l118 130q29 31 29 53q0 16 -13 28.5t-36 12.5q-28 0 -53 -25q-7 -7 -14 1l-21 26q-7 10 2 16q40 40 95 40q50 0 78.5 -25.5t28.5 -65.5t-43 -88l-67 -73h100q9 0 9 -10v-35q0 -9 -9 -9h-194z" horiz-adv-x="314"/>
<glyph glyph-name="three.num" d="M153 394q-62 0 -99 37q-4 4 -4 7t4 7l21 25q7 7 15 0l3 -2l6 -4t9 -5t11.5 -5t13 -3.5t14.5 -1.5q22 0 36.5 10.5t14.5 27.5q0 18 -15.5 29.5t-44.5 11.5h-30q-13 0 -13 11v28q0 12 13 12h30q25 0 39 10.5t14 26.5q0 17 -13.5 27.5t-32.5 10.5q-26 0 -48 -20q-7 -6 -14 1 l-22 24q-9 9 1 15q35 36 91 36q46 0 76 -22.5t30 -60.5q0 -24 -15.5 -43t-35.5 -27v-2q22 -9 41 -28.5t19 -46.5q0 -39 -32.5 -62.5t-82.5 -23.5z" horiz-adv-x="318"/>
<glyph glyph-name="four.num" d="M114 513h90v101zM212 404q-10 0 -10 9v49h-143q-9 0 -9 8v40l167 187q3 3 8 3h31q10 0 10 -9v-178h40q9 0 9 -8v-34q0 -9 -9 -9h-40v-49q0 -9 -10 -9h-44z" horiz-adv-x="365"/>
<glyph glyph-name="five.num" d="M153 394q-62 0 -97 38q-4 4 -4 8q0 2 3 7l24 26q7 7 14 1q24 -24 62 -24q23 0 39 14t16 34t-15 32.5t-42 12.5h-76q-15 0 -15 16v132q0 9 9 9h158q9 0 9 -9v-36q0 -8 -9 -8h-110v-50h42q54 0 84 -26.5t30 -71.5t-34.5 -75t-87.5 -30z" horiz-adv-x="324"/>
<glyph glyph-name="six.num" d="M167 452q21 0 35.5 13.5t14.5 33.5t-15 34t-36 14q-18 0 -34 -10.5t-21 -21.5q1 -23 16.5 -43t39.5 -20zM167 394q-55 0 -86 36.5t-31 92.5q0 44 19.5 80.5t49 59t52.5 34t42 17.5q2 1 5 1q7 0 10 -8l12 -28q4 -11 -9 -15q-28 -8 -64 -30.5t-46 -53.5q23 15 59 15 q40 0 69.5 -25.5t29.5 -71.5q0 -43 -33 -73.5t-79 -30.5z" horiz-adv-x="329"/>
<glyph glyph-name="seven.num" d="M73 404q-10 0 -10 7v7l124 227h-126q-9 0 -9 9v37q0 9 9 9h200q9 0 9 -9v-13l-137 -265q-5 -9 -14 -9h-46z" horiz-adv-x="320"/>
<glyph glyph-name="eight.num" d="M165 448q19 0 32.5 10t13.5 26q0 15 -12 27t-34 15q-20 -3 -32.5 -15t-12.5 -27q0 -16 13.5 -26t31.5 -10zM165 584q40 6 40 37q0 14 -12 24.5t-29 10.5q-16 0 -27 -10.5t-11 -24.5q0 -31 39 -37zM164 394q-51 0 -82.5 24.5t-31.5 61.5q0 28 20.5 48.5t37.5 27.5v1 q-50 23 -50 70q0 37 30.5 60t76.5 23t77 -23t31 -60q0 -24 -16 -43t-35 -27v-1q22 -9 40.5 -28.5t18.5 -47.5q0 -37 -32 -61.5t-85 -24.5z" horiz-adv-x="331"/>
<glyph glyph-name="nine.num" d="M162 555q37 0 56 32q-1 23 -16.5 43t-40.5 20q-21 0 -35.5 -14t-14.5 -34q0 -19 15 -33t36 -14zM115 387q-1 0 -2 -0.5t-2 -0.5q-8 0 -11 8l-11 29q-6 11 9 14q28 8 63.5 31t46.5 53q-30 -15 -60 -15q-40 0 -69 26t-29 72q0 43 33 73.5t79 30.5q55 0 86 -36.5t31 -92.5 q0 -44 -19.5 -80.5t-49.5 -59t-52.5 -34.5t-42.5 -18z" horiz-adv-x="329"/>
<glyph glyph-name="a.alt" d="M330 136v125q-6 17 -30.5 39.5t-61.5 22.5q-50 0 -80 -36t-30 -88q0 -51 30 -87t77 -36q28 0 50.5 13.5t31.5 25t13 21.5zM425 381v-362q0 -7 -5.5 -13t-13.5 -6h-30q-13 0 -18 17l-8 29q-5 -6 -15.5 -15.5t-43.5 -25t-68 -15.5q-79 0 -133 61.5t-54 148.5t54.5 148.5 t136.5 61.5q73 0 122 -49l10 25q5 14 19 14h28q8 0 13.5 -6t5.5 -13z"/>
<glyph glyph-name="agrave.alt" d="M325 543l-168 72q-14 7 -6 24l23 44q4 6 13 6t13 -3l157 -91q12 -6 6 -19l-14 -29q-6 -13 -24 -4zM330 136v125q-6 17 -30.5 39.5t-61.5 22.5q-50 0 -80 -36t-30 -88q0 -51 30 -87t77 -36q28 0 50.5 13.5t31.5 25t13 21.5zM425 381v-362q0 -7 -5.5 -13t-13.5 -6h-30 q-13 0 -18 17l-8 29q-5 -6 -15.5 -15.5t-43.5 -25t-68 -15.5q-79 0 -133 61.5t-54 148.5t54.5 148.5t136.5 61.5q73 0 122 -49l10 25q5 14 19 14h28q8 0 13.5 -6t5.5 -13z"/>
<glyph glyph-name="aacute.alt" d="M172 543q-18 -9 -24 4l-14 29q-6 13 6 19l157 91q5 3 13 3q9 0 13 -6l23 -44q8 -17 -6 -24zM330 136v125q-6 17 -30.5 39.5t-61.5 22.5q-50 0 -80 -36t-30 -88q0 -51 30 -87t77 -36q28 0 50.5 13.5t31.5 25t13 21.5zM425 381v-362q0 -7 -5.5 -13t-13.5 -6h-30 q-13 0 -18 17l-8 29q-5 -6 -15.5 -15.5t-43.5 -25t-68 -15.5q-79 0 -133 61.5t-54 148.5t54.5 148.5t136.5 61.5q73 0 122 -49l10 25q5 14 19 14h28q8 0 13.5 -6t5.5 -13z"/>
<glyph glyph-name="acircumflex.alt" d="M120 542l-20 27q-7 10 6 19l125 98q6 4 12 4q4 0 12 -4l125 -98q13 -9 6 -19l-20 -27q-9 -12 -23 -3l-100 65l-100 -65q-14 -8 -23 3zM330 136v125q-6 17 -30.5 39.5t-61.5 22.5q-50 0 -80 -36t-30 -88q0 -51 30 -87t77 -36q28 0 50.5 13.5t31.5 25t13 21.5zM425 381 v-362q0 -7 -5.5 -13t-13.5 -6h-30q-13 0 -18 17l-8 29q-5 -6 -15.5 -15.5t-43.5 -25t-68 -15.5q-79 0 -133 61.5t-54 148.5t54.5 148.5t136.5 61.5q73 0 122 -49l10 25q5 14 19 14h28q8 0 13.5 -6t5.5 -13z"/>
<glyph glyph-name="atilde.alt" d="M122 568l-23 15q-13 8 -6 23q42 84 98 84q25 0 45.5 -16t35.5 -32t28 -16q8 0 15 4.5t10.5 9.5t8.5 14t7 12q10 17 25 9q1 0 11.5 -7t14.5 -12q5 -9 -3 -27q-34 -75 -94 -75q-28 0 -61.5 32.5t-45.5 32.5q-24 0 -43 -41q-8 -18 -23 -10zM330 136v125q-6 17 -30.5 39.5 t-61.5 22.5q-50 0 -80 -36t-30 -88q0 -51 30 -87t77 -36q28 0 50.5 13.5t31.5 25t13 21.5zM425 381v-362q0 -7 -5.5 -13t-13.5 -6h-30q-13 0 -18 17l-8 29q-5 -6 -15.5 -15.5t-43.5 -25t-68 -15.5q-79 0 -133 61.5t-54 148.5t54.5 148.5t136.5 61.5q73 0 122 -49l10 25 q5 14 19 14h28q8 0 13.5 -6t5.5 -13z"/>
<glyph glyph-name="adieresis.alt" d="M149 567q-23 0 -39.5 16.5t-16.5 39.5q0 24 16.5 40.5t39.5 16.5q24 0 40.5 -16.5t16.5 -40.5q0 -23 -16.5 -39.5t-40.5 -16.5zM346 567q-23 0 -39.5 16.5t-16.5 39.5q0 24 16.5 40.5t39.5 16.5q24 0 40.5 -16.5t16.5 -40.5q0 -23 -16.5 -39.5t-40.5 -16.5zM330 136v125 q-6 17 -30.5 39.5t-61.5 22.5q-50 0 -80 -36t-30 -88q0 -51 30 -87t77 -36q28 0 50.5 13.5t31.5 25t13 21.5zM425 381v-362q0 -7 -5.5 -13t-13.5 -6h-30q-13 0 -18 17l-8 29q-5 -6 -15.5 -15.5t-43.5 -25t-68 -15.5q-79 0 -133 61.5t-54 148.5t54.5 148.5t136.5 61.5 q73 0 122 -49l10 25q5 14 19 14h28q8 0 13.5 -6t5.5 -13z"/>
<glyph glyph-name="amacron.alt" d="M120 576q-8 0 -13.5 5t-5.5 13v28q0 19 19 19h256q19 0 19 -19v-28q0 -8 -5.5 -13t-13.5 -5h-256zM330 136v125q-6 17 -30.5 39.5t-61.5 22.5q-50 0 -80 -36t-30 -88q0 -51 30 -87t77 -36q28 0 50.5 13.5t31.5 25t13 21.5zM425 381v-362q0 -7 -5.5 -13t-13.5 -6h-30 q-13 0 -18 17l-8 29q-5 -6 -15.5 -15.5t-43.5 -25t-68 -15.5q-79 0 -133 61.5t-54 148.5t54.5 148.5t136.5 61.5q73 0 122 -49l10 25q5 14 19 14h28q8 0 13.5 -6t5.5 -13z"/>
<glyph glyph-name="abreve.alt" d="M247 529q-53 0 -91.5 33t-46.5 83q-3 21 16 21h29q14 0 18 -15q19 -59 75 -59q24 0 44 17t28 42q5 15 18 15h31q20 0 16 -21q-8 -50 -46.5 -83t-90.5 -33zM330 136v125q-6 17 -30.5 39.5t-61.5 22.5q-50 0 -80 -36t-30 -88q0 -51 30 -87t77 -36q28 0 50.5 13.5t31.5 25 t13 21.5zM425 381v-362q0 -7 -5.5 -13t-13.5 -6h-30q-13 0 -18 17l-8 29q-5 -6 -15.5 -15.5t-43.5 -25t-68 -15.5q-79 0 -133 61.5t-54 148.5t54.5 148.5t136.5 61.5q73 0 122 -49l10 25q5 14 19 14h28q8 0 13.5 -6t5.5 -13z"/>
<glyph glyph-name="aring.alt" d="M244 543q21 0 37 17t16 39t-15.5 37.5t-37.5 15.5q-24 0 -40 -15.5t-16 -37.5t16 -39t40 -17zM244 488q-46 0 -78.5 32t-32.5 79t32.5 79t78.5 32t78.5 -32.5t32.5 -78.5t-32.5 -78.5t-78.5 -32.5zM330 136v125q-6 17 -30.5 39.5t-61.5 22.5q-50 0 -80 -36t-30 -88 q0 -51 30 -87t77 -36q28 0 50.5 13.5t31.5 25t13 21.5zM425 381v-362q0 -7 -5.5 -13t-13.5 -6h-30q-13 0 -18 17l-8 29q-5 -6 -15.5 -15.5t-43.5 -25t-68 -15.5q-79 0 -133 61.5t-54 148.5t54.5 148.5t136.5 61.5q73 0 122 -49l10 25q5 14 19 14h28q8 0 13.5 -6t5.5 -13z "/>
<glyph glyph-name="aringacute.alt" d="M175 660q-18 -9 -24 4l-14 29q-6 13 6 19l157 91q4 3 13 3t13 -6l23 -44q8 -17 -6 -24zM244 490q21 0 37 17t16 39t-15.5 37.5t-37.5 15.5q-24 0 -40 -15.5t-16 -37.5t16 -39t40 -17zM244 435q-46 0 -78.5 32.5t-32.5 78.5t32.5 78.5t78.5 32.5t78.5 -32.5t32.5 -78.5 t-32.5 -78.5t-78.5 -32.5zM330 136v125q-6 17 -30.5 39.5t-61.5 22.5q-50 0 -80 -36t-30 -88q0 -51 30 -87t77 -36q28 0 50.5 13.5t31.5 25t13 21.5zM425 381v-362q0 -7 -5.5 -13t-13.5 -6h-30q-13 0 -18 17l-8 29q-5 -6 -15.5 -15.5t-43.5 -25t-68 -15.5q-79 0 -133 61.5 t-54 148.5t54.5 148.5t136.5 61.5q73 0 122 -49l10 25q5 14 19 14h28q8 0 13.5 -6t5.5 -13z"/>
<glyph glyph-name="aogonek.alt" d="M330 136v125q-6 17 -30.5 39.5t-61.5 22.5q-50 0 -80 -36t-30 -88q0 -51 30 -87t77 -36q28 0 50.5 13.5t31.5 25t13 21.5zM425 381v-362q0 -7 -5.5 -13t-13.5 -6h-1q-47 -47 -47 -98q0 -26 17.5 -43t44.5 -17q21 0 50 12q8 3 13.5 -1.5t5.5 -13.5v-28q0 -10 -14 -18 q-28 -12 -68 -12q-50 0 -83 27t-33 79q0 72 69 124l-10 35q-5 -6 -15.5 -15.5t-43.5 -25t-68 -15.5q-79 0 -133 61.5t-54 148.5t54.5 148.5t136.5 61.5q73 0 122 -49l10 25q5 14 19 14h28q8 0 13.5 -6t5.5 -13z"/>
<glyph glyph-name="parenleft.case" d="M302 28q14 -4 11 -18l-2 -46q-1 -13 -19 -13q-47 3 -86.5 22.5t-76.5 62t-58 121.5t-21 188q0 88 14.5 157t37.5 111.5t55.5 71t65 40t69.5 13.5h3q14 0 16 -13l2 -46q1 -7 -2.5 -12t-8.5 -6q-82 -18 -118.5 -97t-36.5 -219q0 -141 36.5 -219.5t118.5 -97.5z" horiz-adv-x="341"/>
<glyph glyph-name="parenright.case" d="M28 11q-2 15 11 17q82 19 119 98t37 219t-37 219t-119 97q-13 2 -11 18l3 46q0 13 15 13h3q37 -2 69.5 -13.5t65 -40t55.5 -71t37.5 -111.5t14.5 -157q0 -109 -21 -188t-58 -121.5t-76.5 -62t-86.5 -22.5q-18 0 -18 13z" horiz-adv-x="341"/>
<glyph glyph-name="hyphen.case" d="M87 296q-8 0 -13.5 5t-5.5 13v43q0 19 19 19h216q19 0 19 -19v-43q0 -8 -5.5 -13t-13.5 -5h-216z" horiz-adv-x="390"/>
<glyph glyph-name="bracketleft.case" d="M163 -99h134q8 0 13.5 -5.5t5.5 -12.5v-44q0 -7 -6 -13t-13 -6h-206q-7 0 -13 6t-6 13v962q0 7 6 13t13 6h206q7 0 13 -6t6 -13v-44q0 -8 -5.5 -13.5t-13.5 -5.5h-134v-837z" horiz-adv-x="337"/>
<glyph glyph-name="bracketright.case" d="M40 -99h133v837h-133q-8 0 -13.5 5.5t-5.5 13.5v44q0 7 5.5 13t13.5 6h206q8 0 13.5 -6t5.5 -13v-962q0 -7 -5.5 -13t-13.5 -6h-206q-8 0 -13.5 6t-5.5 13v44q0 7 5.5 12.5t13.5 5.5z" horiz-adv-x="337"/>
<glyph glyph-name="braceleft.case" d="M105 66v142q0 30 -23 49.5t-46 23.5q-6 1 -10.5 6.5t-4.5 11.5v40q0 12 14 16q18 2 44 23t26 50v144q0 71 23.5 124t62 80t78 39.5t82.5 13.5h2q18 0 18 -17l2 -41q1 -6 -3.5 -11.5t-9.5 -6.5q-69 -12 -114 -59t-45 -122v-119q0 -32 -9.5 -58t-24.5 -41t-25.5 -22.5 t-21.5 -11.5v-3q81 -35 81 -131v-120q0 -75 44.5 -121.5t114.5 -58.5q15 -2 13 -18l-2 -41q0 -7 -5.5 -12t-12.5 -5h-2q-43 1 -82.5 13.5t-78.5 39.5t-62 79.5t-23 123.5z" horiz-adv-x="394"/>
<glyph glyph-name="bar.case" d="M71 -162v1023q0 8 5.5 13.5t13.5 5.5h10q8 0 13 -5.5t5 -13.5v-1023q0 -7 -5.5 -12.5t-13.5 -5.5h-9q-8 0 -13.5 5.5t-5.5 12.5z" horiz-adv-x="189"/>
<glyph glyph-name="braceright.case" d="M193 66v120q0 96 81 131v3q-11 4 -21.5 11.5t-25.5 22.5t-24.5 41t-9.5 58v119q0 75 -45 122t-114 59q-5 1 -9.5 6.5t-3.5 11.5l2 41q0 17 18 17h2q43 -1 82.5 -13.5t78 -39.5t62 -80t23.5 -124v-144q0 -29 26 -50t44 -23q14 -4 14 -16v-40q0 -6 -4.5 -11.5t-10.5 -6.5 q-23 -4 -46 -23.5t-23 -49.5v-142q0 -71 -23 -123.5t-62 -79.5t-78.5 -39.5t-82.5 -13.5h-2q-7 0 -12.5 5t-5.5 12l-2 41q-2 16 13 18q70 12 114.5 58.5t44.5 121.5z" horiz-adv-x="394"/>
<glyph glyph-name="guilsinglleft.case" d="M139 159l-104 155q-4 5 -4 12q0 6 4 12l109 148q7 12 18 12h35q19 0 19 -17q0 -4 -4 -14l-71 -139l68 -147q3 -8 3 -13q0 -17 -18 -17h-40q-9 0 -15 8z" horiz-adv-x="262"/>
<glyph glyph-name="guilsinglright.case" d="M67 151q-18 0 -18 17q0 6 3 13l68 147l-71 139q-4 10 -4 14q0 17 19 17h35q11 0 18 -12l109 -148q4 -6 4 -12q0 -7 -4 -12l-104 -155q-6 -8 -15 -8h-40z" horiz-adv-x="262"/>
<glyph glyph-name="guillemotleft.case" d="M139 159l-104 155q-4 5 -4 12q0 6 4 12l109 148q7 12 18 12h35q19 0 19 -17q0 -4 -4 -14l-71 -139l68 -147q3 -8 3 -13q0 -17 -18 -17h-40q-9 0 -15 8zM216 314q-4 5 -4 12q0 6 4 12l109 148q7 12 18 12h35q19 0 19 -17q0 -4 -4 -14l-71 -139l68 -147q3 -8 3 -13 q0 -17 -18 -17h-40q-9 0 -15 8z" horiz-adv-x="443"/>
<glyph glyph-name="guillemotright.case" d="M67 151q-18 0 -18 17q0 6 3 13l68 147l-71 139q-4 10 -4 14q0 17 19 17h35q11 0 18 -12l109 -148q8 -13 0 -24l-104 -155q-6 -8 -15 -8h-40zM233 181l68 147l-71 139q-4 10 -4 14q0 17 19 17h35q11 0 18 -12l109 -148q4 -6 4 -12q0 -7 -4 -12l-104 -155q-6 -8 -15 -8h-40 q-18 0 -18 17q0 6 3 13z" horiz-adv-x="443"/>
<glyph glyph-name="endash.case" d="M85 306q-8 0 -13.5 5t-5.5 13v24q0 19 19 19h382q19 0 19 -19v-24q0 -8 -5.5 -13t-13.5 -5h-382z" horiz-adv-x="552"/>
<glyph glyph-name="emdash.case" d="M85 306q-8 0 -13.5 5t-5.5 13v24q0 19 19 19h602q19 0 19 -19v-24q0 -8 -5.5 -13t-13.5 -5h-602z" horiz-adv-x="772"/>
<glyph glyph-name="bullet.case" d="M183 197q-47 0 -82 34.5t-35 82.5q0 49 35 85t82 36q50 0 85.5 -35.5t35.5 -85.5q0 -48 -35.5 -82.5t-85.5 -34.5z" horiz-adv-x="371"/>
<glyph glyph-name="periodcentered.case" d="M118 275q-30 0 -51.5 22t-21.5 51q0 31 21.5 53t51.5 22q31 0 52.5 -22t21.5 -53q0 -30 -22 -51.5t-52 -21.5z" horiz-adv-x="237"/>
</font>
</defs>
</svg>
