<?xml version="1.0" standalone="no"?>
<!DOCTYPE svg PUBLIC "-//W3C//DTD SVG 20010904//EN"
 "http://www.w3.org/TR/2001/REC-SVG-20010904/DTD/svg10.dtd">
<svg version="1.0" xmlns="http://www.w3.org/2000/svg"
 width="16.000000pt" height="16.000000pt" viewBox="0 0 16.000000 16.000000"
 preserveAspectRatio="xMidYMid meet">
<metadata>
Created by potrace 1.11, written by Peter Selinger 2001-2013
</metadata>
<g transform="translate(0.000000,16.000000) scale(0.006154,-0.006154)"
fill="#000000" stroke="none">
<path d="M610 2531 c-84 -26 -150 -82 -191 -161 l-24 -45 0 -1035 0 -1035 27
-50 c31 -60 77 -104 138 -136 l45 -24 695 0 695 0 45 24 c61 32 107 76 138
136 l27 50 0 1035 0 1035 -27 50 c-31 60 -77 104 -138 136 l-45 24 -680 2
c-374 1 -691 -2 -705 -6z m770 -351 l0 -110 -375 0 -375 0 0 110 0 110 375 0
375 0 0 -110z m600 0 l0 -110 -250 0 -250 0 0 110 0 110 250 0 250 0 0 -110z
m0 -330 l0 -110 -675 0 -675 0 0 110 0 110 675 0 675 0 0 -110z m-1150 -965
l0 -605 -100 0 -100 0 0 605 0 605 100 0 100 0 0 -605z m290 0 l0 -605 -100 0
-100 0 0 605 0 605 100 0 100 0 0 -605z m280 0 l0 -605 -100 0 -100 0 0 605 0
605 100 0 100 0 0 -605z m300 0 l0 -605 -110 0 -110 0 0 605 0 605 110 0 110
0 0 -605z m280 0 l0 -605 -110 0 -110 0 0 605 0 605 110 0 110 0 0 -605z"/>
</g>
</svg>
